<svg xmlns="http://www.w3.org/2000/svg" xmlns:xlink="http://www.w3.org/1999/xlink" width="1000" zoomAndPan="magnify" viewBox="0 0 750 749.999995" height="1000" preserveAspectRatio="xMidYMid meet" version="1.0"><defs><clipPath id="8ea1b2521b"><path d="M 117.027344 151.855469 L 633.027344 151.855469 L 633.027344 598.105469 L 117.027344 598.105469 Z M 117.027344 151.855469 " clip-rule="nonzero"/></clipPath></defs><g clip-path="url(#8ea1b2521b)"><path fill="#ffffff" d="M 589.574219 580.875 L 620.597656 580.875 C 625.355469 580.875 629.214844 584.738281 629.214844 589.492188 C 629.214844 594.25 625.355469 598.113281 620.597656 598.113281 L 129.507812 598.113281 C 124.75 598.113281 120.886719 594.25 120.886719 589.492188 C 120.886719 584.738281 124.75 580.875 129.507812 580.875 L 160.53125 580.875 L 160.53125 373.449219 C 167.121094 375.15625 174.03125 376.066406 181.152344 376.066406 C 207.40625 376.066406 230.804688 363.707031 245.800781 344.484375 C 260.765625 363.707031 284.125 376.066406 310.386719 376.066406 C 336.714844 376.066406 360.097656 363.703125 375.070312 344.484375 C 390.066406 363.703125 413.460938 376.066406 439.71875 376.066406 C 465.976562 376.066406 489.339844 363.707031 504.304688 344.484375 C 519.300781 363.707031 542.695312 376.066406 568.949219 376.066406 C 576.070312 376.066406 582.984375 375.15625 589.574219 373.449219 Z M 438.035156 580.875 L 556.105469 580.875 L 556.105469 415.75 C 556.105469 409.691406 551.324219 404.679688 545.445312 404.679688 L 448.597656 404.679688 C 442.714844 404.679688 438.035156 409.691406 438.035156 415.75 Z M 192.910156 485.550781 L 407.179688 485.550781 L 407.179688 399.351562 C 407.179688 395.375 403.949219 392.144531 399.96875 392.144531 L 200.121094 392.144531 C 196.140625 392.144531 192.910156 395.375 192.910156 399.351562 Z M 407.179688 503.898438 L 192.910156 503.898438 L 192.910156 529.109375 C 192.910156 531.023438 193.671875 532.859375 195.023438 534.210938 C 196.378906 535.566406 198.214844 536.328125 200.128906 536.328125 L 399.960938 536.328125 C 401.875 536.328125 403.710938 535.566406 405.0625 534.210938 C 406.417969 532.859375 407.179688 531.023438 407.179688 529.109375 Z M 120.984375 285.644531 L 187.730469 157.660156 C 189.625 153.972656 193.109375 151.878906 197.195312 151.878906 L 274.371094 151.878906 L 239.175781 285.644531 Z M 291.902344 151.878906 L 366.433594 151.878906 L 366.433594 285.644531 L 257 285.644531 L 291.617188 154.070312 C 291.8125 153.339844 291.902344 152.605469 291.902344 151.878906 Z M 383.671875 151.878906 L 458.199219 151.878906 C 458.199219 152.605469 458.292969 153.339844 458.484375 154.070312 L 493.101562 285.644531 L 383.671875 285.644531 Z M 475.730469 151.878906 L 553.007812 151.878906 C 556.992188 151.878906 560.480469 153.972656 562.375 157.660156 L 629.121094 285.644531 L 510.929688 285.644531 Z M 633.042969 302.882812 C 628.820312 334.476562 601.699219 358.828125 568.949219 358.828125 C 536.203125 358.828125 509.078125 334.476562 504.855469 302.882812 Z M 503.714844 302.882812 C 499.503906 334.476562 472.464844 358.828125 439.71875 358.828125 C 406.96875 358.828125 379.847656 334.476562 375.625 302.882812 Z M 374.480469 302.882812 C 370.269531 334.476562 343.226562 358.828125 310.386719 358.828125 C 277.636719 358.828125 250.601562 334.476562 246.390625 302.882812 Z M 245.25 302.882812 C 241.023438 334.476562 213.902344 358.828125 181.152344 358.828125 C 148.40625 358.828125 121.285156 334.476562 117.0625 302.882812 Z M 245.25 302.882812 " fill-opacity="1" fill-rule="evenodd"/></g></svg>