<svg xmlns="http://www.w3.org/2000/svg" xmlns:xlink="http://www.w3.org/1999/xlink" width="1000" zoomAndPan="magnify" viewBox="0 0 750 749.999995" height="1000" preserveAspectRatio="xMidYMid meet" version="1.0"><path fill="#ffffff" d="M 299.304688 293.6875 C 303.679688 332.234375 336.253906 361.347656 374.980469 361.378906 C 413.738281 361.347656 446.691406 332.269531 450.679688 293.6875 L 483.601562 294.046875 C 479.128906 350.085938 432.015625 394.574219 375.007812 394.574219 C 318.011719 394.574219 270.894531 350.085938 266.382812 294.046875 Z M 254.78125 251.636719 C 223.21875 251.636719 214.433594 257.210938 210.226562 288.558594 L 173.1875 577.570312 C 168.96875 608.914062 186.335938 622.347656 217.914062 622.347656 L 532.0625 622.347656 C 563.660156 622.347656 581.027344 608.914062 576.789062 577.570312 L 539.785156 288.558594 C 535.527344 257.210938 526.78125 251.636719 495.21875 251.636719 Z M 254.78125 251.636719 " fill-opacity="1" fill-rule="nonzero"/><path fill="#ffffff" d="M 266.382812 228.167969 L 299.304688 228.167969 C 303.679688 189.625 336.253906 160.519531 374.980469 160.488281 C 413.738281 160.519531 446.691406 189.59375 450.679688 228.167969 L 483.601562 228.167969 C 479.105469 172.167969 432.015625 127.292969 375.007812 127.292969 C 318.011719 127.296875 270.859375 172.167969 266.382812 228.167969 Z M 266.382812 228.167969 " fill-opacity="1" fill-rule="nonzero"/></svg>