<svg xmlns="http://www.w3.org/2000/svg" xmlns:xlink="http://www.w3.org/1999/xlink" width="1000" zoomAndPan="magnify" viewBox="0 0 750 749.999995" height="1000" preserveAspectRatio="xMidYMid meet" version="1.0"><defs><clipPath id="5b3d8f46e5"><path d="M 125.355469 125.355469 L 624.855469 125.355469 L 624.855469 624.855469 L 125.355469 624.855469 Z M 125.355469 125.355469 " clip-rule="nonzero"/></clipPath></defs><g clip-path="url(#5b3d8f46e5)"><path fill="#ffffff" d="M 374.863281 624.546875 L 374.34375 624.546875 L 373.945312 624.542969 L 373.503906 624.542969 L 373.144531 624.539062 L 372.667969 624.535156 L 372.308594 624.53125 L 371.90625 624.527344 L 371.507812 624.523438 L 370.710938 624.507812 L 370.308594 624.5 L 369.910156 624.496094 L 369.511719 624.484375 L 369.269531 624.480469 C 369.03125 624.476562 368.792969 624.46875 368.550781 624.464844 L 368.472656 624.460938 C 368.191406 624.453125 367.953125 624.449219 367.671875 624.441406 L 367.671875 624.4375 C 290.902344 622.183594 222.800781 585.203125 178.542969 528.6875 C 178.503906 528.648438 178.460938 528.613281 178.460938 528.570312 C 152.820312 495.84375 135.203125 456.5625 128.492188 413.679688 L 128.492188 413.667969 C 128.414062 413.027344 128.292969 412.390625 128.214844 411.75 L 128.175781 411.550781 L 128.132812 411.335938 C 128.054688 410.832031 128.015625 410.324219 127.933594 409.8125 L 127.894531 409.589844 L 127.855469 409.261719 L 127.816406 409.007812 C 127.773438 408.628906 127.695312 408.25 127.65625 407.871094 L 127.617188 407.625 L 127.574219 407.296875 L 127.535156 406.96875 L 127.496094 406.679688 C 127.457031 406.425781 127.457031 406.175781 127.414062 405.917969 L 127.375 405.65625 L 127.335938 405.328125 L 127.296875 404.996094 L 127.253906 404.710938 C 127.214844 404.464844 127.214844 404.214844 127.175781 403.960938 L 127.136719 403.683594 L 127.097656 403.351562 L 127.054688 403.023438 L 127.015625 402.742188 C 127.015625 402.496094 126.976562 402.25 126.976562 402 L 126.894531 401.59375 L 126.855469 401.199219 L 126.816406 400.710938 L 126.777344 400.402344 L 126.738281 400.019531 L 126.695312 399.625 L 126.65625 399.230469 L 126.617188 398.726562 L 126.578125 398.425781 L 126.578125 398.019531 L 126.535156 397.65625 L 126.457031 396.867188 L 126.417969 396.40625 L 126.375 396.074219 L 126.335938 395.679688 L 126.335938 395.285156 L 126.296875 394.890625 L 126.257812 394.40625 L 126.21875 394.085938 L 126.175781 393.703125 L 126.175781 393.304688 L 126.136719 392.910156 L 126.097656 392.410156 L 126.097656 392.09375 L 126.058594 391.71875 L 126.015625 391.324219 L 126.015625 390.925781 L 125.976562 390.527344 L 125.9375 390.070312 L 125.9375 389.703125 L 125.898438 389.335938 L 125.898438 388.933594 L 125.859375 388.539062 L 125.859375 388.058594 L 125.816406 387.734375 L 125.816406 387.339844 L 125.777344 386.945312 L 125.777344 386.546875 L 125.738281 386.046875 L 125.738281 385.726562 L 125.699219 385.347656 L 125.699219 384.546875 L 125.65625 384.144531 L 125.65625 383.296875 L 125.617188 382.949219 L 125.617188 382.144531 L 125.578125 381.671875 L 125.578125 380.539062 L 125.539062 380.140625 L 125.539062 378.125 L 125.5 377.613281 L 125.5 375.277344 C 125.5 375.160156 125.5 375.03125 125.5 374.902344 L 125.5 372.082031 L 125.539062 371.679688 L 125.539062 369.667969 L 125.578125 369.265625 L 125.578125 368.0625 L 125.617188 367.660156 L 125.617188 366.777344 L 125.65625 366.449219 L 125.65625 365.660156 L 125.699219 365.261719 L 125.699219 364.441406 L 125.738281 364.058594 L 125.738281 363.660156 L 125.777344 363.257812 L 125.777344 362.859375 L 125.816406 362.4375 L 125.816406 362.011719 L 125.859375 361.664062 L 125.859375 361.265625 L 125.898438 360.871094 L 125.898438 360.394531 L 125.9375 360.0625 L 125.976562 359.675781 L 125.976562 359.277344 L 126.015625 358.882812 L 126.015625 358.386719 L 126.058594 358.066406 L 126.097656 357.6875 L 126.097656 357.292969 L 126.136719 356.898438 L 126.175781 356.5 L 126.175781 356.078125 L 126.21875 355.707031 L 126.257812 355.3125 L 126.296875 354.914062 L 126.335938 354.519531 L 126.335938 354.050781 L 126.375 353.722656 L 126.417969 353.332031 L 126.496094 352.542969 L 126.535156 352.058594 L 126.578125 351.738281 L 126.617188 351.359375 L 126.617188 350.96875 L 126.65625 350.574219 L 126.738281 350.070312 L 126.738281 349.761719 L 126.777344 349.34375 L 126.816406 349 L 126.855469 348.609375 L 126.894531 348.214844 L 126.976562 347.753906 L 127.015625 347.429688 L 127.054688 347.039062 L 127.097656 346.648438 L 127.136719 346.253906 L 127.175781 345.777344 L 127.214844 345.460938 L 127.253906 345.078125 L 127.296875 344.691406 L 127.375 344.296875 L 127.414062 343.800781 L 127.457031 343.503906 L 127.496094 343.117188 L 127.574219 342.738281 L 127.617188 342.34375 L 127.695312 341.832031 L 127.695312 341.546875 C 127.734375 341.300781 127.773438 341.050781 127.816406 340.804688 L 127.855469 340.398438 L 127.933594 339.863281 L 127.976562 339.597656 C 128.015625 339.34375 128.054688 339.09375 128.09375 338.847656 L 128.132812 338.40625 L 128.214844 337.902344 L 128.253906 337.582031 L 128.332031 337.292969 C 128.332031 337.039062 128.414062 336.789062 128.453125 336.535156 L 128.492188 336.273438 L 128.535156 335.949219 L 128.574219 335.621094 L 128.613281 335.355469 C 128.652344 335.101562 128.695312 334.84375 128.734375 334.589844 L 128.773438 334.324219 L 128.851562 333.996094 L 128.894531 333.671875 L 128.933594 333.425781 C 129.011719 333.046875 129.054688 332.664062 129.132812 332.28125 L 129.171875 332.050781 L 129.214844 331.726562 L 129.253906 331.503906 C 129.332031 330.992188 129.453125 330.480469 129.53125 329.972656 L 129.53125 329.96875 C 136.921875 289.4375 154.097656 252.3125 178.503906 221.140625 C 178.542969 221.101562 178.582031 221.0625 178.621094 221.023438 C 224.316406 162.734375 295.375 125.257812 375.144531 125.257812 C 454.910156 125.257812 525.96875 162.734375 571.664062 221.023438 C 571.703125 221.0625 571.742188 221.101562 571.78125 221.140625 C 596.1875 252.3125 613.363281 289.4375 620.753906 329.96875 L 620.753906 329.972656 C 620.832031 330.480469 620.953125 330.988281 621.03125 331.503906 L 621.074219 331.726562 L 621.113281 332.050781 L 621.152344 332.28125 C 621.230469 332.664062 621.273438 333.042969 621.351562 333.425781 L 621.390625 333.671875 L 621.433594 333.996094 L 621.511719 334.324219 L 621.550781 334.589844 C 621.589844 334.84375 621.632812 335.101562 621.671875 335.355469 L 621.710938 335.621094 L 621.75 335.949219 L 621.832031 336.273438 L 621.871094 336.535156 C 621.910156 336.785156 621.910156 337.035156 621.953125 337.292969 L 622.03125 337.726562 L 622.109375 338.230469 L 622.152344 338.558594 L 622.191406 338.847656 C 622.230469 339.097656 622.269531 339.351562 622.3125 339.597656 L 622.351562 339.863281 L 622.429688 340.519531 L 622.46875 340.804688 C 622.511719 341.050781 622.550781 341.300781 622.589844 341.546875 L 622.628906 341.953125 L 622.710938 342.484375 L 622.75 342.8125 L 622.789062 343.128906 L 622.828125 343.515625 L 622.871094 343.90625 L 622.910156 344.296875 L 622.988281 344.785156 L 623.03125 345.09375 L 623.070312 345.519531 L 623.109375 345.859375 L 623.148438 346.253906 L 623.230469 346.761719 L 623.269531 347.0625 L 623.347656 347.820312 L 623.390625 348.214844 L 623.429688 348.609375 L 623.46875 349.074219 L 623.507812 349.398438 L 623.546875 349.785156 L 623.589844 350.183594 L 623.628906 350.574219 L 623.667969 351.066406 L 623.707031 351.375 L 623.707031 351.757812 L 623.75 352.152344 L 623.789062 352.542969 L 623.828125 352.9375 L 623.867188 353.363281 L 623.910156 353.730469 L 623.949219 354.125 L 623.949219 354.519531 L 623.988281 354.914062 L 624.027344 355.382812 L 624.066406 355.714844 L 624.109375 356.101562 L 624.109375 356.5 L 624.148438 356.898438 L 624.1875 357.382812 L 624.1875 357.707031 L 624.226562 358.085938 L 624.269531 358.480469 L 624.269531 358.882812 L 624.308594 359.277344 L 624.347656 359.699219 L 624.347656 360.070312 L 624.386719 360.472656 L 624.386719 360.871094 L 624.429688 361.265625 L 624.429688 361.738281 L 624.46875 362.070312 L 624.46875 362.464844 L 624.507812 362.859375 L 624.507812 363.257812 L 624.546875 363.75 L 624.546875 364.074219 L 624.585938 364.457031 L 624.585938 365.261719 L 624.628906 365.660156 L 624.628906 366.082031 L 624.667969 366.460938 L 624.667969 367.660156 L 624.707031 368.128906 L 624.707031 369.265625 L 624.746094 369.667969 L 624.746094 371.277344 L 624.789062 371.679688 L 624.789062 374.527344 C 624.789062 374.648438 624.789062 374.773438 624.789062 374.902344 L 624.789062 378.125 L 624.746094 378.628906 L 624.746094 380.140625 L 624.707031 380.539062 L 624.707031 381.746094 L 624.667969 382.144531 L 624.667969 383.351562 L 624.628906 383.746094 L 624.628906 384.144531 L 624.585938 384.546875 L 624.585938 385.359375 L 624.546875 385.746094 L 624.546875 386.148438 L 624.507812 386.546875 L 624.507812 386.945312 L 624.46875 387.367188 L 624.46875 387.742188 L 624.429688 388.140625 L 624.429688 388.539062 L 624.386719 388.933594 L 624.386719 389.402344 L 624.347656 389.742188 L 624.308594 390.128906 L 624.308594 390.527344 L 624.269531 390.925781 L 624.269531 391.40625 L 624.226562 391.730469 L 624.1875 392.117188 L 624.1875 392.515625 L 624.148438 392.910156 L 624.109375 393.410156 L 624.109375 393.71875 L 624.066406 394.101562 L 623.949219 395.285156 L 623.949219 395.707031 L 623.910156 396.097656 L 623.867188 396.472656 L 623.789062 397.261719 L 623.75 397.730469 L 623.707031 398.054688 L 623.707031 398.445312 L 623.667969 398.835938 L 623.628906 399.230469 L 623.546875 399.71875 L 623.546875 400.027344 L 623.507812 400.460938 L 623.46875 400.804688 L 623.429688 401.199219 L 623.347656 401.699219 L 623.308594 402 C 623.308594 402.242188 623.269531 402.492188 623.269531 402.742188 L 623.230469 403.023438 L 623.1875 403.351562 L 623.148438 403.683594 L 623.109375 403.960938 C 623.070312 404.214844 623.070312 404.464844 623.03125 404.710938 L 622.988281 404.996094 L 622.949219 405.328125 L 622.910156 405.65625 L 622.871094 405.917969 C 622.828125 406.171875 622.828125 406.425781 622.789062 406.679688 L 622.710938 407.113281 L 622.671875 407.625 L 622.628906 407.871094 C 622.589844 408.25 622.511719 408.632812 622.46875 409.007812 L 622.429688 409.261719 L 622.390625 409.589844 L 622.351562 409.8125 C 622.3125 410.320312 622.230469 410.828125 622.152344 411.335938 L 622.109375 411.550781 L 622.070312 411.75 C 621.992188 412.394531 621.871094 413.03125 621.792969 413.667969 L 621.792969 413.679688 C 615.082031 456.5625 597.464844 495.84375 571.863281 528.570312 C 571.824219 528.613281 571.78125 528.648438 571.742188 528.6875 C 527.445312 585.207031 459.34375 622.179688 382.613281 624.4375 L 382.613281 624.441406 C 382.332031 624.445312 382.09375 624.453125 381.8125 624.460938 L 381.734375 624.464844 C 381.492188 624.46875 381.253906 624.476562 381.054688 624.480469 L 380.695312 624.488281 L 380.375 624.496094 L 379.976562 624.5 L 379.578125 624.507812 L 379.175781 624.515625 L 378.738281 624.523438 L 378.378906 624.527344 L 377.9375 624.53125 L 377.578125 624.535156 L 377.140625 624.539062 L 376.742188 624.542969 L 376.300781 624.542969 L 375.902344 624.546875 Z M 369.589844 510.515625 C 333.882812 510.707031 300.128906 512.769531 269.972656 516.320312 C 277.960938 533.644531 287.386719 549.03125 297.972656 561.972656 C 318.265625 586.785156 342.828125 602.46875 369.589844 604.378906 Z M 389.5625 510.601562 L 389.5625 603.230469 C 412.890625 598.851562 434.296875 584.011719 452.3125 561.972656 C 462.898438 549.03125 472.324219 533.644531 480.3125 516.320312 C 452.671875 513.066406 421.996094 511.0625 389.5625 510.601562 Z M 500.882812 519.066406 C 491.65625 540.347656 480.472656 559.117188 467.769531 574.617188 C 462.816406 580.683594 457.625 586.253906 452.234375 591.300781 C 488.742188 578.269531 521.015625 556.25 546.378906 527.917969 C 532.839844 524.535156 517.578125 521.554688 500.882812 519.066406 Z M 249.402344 519.066406 C 232.707031 521.558594 217.449219 524.535156 203.90625 527.917969 C 229.269531 556.257812 261.542969 578.273438 298.050781 591.300781 C 292.660156 586.253906 287.46875 580.683594 282.515625 574.617188 C 269.8125 559.117188 258.628906 540.347656 249.402344 519.066406 Z M 221.480469 384.890625 L 145.667969 384.890625 L 145.710938 385.257812 L 145.710938 385.652344 L 145.75 386.035156 L 145.75 386.386719 L 145.789062 386.726562 L 145.789062 387.101562 L 145.828125 387.5 L 145.828125 387.847656 L 145.867188 388.191406 L 145.867188 388.546875 L 145.910156 388.957031 L 145.910156 389.308594 L 145.949219 389.652344 L 145.949219 390.007812 L 145.988281 390.414062 L 145.988281 390.773438 L 146.027344 391.113281 L 146.070312 391.472656 L 146.070312 391.863281 L 146.109375 392.226562 L 146.148438 392.570312 L 146.148438 392.929688 L 146.1875 393.308594 L 146.226562 393.675781 L 146.269531 394.023438 L 146.269531 394.382812 L 146.308594 394.75 L 146.347656 395.125 C 146.386719 395.605469 146.429688 396.085938 146.46875 396.550781 L 146.46875 396.566406 C 149.585938 429.558594 159.648438 460.527344 175.226562 487.96875 L 175.425781 488.296875 L 175.585938 488.585938 L 175.707031 488.847656 L 175.867188 489.109375 L 176.027344 489.355469 C 180.300781 496.8125 185.011719 504.011719 190.085938 510.914062 C 205.105469 506.738281 222.558594 503.070312 241.933594 500.03125 C 229.828125 466.003906 222.480469 426.792969 221.480469 384.890625 Z M 604.417969 388.191406 L 604.457031 387.765625 L 604.496094 387.417969 L 604.496094 387.078125 L 604.535156 386.675781 L 604.535156 385.941406 L 604.574219 385.605469 L 604.574219 385.203125 L 604.617188 384.890625 L 528.804688 384.890625 C 527.804688 426.792969 520.457031 466.011719 508.351562 500.03125 C 527.726562 503.070312 545.179688 506.738281 560.199219 510.914062 C 565.273438 504.011719 569.984375 496.8125 574.257812 489.355469 L 574.417969 489.109375 L 574.578125 488.847656 L 574.699219 488.585938 L 574.898438 488.257812 L 575.058594 487.96875 C 590.636719 460.519531 600.703125 429.558594 603.816406 396.566406 L 603.816406 396.550781 C 603.855469 396.078125 603.898438 395.601562 603.9375 395.125 L 603.976562 394.742188 L 604.015625 394.382812 L 604.015625 394.011719 L 604.058594 393.632812 L 604.097656 393.285156 L 604.136719 392.929688 L 604.136719 392.546875 L 604.175781 392.171875 L 604.214844 391.820312 L 604.214844 391.472656 L 604.257812 391.078125 L 604.296875 390.703125 L 604.296875 390.351562 L 604.335938 390.007812 L 604.335938 389.613281 L 604.375 389.234375 L 604.375 388.886719 L 604.417969 388.546875 Z M 369.589844 490.542969 L 369.589844 384.890625 L 241.453125 384.890625 C 242.492188 425.972656 249.882812 464.328125 262.0625 497.195312 C 294.335938 493.136719 330.847656 490.75 369.589844 490.542969 Z M 508.832031 384.890625 L 389.5625 384.890625 L 389.5625 490.625 C 425.03125 491.125 458.425781 493.449219 488.222656 497.195312 C 500.40625 464.324219 507.792969 425.96875 508.832031 384.890625 Z M 488.183594 252.5 C 458.425781 256.242188 424.992188 258.570312 389.5625 259.0625 L 389.5625 364.917969 L 508.832031 364.917969 C 507.792969 323.789062 500.40625 285.398438 488.183594 252.5 Z M 575.335938 262.335938 C 570.742188 254.164062 565.632812 246.304688 560.121094 238.800781 C 545.101562 242.96875 527.683594 246.632812 508.3125 249.664062 C 520.414062 283.707031 527.804688 322.964844 528.804688 364.917969 L 604.617188 364.917969 L 604.574219 364.546875 L 604.574219 364.164062 L 604.535156 363.765625 L 604.535156 363.414062 L 604.496094 363.074219 L 604.496094 362.71875 L 604.457031 362.304688 L 604.457031 361.953125 L 604.417969 361.609375 L 604.417969 361.257812 L 604.375 360.847656 L 604.375 360.488281 L 604.335938 360.148438 L 604.335938 359.796875 L 604.296875 359.394531 L 604.296875 359.03125 L 604.257812 358.6875 L 604.214844 358.335938 L 604.214844 357.941406 L 604.175781 357.574219 L 604.136719 357.230469 L 604.136719 356.875 L 604.058594 356.125 L 604.015625 355.777344 L 604.015625 355.421875 C 603.976562 355.304688 603.976562 355.179688 603.976562 355.058594 L 603.9375 354.675781 L 603.898438 354.328125 L 603.855469 353.96875 C 603.855469 353.847656 603.855469 353.730469 603.855469 353.609375 L 603.816406 353.234375 L 603.777344 352.878906 L 603.738281 352.519531 C 603.738281 352.398438 603.695312 352.277344 603.695312 352.160156 L 603.65625 351.796875 C 600.503906 320.195312 590.914062 290.476562 576.257812 263.953125 L 576.058594 263.621094 L 575.898438 263.332031 L 575.738281 263.0625 L 575.617188 262.796875 L 575.457031 262.542969 Z M 262.101562 252.5 C 249.882812 285.398438 242.492188 323.792969 241.453125 364.917969 L 369.589844 364.917969 L 369.589844 259.152344 C 330.847656 258.945312 294.335938 256.558594 262.101562 252.5 Z M 241.972656 249.664062 C 222.601562 246.632812 205.183594 242.96875 190.164062 238.800781 C 184.652344 246.304688 179.542969 254.164062 174.949219 262.335938 L 174.789062 262.640625 L 174.589844 262.9375 L 174.546875 263.0625 L 174.386719 263.355469 L 174.1875 263.667969 L 174.027344 263.953125 C 159.371094 290.480469 149.785156 320.199219 146.628906 351.796875 L 146.589844 352.160156 C 146.589844 352.277344 146.546875 352.398438 146.546875 352.519531 L 146.46875 353.253906 L 146.429688 353.609375 C 146.429688 353.730469 146.429688 353.847656 146.429688 353.96875 L 146.386719 354.34375 L 146.347656 354.710938 L 146.308594 355.058594 C 146.308594 355.179688 146.308594 355.304688 146.269531 355.421875 L 146.269531 355.804688 L 146.226562 356.171875 L 146.1875 356.519531 L 146.148438 356.875 L 146.148438 357.269531 L 146.109375 357.636719 L 146.070312 357.984375 L 146.070312 358.335938 L 146.027344 358.734375 L 145.988281 359.101562 L 145.988281 359.449219 L 145.949219 359.796875 L 145.949219 360.199219 L 145.910156 360.570312 L 145.910156 360.914062 L 145.867188 361.257812 L 145.828125 361.667969 L 145.828125 362.042969 L 145.789062 362.386719 L 145.789062 362.722656 L 145.75 363.140625 L 145.75 363.859375 L 145.710938 364.199219 L 145.710938 364.609375 L 145.667969 364.917969 L 221.480469 364.917969 C 222.480469 322.972656 229.871094 283.722656 241.972656 249.664062 Z M 369.589844 145.425781 C 342.828125 147.339844 318.265625 163.019531 297.972656 187.832031 C 287.386719 200.742188 278 216.089844 270.050781 233.375 C 300.128906 236.921875 333.882812 238.984375 369.589844 239.179688 Z M 389.5625 146.574219 L 389.5625 239.09375 C 421.996094 238.632812 452.632812 236.628906 480.234375 233.375 C 472.285156 216.089844 462.898438 200.742188 452.3125 187.832031 C 434.296875 165.792969 412.890625 150.953125 389.5625 146.574219 Z M 298.050781 158.507812 C 261.585938 171.519531 229.351562 193.503906 203.988281 221.796875 C 217.527344 225.175781 232.785156 228.148438 249.441406 230.636719 C 258.667969 209.394531 269.851562 190.664062 282.515625 175.1875 C 287.46875 169.125 292.660156 163.550781 298.050781 158.507812 Z M 452.234375 158.507812 C 457.625 163.550781 462.816406 169.125 467.769531 175.1875 C 480.433594 190.664062 491.617188 209.394531 500.84375 230.636719 C 517.5 228.148438 532.757812 225.175781 546.300781 221.796875 C 520.976562 193.503906 488.703125 171.519531 452.234375 158.507812 Z M 452.234375 158.507812 " fill-opacity="1" fill-rule="evenodd"/></g></svg>