<svg xmlns="http://www.w3.org/2000/svg" xmlns:xlink="http://www.w3.org/1999/xlink" width="1000" zoomAndPan="magnify" viewBox="0 0 750 749.999995" height="1000" preserveAspectRatio="xMidYMid meet" version="1.0"><defs><clipPath id="0a8849b240"><path d="M 140.179688 159.167969 L 601 159.167969 L 601 585.917969 L 140.179688 585.917969 Z M 140.179688 159.167969 " clip-rule="nonzero"/></clipPath><clipPath id="edf6122cb4"><path d="M 522 436 L 617.179688 436 L 617.179688 585 L 522 585 Z M 522 436 " clip-rule="nonzero"/></clipPath></defs><g clip-path="url(#0a8849b240)"><path fill="#ffffff" d="M 353.40625 554.410156 C 253.210938 554.410156 171.753906 472.878906 171.753906 372.757812 C 171.753906 272.632812 253.285156 191.03125 353.40625 191.03125 C 438.945312 191.03125 510.847656 250.390625 530.027344 330.097656 L 512.015625 330.097656 C 503.703125 330.097656 498.523438 339.140625 502.679688 346.285156 L 541.550781 413.59375 C 545.707031 420.8125 556.132812 420.8125 560.289062 413.59375 L 599.160156 346.285156 C 603.316406 339.066406 598.136719 330.097656 589.824219 330.097656 L 562.550781 330.097656 C 559.78125 316.242188 555.550781 302.75 550.007812 289.625 C 539.289062 264.246094 523.902344 241.421875 504.285156 221.804688 C 484.667969 202.1875 461.917969 186.875 436.46875 176.082031 C 410.140625 165.070312 382.210938 159.457031 353.40625 159.457031 C 324.675781 159.457031 296.746094 165.070312 270.421875 176.226562 C 245.042969 186.949219 222.21875 202.335938 202.601562 221.949219 C 182.984375 241.566406 167.671875 264.320312 156.878906 289.769531 C 145.792969 316.023438 140.179688 343.953125 140.179688 372.683594 C 140.179688 401.488281 145.792969 429.417969 156.953125 455.671875 C 167.671875 481.046875 183.058594 503.871094 202.675781 523.488281 C 222.289062 543.105469 245.042969 558.417969 270.492188 569.210938 C 296.820312 580.371094 324.75 585.984375 353.480469 585.984375 C 362.230469 585.984375 369.304688 578.910156 369.304688 570.160156 C 369.230469 561.480469 362.15625 554.410156 353.40625 554.410156 Z M 353.40625 554.410156 " fill-opacity="1" fill-rule="nonzero"/></g><path fill="#ffffff" d="M 340.792969 248.785156 L 340.792969 360.066406 L 275.015625 360.066406 C 268.015625 360.066406 262.398438 365.753906 262.398438 372.683594 C 262.398438 379.683594 268.085938 385.300781 275.015625 385.300781 L 353.40625 385.300781 C 360.40625 385.300781 366.023438 379.609375 366.023438 372.683594 L 366.023438 248.785156 C 366.023438 241.785156 360.335938 236.171875 353.40625 236.171875 C 346.480469 236.171875 340.792969 241.859375 340.792969 248.785156 Z M 340.792969 248.785156 " fill-opacity="1" fill-rule="nonzero"/><path fill="#ffffff" d="M 494.804688 523.050781 L 483.648438 523.050781 L 483.648438 446.410156 C 483.648438 443.636719 482.699219 441.230469 480.804688 439.261719 C 478.910156 437.292969 476.574219 436.34375 473.730469 436.34375 C 472.199219 436.34375 470.667969 436.710938 469.210938 437.367188 C 467.75 438.097656 466.511719 439.042969 465.492188 440.285156 L 398.328125 524.730469 C 396.796875 526.699219 395.996094 528.957031 395.996094 531.4375 C 395.996094 534.136719 397.015625 536.398438 399.058594 538.367188 C 401.097656 540.335938 403.359375 541.28125 405.910156 541.28125 L 463.59375 541.28125 L 463.59375 573.515625 C 463.59375 576.359375 464.542969 578.691406 466.4375 580.660156 C 468.335938 582.628906 470.667969 583.578125 473.511719 583.578125 C 476.28125 583.578125 478.691406 582.628906 480.660156 580.660156 C 482.628906 578.691406 483.574219 576.285156 483.574219 573.515625 L 483.574219 541.28125 L 494.734375 541.28125 C 497.429688 541.28125 499.617188 540.40625 501.441406 538.730469 C 503.265625 537.054688 504.210938 534.863281 504.210938 532.167969 C 504.210938 529.46875 503.265625 527.28125 501.441406 525.53125 C 499.691406 523.925781 497.429688 523.050781 494.804688 523.050781 Z M 463.59375 523.050781 L 422.539062 523.050781 L 463.59375 470.402344 Z M 463.59375 523.050781 " fill-opacity="1" fill-rule="nonzero"/><g clip-path="url(#edf6122cb4)"><path fill="#ffffff" d="M 611.335938 522.175781 C 607.328125 516.125 602.003906 511.238281 595.222656 507.445312 C 600.398438 504.675781 604.773438 500.738281 608.273438 495.777344 C 611.773438 490.820312 613.523438 484.695312 613.523438 477.546875 C 613.523438 469.964844 611.628906 463.035156 607.765625 456.691406 C 603.898438 450.347656 598.574219 445.386719 591.867188 441.742188 C 585.15625 438.097656 577.792969 436.273438 569.769531 436.273438 C 561.601562 436.273438 554.238281 438.097656 547.527344 441.742188 C 540.894531 445.386719 535.570312 450.347656 531.632812 456.691406 C 527.695312 463.035156 525.726562 469.964844 525.726562 477.546875 C 525.726562 484.402344 527.402344 490.453125 530.757812 495.558594 C 534.113281 500.664062 538.414062 504.746094 543.589844 507.664062 C 537.246094 511.3125 532.140625 515.976562 528.132812 521.667969 C 524.121094 527.355469 522.152344 533.988281 522.152344 541.574219 C 522.152344 549.304688 524.265625 556.449219 528.496094 562.941406 C 532.726562 569.503906 538.488281 574.679688 545.777344 578.546875 C 553.070312 582.410156 561.09375 584.308594 569.769531 584.308594 C 578.449219 584.308594 586.46875 582.410156 593.761719 578.546875 C 601.054688 574.679688 606.816406 569.503906 611.046875 562.941406 C 615.273438 556.378906 617.390625 549.304688 617.390625 541.574219 C 617.316406 534.644531 615.273438 528.230469 611.335938 522.175781 Z M 552.488281 461.359375 C 557.007812 456.984375 562.699219 454.796875 569.769531 454.796875 C 576.625 454.796875 582.3125 456.984375 586.835938 461.359375 C 591.355469 465.734375 593.542969 471.277344 593.542969 477.984375 C 593.542969 484.621094 591.210938 490.089844 586.617188 494.539062 C 581.949219 498.988281 576.335938 501.175781 569.769531 501.175781 C 563.0625 501.175781 557.375 498.988281 552.707031 494.539062 C 548.039062 490.089844 545.777344 484.621094 545.777344 477.984375 C 545.707031 471.203125 547.96875 465.660156 552.488281 461.359375 Z M 589.386719 558.855469 C 584.136719 563.523438 577.574219 565.785156 569.699219 565.785156 C 561.820312 565.785156 555.332031 563.453125 550.082031 558.855469 C 544.902344 554.191406 542.277344 548.429688 542.277344 541.355469 C 542.277344 534.355469 544.976562 528.449219 550.300781 523.636719 C 555.625 518.894531 562.113281 516.488281 569.699219 516.488281 C 577.28125 516.488281 583.773438 518.894531 589.167969 523.636719 C 594.566406 528.375 597.261719 534.28125 597.261719 541.355469 C 597.335938 548.355469 594.636719 554.191406 589.386719 558.855469 Z M 589.386719 558.855469 " fill-opacity="1" fill-rule="nonzero"/></g></svg>