<svg xmlns="http://www.w3.org/2000/svg" xmlns:xlink="http://www.w3.org/1999/xlink" width="1000" zoomAndPan="magnify" viewBox="0 0 750 749.999995" height="1000" preserveAspectRatio="xMidYMid meet" version="1.0"><defs><clipPath id="2a012d02ae"><path d="M 169 139.136719 L 642 139.136719 L 642 610.886719 L 169 610.886719 Z M 169 139.136719 " clip-rule="nonzero"/></clipPath></defs><g clip-path="url(#2a012d02ae)"><path fill="#ffffff" d="M 631.144531 205.707031 L 624.699219 200.699219 C 612.53125 190.675781 593.921875 192.824219 583.898438 204.992188 L 520.191406 284.445312 L 520.191406 230.761719 C 520.191406 216.445312 508.742188 204.992188 494.425781 204.992188 L 438.589844 204.992188 L 438.589844 188.527344 C 438.589844 184.234375 435.726562 181.371094 431.433594 181.371094 L 407.097656 181.371094 L 407.097656 175.644531 C 407.097656 155.601562 390.632812 139.136719 370.589844 139.136719 L 319.050781 139.136719 C 299.011719 139.136719 282.546875 155.601562 282.546875 175.644531 L 282.546875 180.65625 L 258.210938 180.65625 C 253.914062 180.65625 251.050781 183.519531 251.050781 187.8125 L 251.050781 204.992188 L 195.21875 204.992188 C 180.902344 204.992188 169.449219 216.445312 169.449219 230.761719 L 169.449219 585.085938 C 169.449219 599.402344 180.902344 610.851562 195.21875 610.851562 L 494.425781 610.851562 C 508.742188 610.851562 520.191406 599.402344 520.191406 585.085938 L 520.191406 537.125 L 538.804688 518.515625 C 541.667969 515.652344 541.667969 511.355469 538.804688 508.492188 L 524.488281 492.746094 C 531.644531 481.292969 536.65625 469.125 539.519531 456.238281 L 560.992188 454.808594 C 564.574219 454.808594 567.4375 451.230469 567.4375 447.648438 L 567.4375 417.585938 C 567.4375 414.007812 564.574219 410.429688 560.992188 410.429688 L 539.519531 408.996094 C 536.65625 397.542969 532.363281 387.523438 528.066406 379.648438 L 635.4375 245.078125 C 645.457031 234.339844 643.3125 215.730469 631.144531 205.707031 Z M 503.015625 388.953125 L 473.667969 365.332031 L 571.730469 242.929688 L 601.078125 266.550781 Z M 483.6875 434.050781 C 483.6875 462.683594 460.066406 486.304688 431.433594 486.304688 C 402.800781 486.304688 379.179688 462.683594 379.179688 434.050781 C 379.179688 405.417969 402.800781 381.796875 431.433594 381.796875 C 437.160156 381.796875 442.171875 382.511719 447.898438 384.660156 L 413.539062 460.535156 C 412.105469 463.398438 412.824219 466.976562 415.6875 469.125 C 418.550781 471.273438 422.128906 471.273438 424.277344 469.125 L 482.972656 424.746094 C 483.6875 427.609375 483.6875 430.472656 483.6875 434.050781 Z M 437.875 439.777344 L 463.644531 383.226562 L 465.792969 378.21875 L 492.277344 398.976562 Z M 296.148438 175.644531 C 296.148438 163.476562 306.167969 153.453125 318.335938 153.453125 L 369.875 153.453125 C 382.042969 153.453125 392.0625 163.476562 392.0625 175.644531 L 392.0625 180.65625 L 296.148438 180.65625 Z M 288.988281 195.6875 L 424.277344 195.6875 C 424.277344 210.71875 424.277344 220.023438 424.277344 234.339844 L 265.367188 234.339844 C 265.367188 220.023438 265.367188 210.71875 265.367188 195.6875 Z M 494.425781 597.253906 L 195.21875 597.253906 C 188.777344 597.253906 183.765625 592.242188 183.765625 585.800781 L 183.765625 231.476562 C 183.765625 225.035156 188.777344 220.023438 195.21875 220.023438 L 251.050781 220.023438 L 251.050781 240.78125 C 251.050781 245.078125 253.914062 247.941406 258.210938 247.941406 L 431.433594 247.941406 C 435.726562 247.941406 438.589844 245.078125 438.589844 240.78125 L 438.589844 220.023438 L 494.425781 220.023438 C 500.867188 220.023438 505.878906 225.035156 505.878906 231.476562 L 505.878906 303.058594 L 480.109375 335.269531 C 472.234375 331.691406 463.644531 328.109375 455.054688 326.679688 L 453.625 305.207031 C 453.625 301.625 450.042969 298.761719 446.464844 298.761719 L 416.402344 298.761719 C 412.824219 298.761719 409.242188 301.625 409.242188 305.207031 L 407.8125 326.679688 C 394.925781 329.542969 382.757812 334.554688 371.304688 341.710938 L 354.84375 327.394531 C 351.980469 325.246094 347.683594 325.246094 344.820312 327.394531 L 323.347656 348.871094 C 320.484375 351.730469 320.484375 356.027344 323.347656 358.890625 L 337.664062 374.636719 C 330.503906 385.375 325.496094 398.257812 322.632812 411.144531 L 301.15625 412.574219 C 297.578125 412.574219 294.714844 416.15625 294.714844 419.734375 L 294.714844 449.796875 C 294.714844 453.375 297.578125 456.957031 301.15625 456.957031 L 322.632812 458.386719 C 325.496094 471.273438 330.503906 483.441406 337.664062 494.894531 L 323.347656 510.640625 C 320.484375 513.503906 321.199219 517.800781 323.347656 520.664062 L 344.820312 541.421875 C 347.683594 544.285156 351.980469 544.285156 354.84375 541.421875 L 371.304688 527.105469 C 382.757812 534.261719 394.925781 539.273438 407.8125 542.136719 L 409.242188 563.609375 C 409.242188 567.1875 412.824219 570.050781 416.402344 570.050781 L 446.464844 570.050781 C 450.042969 570.050781 453.625 567.1875 453.625 563.609375 L 455.054688 542.136719 C 467.941406 539.273438 480.824219 534.261719 491.5625 527.105469 L 505.878906 539.988281 L 505.878906 586.515625 C 505.878906 592.242188 500.152344 597.253906 494.425781 597.253906 Z M 526.636719 418.300781 C 527.351562 421.882812 530.214844 424.027344 533.078125 424.027344 L 553.121094 425.460938 L 553.121094 441.921875 L 533.078125 443.355469 C 529.5 443.355469 527.351562 446.21875 526.636719 449.082031 C 524.488281 464.113281 518.761719 477.714844 509.457031 489.882812 C 507.308594 492.746094 507.308594 496.324219 510.171875 499.1875 L 523.773438 514.21875 L 511.605469 525.671875 L 496.570312 512.074219 C 494.425781 509.925781 490.128906 509.925781 487.980469 511.355469 C 475.8125 519.945312 462.214844 525.671875 447.179688 527.820312 C 443.601562 528.535156 441.453125 531.398438 441.453125 534.261719 L 440.023438 554.304688 L 423.558594 554.304688 L 422.128906 534.261719 C 422.128906 530.683594 419.265625 527.820312 416.402344 527.820312 C 401.371094 525.671875 387.769531 519.945312 375.601562 511.355469 C 372.738281 509.210938 369.160156 509.925781 367.011719 512.074219 L 350.546875 525.671875 L 339.09375 514.21875 L 352.695312 499.1875 C 354.84375 496.324219 354.84375 492.746094 353.410156 490.597656 C 344.820312 478.429688 339.09375 464.828125 336.230469 449.796875 C 335.515625 446.21875 332.652344 444.070312 329.789062 444.070312 L 309.746094 442.640625 L 309.746094 425.460938 L 329.789062 424.027344 C 333.367188 424.027344 335.515625 421.164062 336.230469 418.300781 C 338.378906 403.269531 344.820312 389.671875 353.410156 377.5 C 355.558594 374.636719 355.558594 371.058594 352.695312 368.195312 L 339.09375 353.878906 L 350.546875 342.425781 L 365.578125 356.027344 C 368.441406 358.175781 372.023438 358.175781 374.167969 356.742188 C 386.339844 348.152344 399.9375 342.425781 414.96875 340.28125 C 418.550781 339.5625 420.695312 336.699219 420.695312 333.835938 L 422.128906 313.792969 L 438.589844 313.792969 L 440.023438 333.835938 C 440.023438 337.417969 442.886719 340.28125 445.75 340.28125 C 454.339844 341.710938 462.214844 343.859375 469.371094 347.4375 L 456.488281 363.902344 C 456.488281 363.902344 455.769531 365.332031 455.769531 365.332031 L 452.90625 372.492188 C 445.75 370.34375 438.589844 368.910156 430.71875 368.910156 C 394.210938 368.910156 364.148438 398.976562 364.148438 435.480469 C 364.148438 471.988281 394.210938 502.050781 430.71875 502.050781 C 467.222656 502.050781 497.289062 471.988281 497.289062 435.480469 C 497.289062 429.039062 496.570312 422.597656 494.425781 416.15625 L 507.308594 406.132812 C 507.308594 406.132812 508.023438 405.417969 508.023438 405.417969 C 508.023438 405.417969 508.742188 405.417969 508.742188 404.703125 L 517.328125 393.964844 C 521.625 400.40625 525.203125 408.996094 526.636719 418.300781 Z M 623.984375 237.917969 L 609.667969 255.816406 L 580.320312 232.191406 L 594.636719 214.296875 C 599.648438 207.855469 609.667969 207.140625 615.394531 212.152344 L 621.835938 217.160156 C 628.28125 222.171875 629.710938 231.476562 623.984375 237.917969 Z M 623.984375 237.917969 " fill-opacity="1" fill-rule="nonzero"/></g><path fill="#ffffff" d="M 236.019531 350.300781 C 237.449219 351.730469 238.882812 353.164062 241.03125 353.164062 C 241.746094 353.164062 241.746094 353.164062 242.460938 353.164062 C 243.894531 353.164062 246.039062 352.449219 246.757812 351.730469 L 312.609375 298.046875 C 315.472656 295.898438 316.1875 290.890625 313.324219 288.027344 C 311.179688 285.164062 306.167969 284.445312 303.304688 287.308594 L 243.175781 335.984375 L 226.714844 310.214844 C 224.566406 306.636719 220.269531 305.921875 216.691406 308.066406 C 213.113281 310.214844 212.398438 314.511719 214.546875 318.089844 Z M 236.019531 350.300781 " fill-opacity="1" fill-rule="nonzero"/><path fill="#ffffff" d="M 281.832031 376.070312 L 205.238281 376.070312 C 200.945312 376.070312 198.082031 378.933594 198.082031 383.226562 C 198.082031 387.523438 200.945312 390.386719 205.238281 390.386719 L 281.832031 390.386719 C 286.125 390.386719 288.988281 387.523438 288.988281 383.226562 C 288.988281 378.933594 285.410156 376.070312 281.832031 376.070312 Z M 281.832031 376.070312 " fill-opacity="1" fill-rule="nonzero"/><path fill="#ffffff" d="M 205.238281 435.480469 L 269.660156 435.480469 C 273.957031 435.480469 276.820312 432.617188 276.820312 428.324219 C 276.820312 424.027344 273.957031 421.164062 269.660156 421.164062 L 205.238281 421.164062 C 200.945312 421.164062 198.082031 424.027344 198.082031 428.324219 C 198.082031 432.617188 200.945312 435.480469 205.238281 435.480469 Z M 205.238281 435.480469 " fill-opacity="1" fill-rule="nonzero"/><path fill="#ffffff" d="M 281.832031 466.261719 L 205.238281 466.261719 C 200.945312 466.261719 198.082031 469.125 198.082031 473.417969 C 198.082031 477.714844 200.945312 480.578125 205.238281 480.578125 L 281.832031 480.578125 C 286.125 480.578125 288.988281 477.714844 288.988281 473.417969 C 288.988281 469.125 285.410156 466.261719 281.832031 466.261719 Z M 281.832031 466.261719 " fill-opacity="1" fill-rule="nonzero"/><path fill="#ffffff" d="M 281.832031 511.355469 L 205.238281 511.355469 C 200.945312 511.355469 198.082031 514.21875 198.082031 518.515625 C 198.082031 522.808594 200.945312 525.671875 205.238281 525.671875 L 281.832031 525.671875 C 286.125 525.671875 288.988281 522.808594 288.988281 518.515625 C 288.988281 514.21875 285.410156 511.355469 281.832031 511.355469 Z M 281.832031 511.355469 " fill-opacity="1" fill-rule="nonzero"/><path fill="#ffffff" d="M 281.832031 556.453125 L 205.238281 556.453125 C 200.945312 556.453125 198.082031 559.316406 198.082031 563.609375 C 198.082031 567.90625 200.945312 570.769531 205.238281 570.769531 L 281.832031 570.769531 C 286.125 570.769531 288.988281 567.90625 288.988281 563.609375 C 288.988281 559.316406 285.410156 556.453125 281.832031 556.453125 Z M 281.832031 556.453125 " fill-opacity="1" fill-rule="nonzero"/></svg>