<svg xmlns="http://www.w3.org/2000/svg" xmlns:xlink="http://www.w3.org/1999/xlink" width="1000" zoomAndPan="magnify" viewBox="0 0 750 749.999995" height="1000" preserveAspectRatio="xMidYMid meet" version="1.0"><defs><clipPath id="9943fda578"><path d="M 156 133.136719 L 600 133.136719 L 600 476 L 156 476 Z M 156 133.136719 " clip-rule="nonzero"/></clipPath><clipPath id="9802bf1f3e"><path d="M 83 457 L 673 457 L 673 604.886719 L 83 604.886719 Z M 83 457 " clip-rule="nonzero"/></clipPath></defs><g clip-path="url(#9943fda578)"><path fill="#ffffff" d="M 583.582031 355.113281 C 582.972656 355.796875 582.28125 356.355469 581.566406 356.929688 C 579.351562 358.703125 578.496094 362.628906 579.367188 365.242188 L 579.382812 365.289062 C 580.117188 362.515625 580.847656 359.746094 581.582031 356.972656 C 577.324219 360.398438 573.066406 363.832031 568.808594 367.257812 C 562.402344 372.414062 555.3125 377.578125 558.027344 387.261719 C 559.570312 392.773438 564.722656 397.894531 568.003906 402.390625 C 569.894531 404.976562 571.789062 407.5625 573.675781 410.15625 C 574.179688 410.847656 574.648438 411.605469 575.214844 412.257812 C 575.40625 412.488281 575.636719 412.882812 575.761719 413.070312 C 574.394531 411.09375 575.742188 413.402344 576.3125 414.597656 L 575.148438 410.289062 C 575.183594 411.554688 575.453125 412.792969 575.703125 414.027344 L 575.703125 409.488281 C 575.503906 410.503906 575.289062 411.554688 575.234375 412.585938 C 575.457031 407.933594 575.636719 410.957031 575.339844 411.375 C 575.726562 410.832031 577.597656 409.078125 577.367188 408.960938 C 577.265625 408.90625 575.546875 410.328125 575.445312 410.429688 C 575.496094 410.378906 577.355469 409.191406 576.871094 409.300781 C 576.542969 409.375 576.285156 409.777344 575.964844 409.917969 C 574.433594 410.601562 572.894531 411.261719 571.355469 411.9375 C 565.820312 414.363281 560.277344 416.792969 554.742188 419.214844 C 547.371094 422.445312 542.398438 429.3125 545.015625 437.726562 C 546.34375 442.011719 548.304688 446.195312 549.933594 450.378906 C 551.113281 453.410156 552.289062 456.449219 553.46875 459.480469 C 553.789062 460.316406 554.140625 461.140625 554.445312 461.980469 C 554.488281 462.105469 554.546875 462.230469 554.59375 462.367188 C 554.132812 461.003906 554.859375 464.195312 554.941406 464.683594 L 554.941406 460.144531 C 554.6875 461.347656 554.578125 462.558594 554.519531 463.785156 L 555.683594 459.476562 C 555.261719 460.375 554.917969 461.28125 554.503906 462.195312 C 554.4375 462.34375 555.675781 459.726562 555.105469 460.699219 C 554.757812 461.296875 554.199219 462.476562 555.773438 460.054688 C 555.292969 460.789062 554.578125 461.445312 554.066406 462.195312 L 561.445312 457.960938 L 331.375 457.960938 C 300.871094 457.960938 270.359375 457.960938 239.855469 457.960938 L 209.597656 457.960938 C 204.886719 457.960938 200.019531 457.609375 195.316406 457.960938 C 195.105469 457.972656 194.882812 457.960938 194.675781 457.960938 L 202.054688 462.195312 C 201.558594 461.460938 200.800781 460.796875 200.347656 460.054688 C 200.515625 460.328125 201.855469 462.105469 201.023438 460.699219 C 200.671875 460.113281 200.109375 459.042969 201.625 462.195312 C 201.191406 461.304688 200.867188 460.367188 200.441406 459.476562 L 201.609375 463.785156 C 201.542969 462.566406 201.429688 461.339844 201.179688 460.144531 L 201.179688 464.683594 C 201.355469 463.761719 201.273438 462.675781 201.503906 461.792969 C 201.222656 462.878906 201.519531 462.402344 201.585938 462.203125 C 201.800781 461.570312 202.070312 460.953125 202.316406 460.335938 L 205.265625 452.75 C 207.160156 447.882812 209.285156 443.039062 210.964844 438.089844 C 213.507812 430.589844 209.804688 422.972656 202.746094 419.800781 C 197.457031 417.429688 192.128906 415.148438 186.8125 412.824219 C 184.695312 411.894531 182.4375 411.105469 180.402344 410.015625 C 178.863281 409.191406 179.191406 408.96875 180.675781 410.421875 C 180.570312 410.320312 178.855469 408.894531 178.75 408.953125 C 178.617188 409.019531 181.332031 412.421875 180.652344 410.683594 C 180.78125 411.011719 181.179688 414.382812 180.734375 411.441406 C 180.632812 410.765625 180.550781 410.140625 180.417969 409.480469 L 180.417969 414.019531 C 180.667969 412.785156 180.90625 411.539062 180.980469 410.28125 L 179.8125 414.59375 C 180.378906 413.269531 181.695312 411.128906 180.355469 413.0625 C 180.484375 412.875 180.714844 412.472656 180.90625 412.25 C 181.367188 411.714844 181.753906 411.09375 182.167969 410.519531 C 184.003906 408.007812 185.839844 405.488281 187.683594 402.976562 C 190.632812 398.941406 194.035156 395.003906 196.59375 390.703125 C 200.070312 384.847656 198.875 377.148438 193.886719 372.554688 C 192.378906 371.160156 190.640625 369.941406 189.042969 368.652344 C 184.84375 365.273438 180.640625 361.890625 176.441406 358.511719 C 177.175781 361.28125 177.90625 364.054688 178.640625 366.824219 L 178.65625 366.765625 C 179.339844 364.046875 178.804688 360.332031 176.457031 358.453125 C 175.5625 357.738281 174.628906 356.710938 173.625 356.183594 C 172.792969 355.746094 173.378906 355.457031 173.347656 356.035156 C 173.402344 355.054688 173.996094 358.816406 173.496094 358.792969 C 174.261719 358.832031 176.433594 356.429688 177.019531 355.953125 C 181.960938 351.980469 186.894531 347.996094 191.835938 344.019531 C 197.996094 339.058594 200.933594 331.007812 196.289062 323.71875 C 193.5625 319.4375 190.246094 315.441406 187.253906 311.339844 C 185.433594 308.851562 183.617188 306.359375 181.796875 303.871094 C 181.457031 303.402344 181.128906 302.921875 180.765625 302.460938 C 180.402344 302 179.703125 301.472656 180.691406 302.472656 C 180.125 301.902344 181.261719 303.679688 180.980469 303.113281 C 180.542969 302.238281 180.1875 301.21875 179.761719 300.296875 L 180.929688 304.605469 C 180.875 303.425781 180.808594 302.214844 180.542969 301.0625 L 180.542969 305.601562 C 181.144531 302.980469 180.417969 301.976562 180.632812 304.273438 C 180.59375 303.871094 181.253906 300.511719 181.253906 301.078125 L 172.710938 309.621094 C 176.65625 309.621094 179.726562 306.933594 180.949219 303.351562 L 181.261719 302.4375 L 179.0625 306.203125 C 179.351562 305.886719 179.644531 305.566406 179.925781 305.238281 C 183.179688 301.464844 180.601562 304.578125 179.992188 305.15625 C 180.640625 304.539062 179.875 305.058594 179.886719 305.097656 C 180.007812 305.34375 179.117188 305.402344 180.132812 305.066406 C 180.363281 304.992188 180.578125 304.867188 180.796875 304.777344 C 182.808594 303.9375 184.800781 303.015625 186.800781 302.132812 C 192.113281 299.792969 197.449219 297.488281 202.738281 295.109375 C 209.796875 291.945312 213.492188 284.289062 210.957031 276.816406 C 209.324219 271.976562 207.234375 267.25 205.390625 262.488281 L 202.167969 254.1875 C 201.957031 253.644531 201.75 253.101562 201.535156 252.566406 C 201.484375 252.433594 201.453125 251.632812 201.335938 251.59375 C 201.378906 251.609375 201.875 255.378906 201.421875 252.183594 C 201.328125 251.511719 201.238281 250.875 201.117188 250.210938 L 201.117188 254.753906 C 201.378906 253.578125 201.632812 252.390625 201.683594 251.1875 L 200.515625 255.496094 C 200.804688 254.828125 201.023438 253.355469 201.46875 253.140625 C 201.832031 252.96875 200.457031 255.199219 201.265625 253.78125 C 201.875 252.71875 200.128906 255.175781 200.195312 255.117188 C 200.878906 254.417969 201.460938 253.488281 202.03125 252.65625 L 198.964844 255.726562 C 199.945312 255.078125 200.957031 254.417969 201.816406 253.617188 L 198.050781 255.816406 C 200.851562 254.9375 199.566406 255.042969 202.171875 254.648438 L 209.855469 253.496094 C 215.035156 252.722656 220.246094 252.0625 225.402344 251.164062 C 232.914062 249.855469 237.925781 242.820312 237.21875 235.335938 C 236.707031 229.925781 236 224.53125 235.390625 219.136719 C 235.09375 216.484375 234.730469 213.824219 234.492188 211.164062 C 234.453125 210.761719 234.402344 210.351562 234.355469 209.953125 C 234.15625 208.289062 234.34375 209.351562 234.148438 210.6875 C 234.296875 209.65625 234.46875 208.621094 234.558594 207.582031 L 233.390625 211.890625 C 233.941406 210.8125 234.453125 209.699219 234.839844 208.546875 L 232.640625 212.316406 C 233.183594 211.675781 233.710938 211.050781 234.1875 210.339844 C 234.847656 209.351562 232.574219 212.179688 233.703125 211.058594 C 234.617188 210.144531 231.84375 212.398438 232.757812 211.714844 C 233.457031 211.191406 234.15625 210.664062 234.816406 210.09375 L 231.050781 212.292969 C 232.203125 211.914062 233.316406 211.421875 234.394531 210.867188 L 230.085938 212.03125 C 231.074219 211.945312 232.0625 211.800781 233.035156 211.644531 C 232.757812 211.691406 230.6875 211.578125 232.203125 211.847656 C 232.601562 211.914062 233.09375 211.921875 233.496094 211.949219 C 236.023438 212.167969 238.539062 212.539062 241.058594 212.828125 C 246.640625 213.472656 252.332031 214.542969 257.949219 214.78125 C 265.003906 215.078125 271.542969 210.5 273.085938 203.464844 C 274.148438 198.605469 274.550781 193.5 275.277344 188.589844 C 275.746094 185.40625 276.214844 182.234375 276.683594 179.054688 C 276.765625 178.476562 276.871094 177.902344 276.9375 177.324219 C 276.945312 177.261719 276.988281 177.203125 276.996094 177.144531 C 277.105469 176.117188 276.734375 176.355469 276.890625 177.078125 C 276.964844 177.425781 276.347656 178.191406 276.675781 177.671875 C 277.105469 176.988281 277.433594 175.925781 277.738281 175.070312 L 275.539062 178.839844 C 276.328125 177.960938 277.078125 177.039062 277.710938 176.042969 L 274.640625 179.113281 C 275.359375 178.617188 275.992188 178.140625 276.707031 177.546875 C 277.628906 176.78125 274.675781 178.941406 276.023438 178.15625 C 277.113281 177.507812 273.800781 178.988281 274.863281 178.585938 C 275.710938 178.265625 276.550781 177.894531 277.375 177.5 L 273.066406 178.667969 C 274.277344 178.601562 275.496094 178.453125 276.683594 178.183594 L 272.144531 178.183594 C 273.035156 178.339844 274.023438 178.304688 274.878906 178.570312 C 275.515625 178.773438 274.453125 178.59375 274.46875 178.59375 C 274.960938 178.777344 275.449219 178.988281 275.941406 179.179688 L 282.882812 181.953125 C 287.890625 183.953125 292.875 186.054688 297.921875 187.957031 C 305.054688 190.644531 313.109375 187.464844 316.296875 180.488281 C 318.476562 175.734375 320.429688 170.859375 322.496094 166.050781 C 323.59375 163.488281 324.695312 160.921875 325.792969 158.359375 C 325.996094 157.882812 326.195312 157.414062 326.402344 156.941406 C 326.457031 156.820312 327.066406 156.109375 327 156.011719 C 327 156.011719 324.820312 158.929688 326.664062 156.441406 C 327.035156 155.9375 327.40625 155.476562 327.757812 154.964844 L 324.6875 158.03125 C 325.691406 157.386719 326.664062 156.6875 327.554688 155.882812 L 323.789062 158.085938 C 324.589844 157.792969 325.289062 157.503906 326.121094 157.117188 C 327.289062 156.582031 323.808594 157.957031 325.371094 157.511719 C 326.613281 157.164062 322.898438 157.726562 324.0625 157.636719 C 324.96875 157.570312 325.898438 157.414062 326.796875 157.246094 L 322.257812 157.246094 C 323.460938 157.511719 324.6875 157.660156 325.921875 157.71875 L 321.609375 156.554688 C 322.429688 156.933594 323.585938 157.148438 324.269531 157.683594 C 324.191406 157.625 322.042969 156.324219 323.378906 157.394531 C 323.617188 157.585938 323.980469 157.757812 324.234375 157.9375 C 326.113281 159.222656 327.898438 160.671875 329.71875 162.039062 C 334.421875 165.550781 339.082031 169.148438 343.835938 172.589844 C 349.824219 176.929688 358.140625 176.429688 363.203125 170.8125 C 366.582031 167.0625 369.511719 162.78125 372.632812 158.8125 L 378.457031 151.394531 C 378.777344 150.988281 379.089844 150.578125 379.417969 150.175781 C 379.652344 149.886719 380.1875 149.695312 380.359375 149.359375 C 380.472656 149.144531 378.902344 150.476562 378.882812 150.488281 C 379.707031 149.859375 380.441406 149.292969 381.207031 148.640625 L 377.4375 150.839844 C 378.613281 150.460938 379.773438 150.023438 380.878906 149.464844 L 376.570312 150.632812 C 377.433594 150.5625 378.199219 150.453125 379.125 150.304688 C 380.292969 150.117188 376.503906 150.511719 378.078125 150.511719 C 379.503906 150.511719 375.796875 150.101562 377.03125 150.304688 C 377.871094 150.445312 378.734375 150.5625 379.578125 150.632812 L 375.269531 149.464844 C 376.382812 150.023438 377.527344 150.460938 378.710938 150.839844 L 374.941406 148.640625 C 375.144531 148.808594 375.34375 148.980469 375.539062 149.152344 C 376.003906 149.5625 377.847656 151.773438 376.503906 149.894531 C 375.53125 148.535156 376.058594 149.433594 376.503906 149.96875 C 376.753906 150.265625 377.03125 150.578125 377.289062 150.875 C 378.867188 152.703125 380.285156 154.695312 381.777344 156.589844 C 385.332031 161.117188 388.785156 165.746094 392.449219 170.1875 C 397.117188 175.84375 405.335938 177.277344 411.523438 173.183594 C 415.902344 170.285156 420.003906 166.84375 424.203125 163.703125 C 426.617188 161.894531 428.988281 160.03125 431.449219 158.285156 C 431.796875 158.03125 432.167969 157.78125 432.503906 157.519531 C 432.976562 157.148438 434.269531 156.976562 432.589844 157.363281 C 430.398438 157.867188 433.527344 157.023438 434.539062 156.5625 L 430.230469 157.726562 C 431.453125 157.667969 432.6875 157.511719 433.890625 157.25 L 429.351562 157.25 C 430.257812 157.429688 431.097656 157.578125 432.078125 157.644531 C 433.164062 157.726562 429.457031 157.148438 430.769531 157.519531 C 432.183594 157.921875 428.855469 156.574219 430.019531 157.125 C 430.769531 157.480469 431.566406 157.808594 432.355469 158.089844 L 428.585938 155.890625 C 429.472656 156.695312 430.453125 157.394531 431.453125 158.039062 L 428.386719 154.96875 C 428.941406 155.78125 429.546875 156.546875 430.148438 157.320312 C 429.707031 156.761719 429.003906 155.347656 429.515625 156.613281 C 429.664062 156.976562 429.917969 157.402344 430.085938 157.765625 C 431.046875 159.742188 431.828125 161.816406 432.695312 163.835938 C 434.925781 169.03125 437.15625 174.214844 439.382812 179.410156 C 442.445312 186.539062 449.824219 190.757812 457.523438 188.253906 C 462.054688 186.773438 466.476562 184.679688 470.90625 182.910156 C 473.746094 181.773438 476.589844 180.644531 479.429688 179.507812 C 480.113281 179.234375 480.789062 178.957031 481.480469 178.691406 C 482.042969 178.46875 481.109375 178.535156 481.003906 178.570312 C 481.875 178.265625 483.054688 178.371094 484.007812 178.199219 L 479.464844 178.199219 C 480.65625 178.46875 481.867188 178.625 483.085938 178.683594 L 478.773438 177.515625 C 479.605469 177.910156 480.410156 178.25 481.292969 178.601562 C 482.28125 178.996094 478.945312 177.480469 480.128906 178.171875 C 481.308594 178.859375 478.492188 176.765625 479.445312 177.5625 C 480.105469 178.109375 480.804688 178.636719 481.507812 179.128906 L 478.441406 176.058594 C 479.070312 177.054688 479.824219 177.976562 480.609375 178.855469 L 478.410156 175.085938 C 478.730469 175.96875 479.355469 176.882812 479.53125 177.777344 C 479.472656 177.492188 478.960938 175.367188 479.152344 177.160156 C 479.199219 177.554688 479.300781 177.984375 479.371094 178.378906 C 479.785156 180.835938 480.097656 183.320312 480.460938 185.785156 C 481.300781 191.480469 481.984375 197.214844 482.980469 202.886719 C 484.242188 210.042969 490.632812 214.945312 497.789062 214.855469 C 502.554688 214.796875 507.503906 213.734375 512.230469 213.183594 L 521.949219 212.0625 C 522.542969 211.996094 523.136719 211.945312 523.722656 211.855469 C 524.691406 211.714844 524.644531 212.464844 523.84375 211.765625 C 523.488281 211.453125 522.707031 211.566406 523.203125 211.699219 C 524.058594 211.921875 525.128906 211.972656 526.074219 212.054688 L 521.761719 210.886719 C 522.839844 211.445312 523.953125 211.9375 525.105469 212.316406 L 521.339844 210.117188 C 522.007812 210.695312 522.640625 211.179688 523.398438 211.734375 C 524.265625 212.375 521.464844 210.085938 522.460938 211.082031 C 523.457031 212.078125 521.289062 209.320312 521.972656 210.359375 C 522.425781 211.042969 522.980469 211.707031 523.515625 212.335938 L 521.316406 208.570312 C 521.703125 209.722656 522.214844 210.828125 522.765625 211.914062 L 521.597656 207.605469 C 521.652344 208.175781 521.800781 210.570312 521.972656 210.589844 C 521.71875 210.5625 522.066406 208.085938 521.753906 209.410156 C 521.6875 209.691406 521.746094 210.292969 521.726562 210.613281 C 521.605469 212.671875 521.257812 214.746094 521.027344 216.796875 L 519.09375 233.894531 C 518.21875 241.636719 521.964844 249.261719 530.121094 251.097656 C 534.566406 252.101562 539.253906 252.464844 543.757812 253.140625 L 553.078125 254.539062 C 553.894531 254.664062 554.726562 254.753906 555.535156 254.910156 C 555.675781 254.9375 555.820312 254.9375 555.953125 254.96875 C 554.808594 254.714844 557.734375 255.726562 558.09375 255.839844 L 554.324219 253.636719 C 555.203125 254.457031 556.191406 255.09375 557.1875 255.75 L 554.117188 252.679688 C 554.488281 253.230469 554.882812 253.742188 555.277344 254.269531 C 557.355469 257.070312 554.226562 252.671875 554.875 253.800781 C 555.574219 255.019531 554.75 253.304688 554.628906 252.949219 C 554.917969 253.808594 555.222656 254.695312 555.632812 255.519531 L 554.464844 251.207031 C 554.527344 252.433594 554.769531 253.59375 555.023438 254.773438 L 555.023438 250.234375 C 554.835938 251.269531 554.734375 252.308594 554.570312 253.339844 C 555.195312 249.417969 554.859375 251.914062 554.644531 252.414062 C 554.488281 252.769531 554.363281 253.191406 554.226562 253.5625 C 553.476562 255.695312 552.585938 257.792969 551.769531 259.894531 C 549.6875 265.238281 547.570312 270.566406 545.535156 275.921875 C 542.808594 283.117188 545.402344 291.210938 552.480469 294.730469 C 557.125 297.042969 562.03125 298.9375 566.777344 301.023438 C 569.441406 302.199219 572.105469 303.359375 574.765625 304.539062 C 575.191406 304.734375 575.628906 304.980469 576.074219 305.121094 C 577.144531 305.445312 576.113281 305.3125 576.253906 305.121094 C 575.792969 304.742188 575.703125 304.703125 575.992188 305 C 576.609375 305.699219 576.238281 305.207031 574.886719 303.53125 C 575.554688 304.480469 576.3125 305.359375 577.085938 306.226562 L 574.886719 302.460938 C 575.339844 303.761719 574.847656 301.328125 574.902344 301.105469 C 574.722656 301.820312 575.101562 303.285156 575.421875 303.996094 C 575.679688 304.585938 575.222656 303.023438 575.300781 303.03125 C 575.257812 303.03125 575.601562 305.519531 575.613281 305.625 L 575.613281 301.085938 C 575.332031 302.265625 575.28125 303.433594 575.226562 304.628906 L 576.394531 300.320312 C 575.972656 301.234375 575.703125 302.296875 575.175781 303.136719 C 574.84375 303.671875 576.566406 301.09375 575.539062 302.175781 C 575.355469 302.378906 575.199219 302.765625 575.027344 302.988281 C 573.710938 304.71875 572.457031 306.507812 571.171875 308.269531 C 567.773438 312.921875 564.386719 317.574219 560.992188 322.21875 C 556.382812 328.527344 556.496094 336.777344 562.289062 342.402344 C 565.628906 345.640625 569.699219 348.367188 573.320312 351.289062 C 575.742188 353.234375 578.15625 355.1875 580.578125 357.136719 C 580.890625 357.390625 582.035156 358.644531 582.480469 358.667969 C 582.925781 358.6875 582.265625 358.859375 582.605469 358.503906 C 582.652344 358.457031 582.414062 358.003906 582.445312 357.925781 C 582.628906 357.425781 583.527344 354.988281 582.289062 356.867188 C 579.738281 360.71875 581.53125 366.320312 585.355469 368.558594 C 589.53125 371.003906 594.496094 369.351562 597.046875 365.488281 C 601.859375 358.214844 598.886719 350.0625 592.660156 345.046875 C 588.203125 341.449219 583.738281 337.859375 579.277344 334.265625 C 577.746094 333.03125 576.089844 331.878906 574.648438 330.535156 C 574.359375 330.265625 574.089844 329.878906 573.800781 329.648438 C 573.570312 329.464844 573.4375 329.054688 573.183594 328.914062 C 571.714844 328.082031 575.375 332.429688 574.476562 332.472656 C 574.617188 332.472656 574.597656 332.316406 574.691406 332.28125 C 575.628906 331.960938 577.128906 328.9375 577.703125 328.15625 C 579.40625 325.824219 581.105469 323.496094 582.800781 321.164062 C 585.222656 317.839844 587.996094 314.59375 590.148438 311.09375 C 590.78125 310.070312 591.070312 308.863281 591.621094 307.816406 C 590.253906 310.425781 591.582031 308.457031 592.007812 306.910156 C 592.179688 306.277344 592.289062 305.140625 592.320312 304.488281 C 592.371094 303.386719 592.675781 304.175781 592.222656 304.710938 L 592.089844 305.632812 L 592.394531 303.359375 C 592.394531 303.089844 592.394531 299.523438 592.246094 301.945312 C 592.117188 303.929688 592.339844 300.78125 592.058594 299.917969 C 591.636719 298.632812 592.199219 299.339844 591.894531 300.132812 L 591.992188 301.105469 L 591.6875 298.832031 C 591.324219 297.449219 590.65625 296.15625 589.835938 295.015625 C 589.371094 294.359375 588.449219 292.539062 589.070312 294.144531 C 589.808594 296.054688 588.671875 293.535156 588.082031 292.917969 C 587.066406 291.863281 585.90625 290.984375 584.605469 290.316406 C 583.132812 289.558594 581.542969 288.972656 580.027344 288.304688 C 574.714844 285.960938 569.402344 283.628906 564.097656 281.289062 C 563.035156 280.820312 561.472656 279.734375 560.308594 279.578125 C 559.214844 279.4375 560.789062 279.945312 561.085938 280.472656 C 561.289062 280.835938 561.140625 281.5625 561.257812 281.765625 C 561.824219 282.753906 560.992188 282.820312 561.539062 281.703125 C 561.761719 281.257812 561.90625 280.761719 562.082031 280.300781 C 564.058594 275.226562 566.027344 270.148438 568.003906 265.074219 C 569.535156 261.128906 570.738281 257.636719 571.683594 253.585938 C 571.007812 256.492188 571.816406 254.078125 571.816406 252.507812 C 571.816406 251.640625 571.632812 250.785156 571.445312 249.945312 C 571.207031 248.859375 571.683594 249.945312 571.445312 250.308594 L 571.566406 251.222656 L 571.261719 248.949219 C 571.191406 248.710938 570.277344 245.375 570.753906 247.664062 C 571.140625 249.535156 570.429688 246.460938 569.972656 245.6875 C 569.804688 245.398438 569.59375 245.113281 569.417969 244.839844 C 569.3125 244.683594 567.238281 241.742188 568.605469 243.769531 C 569.535156 245.144531 569.089844 244.371094 568.882812 244.066406 C 567.976562 242.730469 566.90625 241.71875 565.554688 240.828125 C 564.550781 240.167969 565.605469 241.085938 565.738281 241.035156 C 566.699219 241.785156 566.636719 241.742188 565.546875 240.894531 C 565.011719 240.367188 564.386719 239.996094 563.65625 239.792969 C 561.148438 238.191406 564 240.753906 564.023438 239.832031 C 564.023438 239.675781 561.949219 238.902344 561.800781 238.851562 C 561.347656 238.703125 560.863281 238.574219 560.394531 238.480469 C 559.847656 238.359375 559.273438 238.308594 558.714844 238.226562 C 556.203125 237.847656 553.691406 237.476562 551.1875 237.097656 C 545.980469 236.316406 540.757812 235.617188 535.5625 234.757812 C 535.265625 234.703125 534.945312 234.628906 534.640625 234.613281 C 532.820312 234.527344 534.839844 234.613281 535.449219 235.515625 C 536.058594 236.414062 535.5625 237.960938 535.925781 236.199219 C 536.230469 234.703125 536.273438 233.105469 536.445312 231.589844 C 537.09375 225.847656 537.738281 220.101562 538.394531 214.359375 C 538.554688 212.925781 538.839844 211.445312 538.882812 210.003906 C 538.914062 209.171875 538.230469 206.601562 538.519531 206.289062 C 538.660156 206.132812 538.816406 208.679688 538.683594 207.609375 C 538.535156 206.40625 538.378906 205.449219 537.945312 204.320312 C 537.992188 204.429688 536.699219 201.59375 537.574219 203.554688 C 538.453125 205.515625 536.46875 201.480469 536.261719 201.132812 C 534.789062 198.6875 536.113281 201.53125 536.535156 201.390625 C 537.121094 201.191406 532.277344 197.082031 532.292969 197.140625 C 532.46875 197.667969 534.847656 198.785156 532.542969 197.378906 C 532.136719 197.132812 528.136719 195.214844 530.054688 196.046875 C 531.972656 196.882812 527.757812 195.269531 527.210938 195.132812 C 523.953125 194.347656 527.714844 195.304688 527.417969 195.128906 C 524.707031 193.523438 517.808594 195.46875 515.097656 195.789062 C 509.746094 196.40625 504.398438 197.15625 499.03125 197.644531 C 497.8125 197.757812 496.75 197.699219 495.507812 197.585938 L 499.820312 198.753906 C 499.773438 198.730469 498.15625 197.875 498.148438 197.898438 C 497.246094 199.238281 500.414062 199.183594 499.082031 198.5 C 498.769531 198.34375 497.046875 197.347656 498.921875 198.292969 C 500.449219 199.074219 499.3125 199.230469 499.492188 198.582031 C 499.609375 198.175781 499.292969 197.246094 499.230469 196.84375 C 498.621094 192.710938 498.011719 188.582031 497.402344 184.449219 C 496.875 180.875 496.460938 177.261719 495.820312 173.703125 C 495.703125 173.042969 495.597656 172.449219 495.40625 171.792969 C 495.144531 170.917969 494.59375 170.105469 494.34375 169.269531 C 494.296875 169.117188 495.367188 171.652344 494.886719 170.566406 C 494.203125 169.023438 493.761719 168.042969 492.683594 166.800781 C 491.667969 165.625 493.84375 168.503906 493.191406 167.46875 C 492.246094 165.976562 491.421875 165.261719 489.957031 164.289062 C 489.875 164.238281 491.824219 165.921875 491.164062 165.113281 C 490.589844 164.414062 489.28125 163.671875 488.375 163.1875 C 487.632812 162.789062 486.726562 162.601562 486.019531 162.199219 C 488.933594 163.867188 487.980469 163.011719 487.386719 162.796875 C 485.515625 162.113281 484.773438 162.199219 482.898438 161.621094 C 483.828125 161.910156 485.21875 161.488281 482.871094 161.605469 C 481.589844 161.671875 480.625 161.511719 479.226562 161.800781 C 482.429688 161.128906 481.398438 161.605469 480.738281 161.503906 C 479.628906 161.339844 478.046875 161.875 476.9375 162.246094 C 475.773438 162.640625 474.636719 163.167969 473.492188 163.621094 C 469.410156 165.246094 465.339844 166.875 461.261719 168.503906 L 455.769531 170.695312 C 455.410156 170.835938 453.035156 171.460938 452.886719 171.847656 C 452.988281 171.585938 454.652344 173.382812 454.757812 172.238281 C 454.839844 171.355469 453.515625 169.355469 453.183594 168.570312 C 451.457031 164.550781 449.726562 160.523438 448.003906 156.5 C 446.859375 153.839844 445.894531 151.003906 444.539062 148.4375 C 444.363281 148.097656 444.125 147.769531 443.910156 147.4375 C 443.464844 146.730469 442.882812 146.128906 442.414062 145.4375 C 444.378906 148.355469 442.941406 145.933594 442.480469 145.519531 C 441.582031 144.707031 440.542969 143.882812 439.664062 143.050781 C 440.050781 143.421875 440.816406 143.773438 440.675781 143.847656 C 441.65625 143.347656 436.164062 141.476562 436.835938 141.625 C 437.667969 141.804688 439.570312 142.589844 437.152344 141.65625 C 436.382812 141.355469 435.585938 141.058594 434.777344 140.875 C 435.453125 141.023438 430.273438 140.367188 433.214844 140.71875 C 436.605469 141.121094 429.902344 140.503906 431.632812 140.503906 C 430.785156 140.503906 429.894531 140.785156 429.054688 140.875 C 431.921875 140.570312 430.875 140.636719 430.242188 140.671875 C 428.347656 140.769531 427.351562 141.15625 425.664062 141.964844 C 426.988281 141.335938 428.570312 140.390625 425.027344 142.175781 C 423.308594 143.035156 421.824219 144.335938 420.292969 145.480469 C 416.800781 148.089844 413.308594 150.707031 409.816406 153.3125 L 405.195312 156.769531 C 404.890625 157 402.859375 158.128906 402.785156 158.574219 C 402.972656 157.519531 405.964844 158.820312 403.625 158.507812 C 401.695312 158.246094 406.0625 158.722656 404.6875 158.699219 C 404.226562 158.695312 403.765625 158.285156 403.304688 158.238281 C 403.996094 158.316406 405.015625 159.382812 404.917969 158.621094 C 404.875 158.308594 404.09375 157.570312 403.914062 157.339844 C 401.457031 154.207031 398.996094 151.070312 396.53125 147.933594 C 394.21875 144.992188 391.964844 141.988281 389.597656 139.097656 C 389.046875 138.429688 388.617188 137.96875 387.953125 137.390625 C 386.222656 135.851562 385.347656 135.441406 387.351562 136.867188 C 386.296875 136.117188 385.472656 135.382812 384.304688 134.847656 C 383.753906 134.59375 380.375 133.257812 384.105469 134.847656 C 382.285156 134.066406 381.496094 133.679688 379.476562 133.578125 C 383.882812 133.800781 379.191406 133.480469 378.117188 133.464844 C 377.039062 133.449219 373.359375 134.066406 375.804688 133.679688 C 379.402344 133.109375 372.320312 134.445312 374.339844 133.890625 C 373.21875 134.199219 370.550781 136.042969 373.714844 134.15625 C 373.046875 134.558594 368.613281 136.4375 369.027344 136.726562 C 369.445312 137.015625 371.414062 134.558594 368.277344 137.375 C 367.628906 137.953125 367.183594 138.421875 366.640625 139.082031 C 361.664062 145.160156 356.929688 151.457031 352.078125 157.628906 C 350.800781 159.257812 350.769531 158.484375 352.925781 158.226562 C 352.539062 158.269531 352.183594 158.558594 351.796875 158.605469 C 349.78125 158.828125 354.226562 158.292969 352.859375 158.515625 C 350.042969 158.976562 353.40625 157.636719 353.40625 158.542969 C 353.40625 158.234375 351.445312 157.082031 351.222656 156.910156 L 346.40625 153.304688 C 342.839844 150.636719 339.273438 147.96875 335.707031 145.304688 C 334.378906 144.308594 330.972656 141.15625 329.160156 141.296875 C 328.757812 141.328125 325.535156 139.601562 330.558594 141.953125 C 329.339844 141.378906 328.394531 141.015625 327.117188 140.816406 C 326.640625 140.742188 323.453125 140.4375 327.160156 140.867188 C 326.179688 140.753906 326.566406 140.496094 324.589844 140.496094 C 323.371094 140.496094 322.949219 140.703125 322.085938 140.84375 C 327.695312 139.902344 320.578125 141.058594 321.441406 140.867188 C 320.390625 141.097656 318.816406 141.542969 318.042969 142.078125 C 317.121094 142.722656 319.539062 141.566406 319.449219 141.585938 C 318.929688 141.75 315.667969 142.960938 315.53125 143.839844 C 315.496094 144.070312 315.902344 146.601562 316.542969 143.042969 C 316.476562 143.414062 314.691406 144.351562 314.394531 144.648438 C 315.578125 143.46875 311.503906 148.402344 313.316406 146.0625 C 314.664062 144.320312 312.789062 146.65625 312.300781 147.4375 C 312.09375 147.761719 311.847656 148.097656 311.667969 148.4375 C 308.234375 155.007812 305.738281 162.261719 302.8125 169.074219 C 302.5 169.796875 301.375 171.445312 301.449219 172.238281 C 301.5625 173.339844 303.128906 171.527344 303.277344 171.832031 C 303.085938 171.429688 301.050781 170.941406 300.671875 170.789062 L 294.613281 168.367188 C 290.484375 166.71875 286.351562 165.070312 282.21875 163.417969 C 281.238281 163.027344 280.265625 162.578125 279.269531 162.238281 C 278.394531 161.933594 277.523438 161.816406 276.617188 161.644531 C 275.710938 161.472656 273.464844 160.996094 276.980469 161.785156 C 275.339844 161.421875 273.882812 161.398438 272.210938 161.746094 C 271.007812 162 273.613281 161.585938 273.496094 161.597656 C 272.269531 161.816406 271.027344 162.132812 269.847656 162.355469 C 268.664062 162.578125 267.484375 163.867188 270.195312 162.195312 C 269.570312 162.578125 268.621094 162.75 267.953125 163.101562 C 267.046875 163.574219 265.550781 164.476562 265.046875 165.113281 C 264.625 165.640625 263.84375 165.917969 266.25 164.289062 C 264.890625 165.210938 263.910156 166.125 263.019531 167.46875 C 262.339844 168.488281 264.007812 165.707031 263.65625 166.652344 C 263.351562 167.476562 261.734375 169.648438 261.324219 170.566406 C 261.0625 171.148438 260.960938 172.269531 261.867188 169.269531 C 261.628906 170.054688 261.101562 170.820312 260.847656 171.644531 C 260.609375 172.402344 260.5 173.085938 260.363281 173.859375 C 259.027344 181.550781 258.082031 189.332031 256.945312 197.050781 C 256.910156 197.28125 256.507812 198.863281 256.664062 198.992188 C 255.882812 198.351562 259.152344 196.902344 257.363281 198.25 C 255.726562 199.472656 258.425781 198.433594 258.078125 197.890625 C 258.054688 197.863281 256.441406 198.730469 256.398438 198.746094 L 260.707031 197.578125 C 254.636719 198.121094 248.207031 196.597656 242.183594 195.898438 C 239.097656 195.542969 235.992188 195.03125 232.902344 194.828125 C 231.808594 194.753906 229.394531 194.59375 228.804688 195.128906 C 228.5625 195.351562 223.171875 195.796875 230.449219 194.957031 C 229.5625 195.058594 228.976562 194.984375 227.878906 195.289062 C 226.398438 195.699219 226.382812 196.011719 225.46875 196.339844 C 228.804688 195.140625 225.210938 196.324219 224.535156 196.71875 C 223.597656 197.265625 223.269531 197.667969 222.636719 198.195312 C 225.8125 195.558594 223.308594 197.566406 222.957031 197.871094 C 222.332031 198.410156 221.644531 198.933594 221.078125 199.546875 C 220.59375 200.070312 220.148438 201.085938 219.621094 201.519531 C 225.617188 196.613281 220.675781 199.988281 220.625 200.277344 C 220.871094 198.820312 217.867188 205.464844 218.394531 204.15625 C 218.15625 204.757812 219.382812 201.957031 218.707031 203.308594 C 217.710938 205.285156 218.328125 205.835938 217.527344 207.796875 C 217.175781 208.644531 217.519531 206.164062 217.703125 206.296875 C 217.90625 206.4375 217.371094 208.964844 217.371094 209.609375 C 217.371094 210.332031 217.453125 211.023438 217.535156 211.742188 C 218.378906 219.269531 219.234375 226.796875 220.082031 234.324219 C 220.15625 234.957031 220.148438 235.65625 220.304688 236.273438 C 220.640625 237.640625 219.429688 237.511719 220.773438 235.523438 C 220.90625 235.320312 222.476562 234.355469 222.496094 234.40625 C 222.511719 234.445312 221.449219 234.660156 221.167969 234.683594 C 217.957031 234.988281 214.746094 235.648438 211.558594 236.125 L 199.097656 237.988281 C 198.085938 238.136719 197.054688 238.25 196.050781 238.449219 C 195.410156 238.574219 195.351562 238.554688 194.421875 238.859375 C 194.109375 238.960938 192.097656 239.585938 192.023438 239.957031 C 193.925781 239.222656 194.105469 239.171875 192.566406 239.800781 C 191.503906 240.144531 190.589844 240.738281 189.816406 241.570312 C 192.988281 239.015625 189.222656 241.816406 188.695312 242.34375 C 189.578125 241.460938 185.855469 246.140625 187.632812 243.777344 C 188.945312 242.023438 187.296875 244.140625 186.777344 244.929688 C 186.109375 245.941406 185.46875 246.691406 185.207031 248.003906 C 184.949219 249.320312 185.78125 247.003906 185.839844 246.914062 C 185.066406 248.242188 184.679688 249.683594 184.675781 251.222656 L 184.902344 249.402344 C 184.902344 251.320312 184.003906 252.960938 184.753906 255 L 184.792969 255.207031 C 184.445312 252.835938 184.457031 253.058594 184.851562 255.867188 C 184.890625 256.066406 184.964844 256.277344 185.015625 256.476562 C 185.195312 257.160156 185.378906 257.746094 185.632812 258.425781 C 188.285156 265.5 191.109375 272.511719 193.851562 279.558594 C 194.132812 280.285156 194.355469 281.089844 194.714844 281.777344 C 195.6875 283.667969 194.667969 281.691406 194.957031 280.867188 C 195.417969 279.566406 197.277344 279.273438 195.507812 279.808594 C 195.308594 279.871094 195.097656 279.980469 194.90625 280.078125 C 191.265625 281.777344 187.535156 283.324219 183.855469 284.945312 C 180.179688 286.566406 176.386719 288.207031 172.671875 289.871094 C 171.195312 290.53125 169.835938 291.253906 168.625 292.398438 C 168.421875 292.582031 168.15625 292.925781 167.960938 293.125 C 167.382812 293.585938 166.9375 294.167969 166.609375 294.871094 C 167.789062 293.394531 168.082031 292.992188 167.484375 293.675781 C 166.050781 295.199219 165.21875 296.871094 164.542969 298.839844 L 172.785156 292.570312 C 168.164062 292.570312 164.238281 296.484375 164.238281 301.113281 C 164.238281 295.554688 163.832031 302.699219 163.808594 302.363281 C 163.867188 303.402344 163.480469 302.726562 164.136719 301.101562 C 163.695312 302.183594 164.007812 303.410156 163.980469 304.511719 C 163.882812 308.1875 163.835938 302.460938 163.882812 304.070312 C 163.898438 304.652344 163.964844 305.195312 164.058594 305.78125 C 164.261719 306.96875 164.601562 307.847656 165.070312 308.960938 C 165.664062 310.359375 164.441406 307.59375 164.609375 307.898438 C 165.703125 309.800781 166.199219 311.292969 167.472656 313.035156 C 171.484375 318.53125 175.496094 324.03125 179.507812 329.539062 C 180.050781 330.289062 180.570312 331.292969 181.25 331.921875 C 182.941406 333.5 184.019531 328.023438 182.851562 329.152344 C 181.589844 330.371094 180.414062 331.484375 179.027344 332.605469 C 173.75 336.855469 168.480469 341.101562 163.207031 345.351562 C 159.609375 348.25 156.957031 351.980469 156.769531 356.792969 C 156.53125 362.984375 159.957031 366.996094 164.425781 370.578125 C 163.6875 367.808594 162.960938 365.035156 162.226562 362.261719 L 162.210938 362.324219 C 161.527344 365.050781 162.070312 368.75 164.410156 370.636719 C 168.941406 374.285156 173.484375 377.933594 178.015625 381.589844 C 178.9375 382.335938 179.835938 383.136719 180.796875 383.828125 C 181.859375 384.59375 181.695312 385.121094 181.753906 383.789062 C 181.871094 381.0625 179.957031 384.859375 179.351562 385.679688 C 175.3125 391.214844 171.269531 396.75 167.226562 402.285156 C 166.855469 402.792969 166.453125 403.289062 166.113281 403.808594 C 165.820312 404.253906 165.570312 404.6875 165.332031 405.15625 C 167.09375 401.738281 164.46875 407.457031 164.402344 407.546875 C 165.265625 405.675781 165.359375 405.503906 164.691406 407.035156 C 164.304688 407.703125 164.113281 408.417969 164.105469 409.191406 C 163.183594 412.882812 164.527344 406.871094 164.03125 409.359375 C 163.710938 410.945312 163.53125 412.875 164.082031 414.472656 L 163.859375 412.628906 L 164.164062 414.902344 C 164.230469 415.246094 164.277344 415.609375 164.363281 415.953125 C 164.90625 418.019531 166.039062 420.007812 167.507812 421.554688 C 168.699219 422.804688 171.132812 424.675781 168.691406 422.59375 C 169.253906 423.070312 170.457031 424.042969 171.285156 424.511719 C 171.738281 424.765625 172.203125 424.964844 172.679688 425.1875 C 175.472656 426.480469 178.335938 427.664062 181.160156 428.902344 L 191.363281 433.378906 C 192.410156 433.839844 193.457031 434.277344 194.496094 434.753906 C 194.75 434.871094 195.011719 434.996094 195.269531 435.09375 C 196.289062 435.464844 195.960938 436.132812 195.722656 435.078125 C 195.902344 435.867188 194.511719 432.449219 194.957031 433.222656 C 194.503906 432.441406 195.558594 431.542969 194.691406 433.230469 C 194.632812 433.347656 194.601562 433.480469 194.542969 433.601562 C 194.105469 434.558594 193.769531 435.585938 193.390625 436.574219 C 192.140625 439.789062 190.886719 443.007812 189.636719 446.234375 C 188.390625 449.457031 187.191406 452.511719 185.972656 455.65625 C 185.707031 456.339844 185.402344 457.023438 185.171875 457.722656 C 184.882812 458.589844 184.71875 459.421875 184.605469 460.328125 C 184.6875 459.683594 184.332031 461.6875 184.472656 461.851562 C 184.800781 459.816406 184.84375 459.644531 184.605469 461.332031 C 184.355469 462.46875 184.40625 463.605469 184.761719 464.742188 C 184.859375 465.359375 184.472656 461.652344 184.578125 463.703125 C 184.660156 465.34375 184.949219 465.8125 185.320312 467.128906 C 185.269531 466.957031 186.480469 469.960938 185.582031 467.730469 C 184.449219 464.929688 187.921875 473.015625 188.195312 472.0625 C 188.398438 471.347656 186.085938 470.210938 188.03125 471.726562 C 189.199219 472.636719 189.972656 473.765625 191.449219 474.359375 C 192.535156 474.796875 193.570312 475.027344 194.75 475.09375 C 194.816406 475.09375 194.890625 475.09375 194.957031 475.09375 C 196.011719 475.148438 197.082031 475.09375 198.140625 475.09375 L 531.171875 475.09375 C 541.21875 475.09375 551.425781 475.636719 561.464844 475.09375 C 563.734375 474.976562 565.917969 474.226562 567.550781 472.589844 C 570.53125 469.609375 568.488281 471.089844 567.929688 472.179688 C 568.152344 471.742188 570.183594 469.148438 569.527344 470.203125 C 569.75 469.847656 569.914062 469.441406 570.109375 469.066406 C 570.457031 468.390625 570.671875 467.648438 571.007812 466.972656 C 569.664062 469.675781 570.265625 468.734375 570.507812 468.148438 C 571.164062 466.554688 571.550781 465.5 571.675781 463.835938 C 571.691406 463.679688 571.691406 463.070312 571.714844 463.0625 C 571.742188 463.054688 571.402344 465.398438 571.492188 464.742188 C 571.699219 463.144531 572.003906 461.84375 571.492188 460.203125 C 571.648438 460.699219 571.824219 461.683594 571.789062 461.667969 C 571.839844 461.6875 571.371094 458.605469 571.140625 457.882812 C 569.441406 452.5625 567.0625 447.378906 565.039062 442.167969 C 564.007812 439.515625 562.945312 436.878906 561.949219 434.21875 C 561.875 434.03125 561.273438 432.316406 561.289062 432.316406 C 562.039062 432.359375 561.421875 434.007812 561.132812 434.523438 C 560.722656 435.257812 558.835938 435.828125 560.769531 435.199219 C 560.902344 435.152344 561.027344 435.078125 561.152344 435.027344 C 567.164062 432.746094 573.015625 429.832031 578.90625 427.253906 C 580.800781 426.421875 582.835938 425.722656 584.65625 424.734375 C 584.976562 424.5625 585.261719 424.320312 585.566406 424.117188 C 585.964844 423.859375 586.277344 423.589844 586.695312 423.277344 C 589.109375 421.503906 586.390625 423.628906 586.261719 423.636719 C 587.652344 423.589844 589.777344 420.433594 590.433594 419.390625 C 591.265625 418.070312 591.730469 416.613281 592.050781 415.105469 C 592.265625 414.109375 592.640625 411.179688 592.28125 413.574219 C 592.015625 415.355469 592.179688 414.472656 592.253906 414.085938 C 592.585938 412.378906 592.542969 411.1875 592.253906 409.546875 C 592.222656 409.359375 592.015625 408.824219 592.074219 408.648438 C 592.179688 408.320312 592.28125 411.160156 592.3125 410.347656 C 592.347656 409.003906 591.859375 407.101562 591.144531 406.039062 C 591.167969 406.070312 592 408.410156 591.792969 407.21875 C 591.644531 406.359375 591.046875 405.28125 590.59375 404.507812 C 589.652344 402.875 588.359375 401.386719 587.25 399.871094 C 583.34375 394.519531 579.695312 388.808594 575.453125 383.714844 C 575.363281 383.613281 574.789062 382.59375 574.632812 382.59375 C 575.101562 382.59375 573.414062 384.847656 574.804688 384.386719 C 576.855469 383.703125 579.308594 380.757812 580.972656 379.414062 C 585.230469 375.988281 589.488281 372.554688 593.746094 369.128906 C 595.960938 367.347656 596.816406 363.429688 595.945312 360.816406 L 595.929688 360.769531 C 595.195312 363.542969 594.46875 366.3125 593.730469 369.085938 C 594.453125 368.503906 595.128906 367.964844 595.746094 367.273438 C 598.804688 363.824219 599.140625 358.585938 595.746094 355.1875 C 592.625 352.066406 586.738281 351.726562 583.664062 355.1875 Z M 583.582031 355.113281 " fill-opacity="1" fill-rule="nonzero"/></g><g clip-path="url(#9802bf1f3e)"><path fill="#ffffff" d="M 624.292969 535.613281 C 633.671875 554.515625 643.058594 573.421875 652.4375 592.316406 C 653.773438 595.023438 655.117188 597.71875 656.457031 600.425781 C 658.914062 596.136719 661.375 591.847656 663.835938 587.570312 L 115.457031 587.570312 C 108.078125 587.570312 100.59375 587.203125 93.214844 587.570312 C 92.894531 587.582031 92.574219 587.570312 92.253906 587.570312 C 94.714844 591.855469 97.175781 596.144531 99.632812 600.425781 C 109.125 581.296875 118.621094 562.171875 128.109375 543.042969 C 129.335938 540.574219 130.628906 538.132812 131.789062 535.632812 C 134.128906 530.597656 131.734375 526.867188 129.597656 522.542969 C 124.097656 511.460938 118.597656 500.382812 113.105469 489.300781 C 108.617188 480.257812 104.128906 471.207031 99.640625 462.164062 C 97.183594 466.453125 94.722656 470.738281 92.261719 475.019531 L 640.644531 475.019531 C 648.023438 475.019531 655.503906 475.382812 662.882812 475.019531 C 663.203125 475.003906 663.523438 475.019531 663.84375 475.019531 C 661.382812 470.734375 658.921875 466.445312 656.464844 462.164062 C 647.085938 481.070312 637.699219 499.972656 628.324219 518.871094 C 626.984375 521.574219 625.640625 524.273438 624.300781 526.976562 C 622.25 531.109375 623.195312 536.230469 627.371094 538.667969 C 631.144531 540.875 637 539.75 639.058594 535.597656 C 648.4375 516.691406 657.824219 497.789062 667.199219 478.890625 C 668.539062 476.1875 669.882812 473.488281 671.222656 470.785156 C 674.042969 465.101562 670.65625 457.929688 663.84375 457.929688 L 115.457031 457.929688 C 108.046875 457.929688 100.621094 457.757812 93.214844 457.929688 C 92.894531 457.9375 92.574219 457.929688 92.253906 457.929688 C 85.441406 457.929688 82.054688 465.101562 84.875 470.785156 C 94.253906 489.6875 103.640625 508.59375 113.019531 527.488281 C 114.355469 530.195312 115.699219 532.890625 117.039062 535.597656 L 117.039062 526.96875 C 107.660156 545.875 98.273438 564.777344 88.898438 583.675781 C 87.558594 586.378906 86.214844 589.078125 84.875 591.78125 C 82.054688 597.46875 85.441406 604.636719 92.253906 604.636719 L 640.636719 604.636719 C 648.042969 604.636719 655.46875 604.808594 662.875 604.636719 C 663.195312 604.628906 663.515625 604.636719 663.835938 604.636719 C 670.648438 604.636719 674.039062 597.46875 671.214844 591.78125 C 661.835938 572.878906 652.449219 553.972656 643.074219 535.078125 C 641.734375 532.371094 640.390625 529.675781 639.050781 526.96875 C 637 522.839844 631.144531 521.6875 627.363281 523.902344 C 623.152344 526.367188 622.238281 531.441406 624.292969 535.589844 Z M 624.292969 535.613281 " fill-opacity="1" fill-rule="nonzero"/></g><path fill="#ffffff" d="M 420.003906 510.667969 L 414.726562 543.148438 L 425.289062 543.148438 L 420.011719 510.667969 Z M 262.335938 510.667969 L 257.058594 543.148438 L 267.617188 543.148438 L 262.34375 510.667969 Z M 361.105469 502.261719 L 361.105469 525.757812 L 365.617188 525.757812 C 369.652344 525.757812 372.511719 524.835938 374.207031 522.988281 C 375.902344 521.144531 376.75 518.113281 376.75 513.914062 C 376.75 509.714844 375.996094 506.875 374.488281 505.027344 C 372.988281 503.183594 370.285156 502.253906 366.375 502.253906 L 361.097656 502.253906 Z M 307.394531 502.261719 L 307.394531 525.757812 L 311.90625 525.757812 C 315.941406 525.757812 318.800781 524.835938 320.496094 522.988281 C 322.191406 521.144531 323.039062 518.113281 323.039062 513.914062 C 323.039062 509.714844 322.289062 506.875 320.777344 505.027344 C 319.277344 503.183594 316.574219 502.253906 312.664062 502.253906 L 307.386719 502.253906 Z M 539.621094 492.617188 L 552.867188 492.617188 L 562.46875 523.277344 L 571.492188 492.617188 L 584.449219 492.617188 L 568.898438 540.472656 L 568.898438 569.988281 L 555.367188 569.988281 L 555.367188 540.472656 L 539.625 492.617188 Z M 498.667969 492.617188 L 537.351562 492.617188 L 537.351562 503.027344 L 525.253906 503.027344 L 525.253906 569.988281 L 511.046875 569.988281 L 511.046875 503.027344 L 498.667969 503.027344 Z M 450.945312 492.617188 L 460.835938 492.617188 L 479.75 536.75 L 479.75 492.617188 L 491.460938 492.617188 L 491.460938 569.988281 L 482.050781 569.988281 L 463.042969 523.753906 L 463.042969 569.988281 L 450.945312 569.988281 Z M 412.3125 492.617188 L 427.480469 492.617188 L 443.03125 569.988281 L 429.878906 569.988281 L 426.8125 552.125 L 413.277344 552.125 L 410.113281 569.988281 L 396.765625 569.988281 L 412.320312 492.617188 Z M 346.988281 492.617188 L 365.707031 492.617188 C 373.894531 492.617188 380.011719 494.164062 384.039062 497.246094 C 388.074219 500.335938 390.085938 505.636719 390.085938 513.148438 C 390.085938 518.054688 389.367188 522.050781 387.925781 525.132812 C 386.484375 528.226562 384.007812 530.46875 380.488281 531.867188 L 391.335938 569.980469 L 377.128906 569.980469 L 367.816406 534.542969 L 361.097656 534.542969 L 361.097656 569.980469 L 346.988281 569.980469 L 346.988281 492.609375 Z M 293.277344 492.617188 L 311.996094 492.617188 C 320.183594 492.617188 326.300781 494.164062 330.328125 497.246094 C 334.363281 500.335938 336.375 505.636719 336.375 513.148438 C 336.375 518.054688 335.65625 522.050781 334.214844 525.132812 C 332.773438 528.226562 330.296875 530.46875 326.777344 531.867188 L 337.625 569.980469 L 323.417969 569.980469 L 314.105469 534.542969 L 307.386719 534.542969 L 307.386719 569.980469 L 293.277344 569.980469 L 293.277344 492.609375 Z M 254.644531 492.617188 L 269.808594 492.617188 L 285.363281 569.988281 L 272.210938 569.988281 L 269.140625 552.125 L 255.609375 552.125 L 252.445312 569.988281 L 239.097656 569.988281 L 254.652344 492.617188 Z M 171.632812 492.617188 L 183.441406 492.617188 L 189.867188 542.769531 L 197.929688 492.808594 L 207.53125 492.808594 L 215.882812 542.769531 L 222.222656 492.617188 L 233.933594 492.617188 L 223.085938 569.988281 L 211.566406 569.988281 L 202.925781 518.121094 L 194.378906 569.988281 L 182.570312 569.988281 L 171.625 492.617188 Z M 171.632812 492.617188 " fill-opacity="1" fill-rule="evenodd"/><path fill="#ffffff" d="M 457.671875 285.503906 C 462.441406 285.8125 466.648438 289.105469 468.320312 293.207031 C 469.878906 297.019531 469.53125 301.5 467.101562 305.203125 C 465.992188 306.886719 464.105469 308.457031 462.492188 309.972656 C 455.242188 316.792969 447.988281 323.617188 440.742188 330.4375 C 418.667969 351.199219 396.597656 371.96875 374.519531 392.730469 C 368.007812 398.851562 361.507812 404.976562 355 411.09375 C 352.738281 413.21875 350.5625 414.496094 347.5 415.433594 C 344.921875 416.21875 350.816406 414.753906 347.046875 415.566406 C 343.539062 416.324219 349.617188 415.550781 347.128906 415.527344 C 346.289062 415.519531 345.441406 415.640625 344.585938 415.609375 C 343.546875 415.574219 340.789062 415.113281 344.75 415.722656 C 344.046875 415.609375 343.085938 415.433594 342.375 415.402344 C 341.660156 415.371094 344.863281 416.109375 343.660156 415.535156 C 343.347656 415.386719 342.945312 415.433594 342.609375 415.320312 C 338.265625 413.789062 335.820312 411.25 332.535156 408.15625 C 327.546875 403.46875 322.5625 398.773438 317.574219 394.082031 C 308.816406 385.84375 299.890625 377.742188 291.277344 369.34375 C 285.847656 364.054688 285.019531 355.984375 290.683594 350.515625 C 295.886719 345.492188 302.886719 346.027344 308.085938 350.871094 C 317.621094 359.75 327.066406 368.726562 336.554688 377.652344 C 337.460938 378.507812 338.367188 379.363281 339.28125 380.214844 C 342.722656 383.449219 347.917969 383.464844 351.363281 380.214844 C 363.046875 369.226562 374.726562 358.234375 386.417969 347.246094 C 404.144531 330.5625 421.882812 313.882812 439.613281 297.207031 C 444.777344 292.351562 450.003906 285.429688 457.664062 285.503906 C 468.660156 285.613281 468.675781 268.523438 457.664062 268.410156 C 449.453125 268.328125 442.148438 271.457031 436.167969 276.992188 C 434.472656 278.5625 432.808594 280.152344 431.128906 281.726562 C 423.742188 288.675781 416.347656 295.628906 408.960938 302.578125 C 390.214844 320.21875 371.457031 337.851562 352.710938 355.492188 C 348.234375 359.707031 343.753906 363.914062 339.28125 368.125 L 351.363281 368.125 C 341.914062 359.230469 332.460938 350.34375 323.007812 341.449219 C 316.492188 335.320312 309.78125 330.546875 300.417969 329.976562 C 286.144531 329.097656 272.699219 340.105469 270.316406 354.105469 C 268.511719 364.722656 272.144531 374.738281 279.902344 382.097656 C 284.175781 386.148438 288.484375 390.167969 292.773438 394.203125 C 303.203125 404.019531 313.601562 413.878906 324.078125 423.652344 C 326.5 425.910156 329.070312 428.050781 332.066406 429.519531 C 334.09375 430.515625 336.226562 431.378906 338.433594 431.875 C 339.632812 432.144531 340.84375 432.324219 342.070312 432.464844 C 338.878906 432.085938 341.191406 432.375 342.988281 432.558594 C 344.789062 432.746094 346.363281 432.714844 348.066406 432.523438 C 348.917969 432.425781 352.867188 431.832031 348.382812 432.476562 C 349.222656 432.359375 349.855469 432.328125 350.859375 432.152344 C 351.34375 432.070312 351.832031 431.964844 352.308594 431.855469 C 355.183594 431.183594 358.105469 429.964844 360.601562 428.40625 C 367.273438 424.246094 372.953125 417.644531 378.621094 412.3125 C 401.871094 390.433594 425.132812 368.566406 448.382812 346.6875 C 456.792969 338.773438 465.207031 330.867188 473.617188 322.953125 C 475.4375 321.246094 477.355469 319.585938 478.96875 317.679688 C 488.734375 306.128906 488.503906 289.441406 478.589844 278.0625 C 473.277344 271.964844 465.585938 268.921875 457.664062 268.402344 C 453.058594 268.105469 449.117188 272.550781 449.117188 276.949219 C 449.117188 281.824219 453.042969 285.191406 457.664062 285.496094 Z M 457.671875 285.503906 " fill-opacity="1" fill-rule="nonzero"/><path fill="#ffffff" d="M 433.050781 213.265625 L 433.121094 213.265625 C 433.121094 213.265625 433.1875 213.265625 433.1875 213.265625 L 433.304688 213.296875 L 433.648438 213.332031 L 433.890625 213.4375 L 433.988281 213.460938 L 434.054688 213.503906 L 434.195312 213.5625 L 434.515625 213.832031 L 434.582031 213.875 L 434.597656 213.898438 L 434.664062 213.949219 C 434.800781 214.097656 434.917969 214.277344 435.007812 214.46875 L 438.378906 221.746094 C 438.527344 222.0625 438.753906 222.332031 439.019531 222.53125 L 439.324219 222.703125 L 439.457031 222.777344 C 439.613281 222.84375 439.785156 222.890625 439.957031 222.917969 L 447.730469 224.070312 C 448.859375 224.242188 449.644531 225.296875 449.476562 226.433594 C 449.40625 226.871094 449.207031 227.273438 448.902344 227.59375 L 447.550781 228.96875 C 447.550781 228.96875 443.121094 233.476562 443.121094 233.476562 C 442.652344 233.953125 442.445312 234.621094 442.558594 235.277344 L 443.929688 243.503906 C 443.96875 243.734375 443.96875 243.972656 443.929688 244.199219 L 443.910156 244.269531 L 443.910156 244.328125 C 443.910156 244.328125 443.828125 244.503906 443.828125 244.503906 L 443.699219 244.863281 L 443.625 244.953125 L 443.582031 245.054688 L 443.367188 245.265625 L 443.171875 245.492188 L 443.078125 245.539062 L 443.011719 245.605469 L 442.765625 245.703125 L 442.46875 245.851562 L 442.339844 245.851562 C 442.339844 245.851562 442.238281 245.902344 442.238281 245.902344 L 441.886719 245.902344 C 441.886719 245.902344 441.664062 245.917969 441.664062 245.917969 L 441.605469 245.894531 L 441.539062 245.894531 C 441.308594 245.859375 441.085938 245.777344 440.886719 245.664062 L 434.144531 241.890625 C 433.988281 241.800781 433.824219 241.734375 433.65625 241.691406 L 433.132812 241.621094 L 432.613281 241.691406 C 432.441406 241.734375 432.28125 241.800781 432.125 241.890625 L 425.382812 245.664062 C 425.175781 245.777344 424.953125 245.859375 424.730469 245.894531 L 424.664062 245.894531 L 424.605469 245.917969 L 424.378906 245.894531 L 424.03125 245.894531 C 424.03125 245.894531 423.925781 245.859375 423.925781 245.859375 L 423.800781 245.859375 C 423.800781 245.859375 423.503906 245.695312 423.503906 245.695312 L 423.257812 245.597656 L 423.191406 245.53125 L 423.09375 245.488281 L 422.902344 245.257812 L 422.6875 245.046875 L 422.640625 244.945312 L 422.566406 244.855469 L 422.441406 244.5 L 422.359375 244.320312 L 422.359375 244.261719 C 422.359375 244.261719 422.328125 244.195312 422.328125 244.195312 C 422.292969 243.964844 422.292969 243.726562 422.328125 243.496094 L 423.703125 235.269531 C 423.816406 234.617188 423.601562 233.9375 423.140625 233.472656 L 419.648438 229.917969 C 419.648438 229.917969 417.367188 227.585938 417.367188 227.585938 C 417.054688 227.273438 416.851562 226.863281 416.792969 226.425781 C 416.621094 225.289062 417.410156 224.234375 418.539062 224.0625 L 426.3125 222.910156 C 426.484375 222.890625 426.65625 222.835938 426.8125 222.769531 L 426.945312 222.695312 L 427.242188 222.523438 C 427.515625 222.324219 427.730469 222.050781 427.878906 221.738281 L 431.253906 214.460938 C 431.34375 214.269531 431.460938 214.089844 431.597656 213.941406 L 431.664062 213.890625 L 431.679688 213.867188 L 431.746094 213.824219 L 432.0625 213.554688 L 432.207031 213.496094 L 432.273438 213.453125 L 432.367188 213.429688 L 432.613281 213.324219 L 432.957031 213.289062 L 433.074219 213.257812 Z M 433.050781 213.265625 " fill-opacity="1" fill-rule="evenodd"/><path fill="#ffffff" d="M 377.96875 193.171875 L 378.050781 193.171875 C 378.050781 193.171875 378.128906 193.171875 378.128906 193.171875 L 378.273438 193.210938 L 378.6875 193.253906 L 378.984375 193.382812 L 379.105469 193.410156 L 379.1875 193.46875 L 379.355469 193.542969 L 379.75 193.871094 L 379.824219 193.921875 L 379.839844 193.945312 L 379.921875 194.011719 C 380.085938 194.199219 380.226562 194.414062 380.335938 194.652344 L 384.425781 203.605469 C 384.601562 204 384.871094 204.328125 385.199219 204.578125 L 385.5625 204.796875 L 385.726562 204.890625 C 385.917969 204.972656 386.117188 205.03125 386.328125 205.0625 L 395.75 206.480469 C 397.125 206.691406 398.074219 207.992188 397.867188 209.386719 C 397.792969 209.921875 397.546875 210.421875 397.167969 210.804688 L 395.535156 212.5 C 395.535156 212.5 390.167969 218.050781 390.167969 218.050781 C 389.605469 218.640625 389.351562 219.464844 389.476562 220.273438 L 391.140625 230.394531 C 391.1875 230.683594 391.1875 230.972656 391.140625 231.257812 L 391.113281 231.339844 L 391.113281 231.40625 C 391.113281 231.40625 391.007812 231.628906 391.007812 231.628906 L 390.859375 232.066406 L 390.761719 232.179688 L 390.703125 232.304688 L 390.4375 232.558594 L 390.199219 232.839844 L 390.078125 232.898438 L 389.996094 232.980469 L 389.699219 233.097656 L 389.335938 233.285156 L 389.1875 233.300781 L 389.070312 233.34375 L 388.644531 233.34375 C 388.644531 233.34375 388.378906 233.367188 388.378906 233.367188 L 388.304688 233.34375 L 388.222656 233.34375 C 387.945312 233.292969 387.671875 233.195312 387.425781 233.054688 L 379.253906 228.410156 C 379.058594 228.300781 378.859375 228.226562 378.660156 228.164062 L 378.035156 228.082031 L 377.410156 228.164062 C 377.203125 228.21875 377 228.300781 376.816406 228.410156 L 368.640625 233.054688 C 368.390625 233.195312 368.121094 233.292969 367.847656 233.34375 L 367.765625 233.34375 L 367.691406 233.367188 L 367.421875 233.34375 L 367 233.34375 C 367 233.34375 366.878906 233.300781 366.878906 233.300781 L 366.730469 233.285156 L 366.367188 233.097656 L 366.070312 232.980469 L 365.988281 232.898438 L 365.871094 232.839844 L 365.632812 232.558594 L 365.363281 232.304688 L 365.304688 232.179688 L 365.207031 232.066406 L 365.050781 231.628906 L 364.957031 231.40625 L 364.957031 231.339844 C 364.957031 231.339844 364.925781 231.257812 364.925781 231.257812 C 364.882812 230.972656 364.875 230.683594 364.925781 230.394531 L 366.589844 220.273438 C 366.722656 219.464844 366.472656 218.640625 365.898438 218.050781 L 361.664062 213.675781 C 361.664062 213.675781 358.898438 210.804688 358.898438 210.804688 C 358.527344 210.421875 358.28125 209.921875 358.199219 209.386719 C 358 207.992188 358.945312 206.691406 360.320312 206.480469 L 369.742188 205.0625 C 369.949219 205.03125 370.148438 204.972656 370.34375 204.890625 L 370.507812 204.796875 L 370.871094 204.578125 C 371.199219 204.328125 371.464844 204 371.644531 203.605469 L 375.730469 194.652344 C 375.84375 194.414062 375.984375 194.199219 376.148438 194.011719 L 376.226562 193.945312 L 376.242188 193.921875 L 376.316406 193.871094 L 376.710938 193.542969 L 376.882812 193.46875 L 376.964844 193.410156 L 377.082031 193.382812 L 377.378906 193.253906 L 377.796875 193.210938 L 377.9375 193.171875 Z M 377.96875 193.171875 " fill-opacity="1" fill-rule="evenodd"/><path fill="#ffffff" d="M 323.15625 213.265625 L 323.222656 213.265625 C 323.222656 213.265625 323.289062 213.265625 323.289062 213.265625 L 323.410156 213.296875 L 323.742188 213.332031 L 323.980469 213.4375 L 324.078125 213.460938 L 324.144531 213.503906 L 324.285156 213.5625 L 324.605469 213.832031 L 324.671875 213.875 L 324.6875 213.898438 L 324.753906 213.949219 C 324.886719 214.097656 325.007812 214.277344 325.097656 214.46875 L 328.417969 221.746094 C 328.566406 222.0625 328.78125 222.332031 329.050781 222.53125 L 329.347656 222.703125 L 329.480469 222.777344 C 329.636719 222.84375 329.800781 222.890625 329.972656 222.917969 L 337.625 224.070312 C 338.738281 224.242188 339.511719 225.296875 339.347656 226.433594 C 339.28125 226.871094 339.089844 227.273438 338.785156 227.59375 L 337.453125 228.96875 C 337.453125 228.96875 333.097656 233.476562 333.097656 233.476562 C 332.636719 233.953125 332.429688 234.621094 332.542969 235.277344 L 333.894531 243.503906 C 333.929688 243.734375 333.929688 243.972656 333.894531 244.199219 L 333.871094 244.269531 L 333.871094 244.328125 C 333.871094 244.328125 333.789062 244.503906 333.789062 244.503906 L 333.664062 244.863281 L 333.589844 244.953125 L 333.546875 245.054688 L 333.328125 245.265625 L 333.136719 245.492188 L 333.039062 245.539062 L 332.972656 245.605469 L 332.726562 245.703125 L 332.429688 245.851562 L 332.3125 245.851562 C 332.3125 245.851562 332.214844 245.902344 332.214844 245.902344 L 331.875 245.902344 C 331.875 245.902344 331.65625 245.917969 331.65625 245.917969 L 331.597656 245.894531 L 331.53125 245.894531 C 331.308594 245.859375 331.085938 245.777344 330.886719 245.664062 L 324.25 241.890625 C 324.09375 241.800781 323.929688 241.734375 323.765625 241.691406 L 323.253906 241.621094 L 322.742188 241.691406 C 322.570312 241.734375 322.414062 241.800781 322.257812 241.890625 L 315.621094 245.664062 C 315.421875 245.777344 315.199219 245.859375 314.976562 245.894531 L 314.910156 245.894531 L 314.847656 245.917969 L 314.632812 245.894531 L 314.292969 245.894531 C 314.292969 245.894531 314.195312 245.859375 314.195312 245.859375 L 314.078125 245.859375 C 314.078125 245.859375 313.777344 245.695312 313.777344 245.695312 L 313.535156 245.597656 L 313.46875 245.53125 L 313.371094 245.488281 L 313.175781 245.257812 L 312.960938 245.046875 L 312.917969 244.945312 L 312.84375 244.855469 L 312.714844 244.5 L 312.632812 244.320312 L 312.632812 244.261719 C 312.632812 244.261719 312.613281 244.195312 312.613281 244.195312 C 312.574219 243.964844 312.574219 243.726562 312.613281 243.496094 L 313.964844 235.269531 C 314.078125 234.617188 313.867188 233.9375 313.40625 233.472656 L 309.96875 229.917969 C 309.96875 229.917969 307.714844 227.585938 307.714844 227.585938 C 307.410156 227.273438 307.210938 226.863281 307.152344 226.425781 C 306.988281 225.289062 307.761719 224.234375 308.875 224.0625 L 316.527344 222.910156 C 316.699219 222.890625 316.863281 222.835938 317.019531 222.769531 L 317.152344 222.695312 L 317.449219 222.523438 C 317.71875 222.324219 317.933594 222.050781 318.082031 221.738281 L 321.402344 214.460938 C 321.492188 214.269531 321.605469 214.089844 321.746094 213.941406 L 321.8125 213.890625 L 321.828125 213.867188 L 321.894531 213.824219 L 322.214844 213.554688 L 322.355469 213.496094 L 322.421875 213.453125 L 322.519531 213.429688 L 322.753906 213.324219 L 323.089844 213.289062 L 323.207031 213.257812 Z M 323.15625 213.265625 " fill-opacity="1" fill-rule="evenodd"/></svg>