<?xml version="1.0" encoding="UTF-8" standalone="no"?>
<svg
   xmlns:dc="http://purl.org/dc/elements/1.1/"
   xmlns:cc="http://creativecommons.org/ns#"
   xmlns:rdf="http://www.w3.org/1999/02/22-rdf-syntax-ns#"
   xmlns:svg="http://www.w3.org/2000/svg"
   xmlns="http://www.w3.org/2000/svg"
   id="svg26"
   xml:space="preserve"
   viewBox="0 0 1024 768"
   y="0px"
   x="0px"
   version="1.1"><metadata
     id="metadata32"><rdf:RDF><cc:Work
         rdf:about=""><dc:format>image/svg+xml</dc:format><dc:type
           rdf:resource="http://purl.org/dc/dcmitype/StillImage" /></cc:Work></rdf:RDF></metadata><defs
     id="defs30" /><path
     id="path2"
     fill="#737373"
     d="m379.42063 374.35809h-7.18946c-0.79949 0-1.5252 0.65077-1.5252 1.5252v18.72854h-40.50514v-18.72854c0-0.87443-0.65555-1.5252-1.52999-1.5252h-7.18469c-0.79951 0-1.52404 0.65077-1.52404 1.5252v47.76481c0 0.79949 0.72453 1.52402 1.52404 1.52402h7.18469c0.87444 0 1.52999-0.72453 1.52999-1.52402v-18.72854h40.50514v18.72854c0 0.79949 0.72571 1.52402 1.5252 1.52402h7.18946c0.86851 0 1.59306-0.72453 1.59306-1.52402v-47.76481c0-0.87443-0.72455-1.5252-1.59306-1.5252z" /><path
     id="path4"
     fill="#737373"
     d="m457.02118 422.92355l-21.85155-42.17907c-2.24975-4.35553-6.46016-7.47854-11.3261-7.91042-5.80823-0.51041-11.1072 2.46748-13.71864 7.54756l-22.07045 42.54193c-0.50565 1.01722 0.2189 2.24857 1.38124 2.24857h8.12815c0.58059 0 1.09216-0.2879 1.38008-0.79473l20.25258-39.27378c0.94345-1.81787 2.68638-2.03561 3.34191-2.03561s2.39254 0.21773 3.34074 2.03561l20.25374 39.27378c0.28792 0.50683 0.79949 0.79473 1.38008 0.79473h8.12815c1.16234 0 1.88689-1.23134 1.38008-2.24857z" /><path
     id="path6"
     fill="#737373"
     d="m513.55656 374.35809h-8.20309c-0.58059 0-1.09216 0.28908-1.38008 0.79473l-9.00142 15.97315c-1.23612 2.17956-3.55605 3.48586-6.02828 3.48586h-10.67057c-2.54126 0-4.791-1.3063-6.02712-3.48586l-9.0716-15.97315c-0.2189-0.50565-0.72455-0.79473-1.3063-0.79473h-8.27687c-1.16118 0-1.88689 1.3063-1.30514 2.32468l11.03227 19.52803c3.04923 5.37159 8.78368 8.70874 14.95476 8.70874h0.14512v18.72854c0 0.79949 0.65437 1.52402 1.52404 1.52402h7.18946c0.86851 0 1.52404-0.72453 1.52404-1.52402v-18.72854h0.28792c6.17224 0 11.90669-3.33715 14.95592-8.70874l11.03702-19.52803c0.58059-1.01838-0.14396-2.32468-1.38008-2.32468z" /><path
     id="path8"
     fill="#737373"
     d="m579.10171 422.92355l-21.85155-42.17907c-2.24858-4.35553-6.459-7.47854-11.32018-7.91042-5.80939-0.51041-11.1072 2.46748-13.72456 7.54756l-22.06929 42.54193c-0.50681 1.01722 0.21773 2.24857 1.38008 2.24857h8.13291c0.58059 0 1.0874-0.2879 1.38008-0.79473l20.25258-39.27378c0.94345-1.81787 2.68638-2.03561 3.33715-2.03561 0.65553 0 2.39846 0.21773 3.34191 2.03561l20.25258 39.27378c0.29267 0.50683 0.79949 0.79473 1.38008 0.79473h8.13291c1.15759 0 1.88689-1.23134 1.37532-2.24857z" /><path
     id="path10"
     fill="#737373"
     d="m635.96189 414.93935h-35.50001c-3.9225 0-7.18946-3.26697-7.18946-7.18946v-31.8666c0-0.79949-0.65077-1.5252-1.5252-1.5252h-7.18471c-0.79949 0-1.52404 0.72571-1.52404 1.5252v31.8666c0 9.58317 7.84024 17.42223 17.42341 17.42223h35.49642c0.87326 0 1.52879-0.65077 1.52879-1.52402v-7.18471c0-0.87326-0.65553-1.52404-1.52879-1.52404h0.00359z" /><path
     id="path12"
     fill="#737373"
     d="m709.54835 422.92355l-21.85155-42.17907c-2.24982-4.35553-6.46023-7.47854-11.32614-7.91042-5.80939-0.51041-11.1072 2.46748-13.71864 7.54756l-22.07045 42.54193c-0.50681 1.01722 0.2189 2.24857 1.38008 2.24857h8.12815c0.58175 0 1.09216-0.2879 1.38124-0.79473l20.25258-39.27378c0.94348-1.81787 2.68638-2.03561 3.34194-2.03561 0.64954 0 2.39251 0.21773 3.33592 2.03561l20.25853 39.27378c0.28792 0.50683 0.79477 0.79473 1.37532 0.79473h8.13291c1.16118 0 1.88689-1.23134 1.38011-2.24857z" /><path
     id="path14"
     fill="#737373"
     d="m780.42929 374.35809h-7.18471c-0.87319 0-1.59897 0.65077-1.59897 1.5252v40.07328c-5.66067 0-11.54384-9.15013-17.20451-17.93381-7.55112-11.61402-15.31762-23.66467-27.44201-23.66467h-8.70874c-0.79949 0-1.5252 0.65077-1.5252 1.5252v47.76956c0 0.79473 0.72571 1.52404 1.5252 1.52404h7.18471c0.87326 0 1.52404-0.7293 1.52404-1.52404v-40.07445c7.11449 0 13.5045 9.94602 19.67675 19.45425 6.96577 10.88831 14.22542 22.13945 24.96977 22.13945h8.78368c0.79956 0 1.52883-0.72453 1.52883-1.52402v-47.76481c0-0.87443-0.72927-1.5252-1.52883-1.5252z" /><path
     id="path16"
     fill="#737373"
     d="m833.89645 374.35809h-39.27376c-0.79949 0-1.52404 0.72571-1.52404 1.5252v7.18471c0 0.87326 0.72455 1.52404 1.52404 1.52404h39.27376c5.51668 0 9.94602 4.50309 9.94602 10.0198v10.30772c0 5.51671-4.42935 10.0198-9.94602 10.0198h-30.56509v-18.51081c0-0.87326-0.65077-1.52879-1.52396-1.52879h-7.18471c-0.79949 0-1.52404 0.65553-1.52404 1.52879v27.21955c0 0.79949 0.72455 1.52402 1.52404 1.52402h39.27376c11.17735 0 20.25374-9.07158 20.25374-20.25256v-10.30772c0-11.17739-9.07639-20.25374-20.25374-20.25374z" /><path
     id="path18"
     fill="#4285f4"
     d="m221.59623 358.83701c0.12611-0.00476 0.15825 0.00359 0.15825 0.06426 0 0.04164-0.02738 0.29267-0.06544 0.55797-0.03211 0.26054-0.12492 1.10167-0.20343 1.85952-0.08447 0.76144-0.20465 1.98329-0.27483 2.72327-0.069 0.73406-0.163 1.77982-0.2094 2.32352-0.04638 0.53895-0.12967 1.58471-0.19034 2.31877-0.05591 0.73882-0.15825 2.13316-0.22725 3.09923-0.07018 0.96723-0.16298 2.35206-0.21414 3.07661-0.05116 0.72571-0.0928 1.32533-0.09756 1.33008-0.00476 0.00359-0.46875-0.01903-1.03149-0.05591-0.56273-0.03329-1.59897-0.09756-2.3009-0.14396-0.70195-0.04756-1.77506-0.12134-2.38421-0.16774-0.6127-0.0464-1.57517-0.12134-2.13672-0.16774-0.56275-0.0464-1.54306-0.12969-2.17601-0.19036-0.63173-0.05591-1.71913-0.15823-2.40679-0.22725-0.69242-0.07018-1.76554-0.18676-2.38895-0.25578-0.61747-0.07018-1.73819-0.19987-2.48652-0.29267s-1.91426-0.24152-2.5924-0.33432c-0.67933-0.09396-1.66917-0.23317-2.1986-0.3117-0.52942-0.07969-1.57994-0.25103-2.32828-0.37237-0.74833-0.12493-1.86786-0.32481-2.49126-0.44139-0.61747-0.12018-1.60732-0.31529-2.19861-0.44139-0.58534-0.12018-1.43122-0.3117-1.88213-0.41761-0.44614-0.10231-1.17545-0.28432-1.61207-0.39499-0.43662-0.11658-1.06837-0.28908-1.40387-0.38188-0.32955-0.09756-0.93392-0.2784-1.33843-0.4045-0.39974-0.12493-1.041-0.34383-1.42171-0.48303s-0.91608-0.34383-1.19447-0.46041c-0.27364-0.11542-0.72454-0.32005-1.00412-0.45449-0.27364-0.13561-0.67814-0.35334-0.90062-0.48419-0.21891-0.12969-0.53537-0.34383-0.71145-0.46876-0.17251-0.1261-0.42353-0.33432-0.55797-0.46517-0.13445-0.12969-0.33907-0.36286-0.45091-0.52468-0.12492-0.17725-0.24151-0.4045-0.29266-0.58059-0.06901-0.21414-0.08328-0.35334-0.06901-0.55797 0.01785-0.19987 0.06425-0.3581 0.18084-0.59486 0.12017-0.23676 0.24627-0.4045 0.4973-0.65553 0.1856-0.1856 0.52467-0.46041 0.75785-0.61388 0.22724-0.15347 0.6127-0.38072 0.85422-0.50565 0.24627-0.13085 0.68766-0.33548 0.98509-0.46041 0.30219-0.13085 0.84589-0.33907 1.21351-0.46993 0.3712-0.12969 1.01721-0.33907 1.44551-0.46401 0.4271-0.1261 1.1338-0.32121 1.57043-0.43663 0.43662-0.11183 1.07788-0.27005 1.42171-0.34859 0.34382-0.07969 0.9946-0.22365 1.4455-0.31645 0.44614-0.08805 1.11596-0.22365 1.48715-0.29267 0.36762-0.07018 1.11119-0.19987 1.65014-0.29267 0.5437-0.0928 1.41696-0.23317 1.94757-0.31645 0.52942-0.07853 1.45384-0.21414 2.05345-0.29267 0.59486-0.07853 1.56686-0.19987 2.1522-0.27005 0.5901-0.06902 1.50143-0.17609 2.03085-0.232s1.46336-0.15347 2.07249-0.20938c0.60914-0.05951 1.43122-0.13445 1.82146-0.16658 0.39023-0.03805 1.18972-0.10231 1.77982-0.14871 0.58653-0.0464 1.46454-0.11183 1.94757-0.14396 0.48301-0.03805 1.3289-0.09396 1.88213-0.1261 0.55321-0.03689 1.5157-0.0928 2.13316-0.12493 0.62341-0.03805 1.52879-0.08445 2.013-0.10707 0.48301-0.02378 1.55615-0.07018 2.38299-0.10231 0.82804-0.03689 2.22241-0.08329 3.10041-0.10707 0.87326-0.02738 1.74769-0.05116 1.9428-0.05591 0.19987-0.00951 0.42712-0.01427 0.51515-0.01786zm10.30772-32.02958c0.0702 0 0.23796 0.02738 0.37714 0.06426 0.13445 0.03329 0.33907 0.11183 0.45567 0.17725 0.1154 0.06067 0.36643 0.26414 0.55202 0.44614 0.18678 0.1856 0.45567 0.51516 0.59486 0.73406 0.14516 0.21414 0.36287 0.5901 0.48421 0.83638 0.12493 0.24152 0.30696 0.62699 0.40452 0.86016 0.09756 0.22725 0.26887 0.66388 0.3807 0.97082 0.11184 0.30694 0.30694 0.88753 0.42712 1.29679 0.1261 0.40926 0.3355 1.1671 0.46517 1.67751 0.12969 0.51633 0.31527 1.31581 0.41759 1.77982 0.10231 0.46517 0.24271 1.14807 0.31172 1.51568 0.07018 0.36645 0.18083 0.99936 0.25578 1.4027 0.0702 0.39974 0.19987 1.22301 0.29267 1.82263 0.08805 0.59486 0.22367 1.50025 0.28792 2.00707 0.07018 0.50681 0.1951 1.47763 0.27481 2.15694 0.08329 0.67815 0.22249 1.97969 0.31527 2.88509 0.094 0.91131 0.22367 2.34255 0.29267 3.18368 0.0702 0.84113 0.163 2.06414 0.2094 2.71851 0.0464 0.66028 0.12134 1.82738 0.16774 2.59833s0.08805 1.52404 0.0928 1.67275l0.01427 0.27005-0.22841-0.01427c-0.12969-0.00476-0.24627-0.01903-0.26412-0.03213-0.01904-0.00951-1.10169-0.0464-2.40799-0.07969-1.30512-0.03213-3.59653-0.06902-5.09319-0.08805-1.72391-0.01427-3.69051-0.00476-5.35373 0.02854-1.4455 0.02738-2.63522 0.04164-2.64473 0.03213-0.00953-0.00476 0.07018-0.70193 0.1725-1.5383 0.10231-0.84113 0.24152-1.96183 0.31172-2.49126 0.07376-0.52943 0.22247-1.62159 0.33906-2.43059 0.11065-0.80424 0.32005-2.17005 0.45923-3.03496 0.13563-0.85899 0.36287-2.19743 0.4973-2.96954 0.1404-0.77095 0.36287-1.98445 0.50208-2.69948 0.14394-0.7162 0.39974-1.93805 0.57224-2.72327 0.17133-0.78162 0.44614-1.93805 0.60439-2.56979 0.15703-0.63767 0.39021-1.52044 0.5199-1.97134 0.12967-0.44614 0.34859-1.17069 0.48779-1.61208 0.13918-0.43663 0.37714-1.1207 0.52586-1.52404 0.14394-0.4045 0.36168-0.95771 0.47826-1.23612 0.1166-0.27481 0.34859-0.78638 0.5199-1.13021 0.17251-0.34859 0.43783-0.83162 0.59486-1.07789 0.15347-0.24627 0.39974-0.59962 0.54846-0.78522s0.39143-0.44139 0.54014-0.56273c0.14871-0.12493 0.35692-0.27365 0.46875-0.33432 0.10707-0.05591 0.29743-0.13445 0.42354-0.16774 0.12492-0.03213 0.28314-0.05951 0.35214-0.06426zm2.07369-8.59332c-0.08447-0.00951-0.27007 0-0.41879 0.01427-0.15347 0.01786-0.36763 0.06067-0.48303 0.10231-0.11658 0.03689-0.32599 0.13445-0.46993 0.21298-0.14396 0.07969-0.41761 0.27481-0.60795 0.42828-0.19156 0.15823-0.46519 0.42712-0.6139 0.59486-0.14871 0.17133-0.36761 0.44139-0.48779 0.60437-0.12134 0.16182-0.37714 0.53895-0.56273 0.83638-0.1856 0.30219-0.52468 0.91015-0.74833 1.36105-0.22249 0.44614-0.55323 1.15759-0.7293 1.5716-0.17727 0.41285-0.44139 1.08265-0.59486 1.48239-0.15347 0.40334-0.43663 1.20282-0.62697 1.77982-0.19156 0.57583-0.4747 1.47288-0.62817 1.9892-0.15347 0.51992-0.41283 1.45861-0.58535 2.09036-0.16776 0.63767-0.43188 1.68226-0.58535 2.32468-0.15347 0.64602-0.39974 1.71915-0.5437 2.38779-0.14871 0.66504-0.36286 1.67391-0.47946 2.24023-0.1154 0.56273-0.31052 1.57995-0.44139 2.25926-0.12492 0.67815-0.33906 1.88689-0.47826 2.67687-0.1392 0.79473-0.36287 2.17956-0.50206 3.0802-0.1392 0.89704-0.32956 2.16646-0.42236 2.82558-0.09278 0.65553-0.2415 1.76671-0.3355 2.46864-0.09278 0.70077-0.25103 1.96542-0.35214 2.8018-0.10231 0.84113-0.22843 1.91902-0.27958 2.3937l-0.09756 0.86375-0.54846 0.02378c-0.29743 0.01427-1.041 0.03689-1.65371 0.05116-0.60915 0.00951-1.67395 0.04164-2.36635 0.06067-0.68766 0.02262-1.73342 0.05951-2.32352 0.08329-0.58535 0.02378-1.65846 0.07018-2.38419 0.10707-0.72455 0.03213-1.97969 0.10231-2.78395 0.14396-0.80305 0.0464-1.89522 0.11183-2.42583 0.14871-0.52942 0.03689-1.47287 0.10231-2.0951 0.14871-0.62341 0.0464-1.79885 0.1392-2.61738 0.20938-0.81734 0.06902-1.97494 0.17133-2.57455 0.22725-0.59486 0.05591-1.79291 0.18085-2.65783 0.27481-0.86017 0.0928-2.32352 0.25938-3.24436 0.37596-0.91966 0.11658-2.25809 0.29267-2.96954 0.39499-0.71502 0.10231-1.83573 0.27481-2.49008 0.38072-0.65553 0.10231-1.7477 0.29267-2.43059 0.41401-0.67933 0.12493-1.6549 0.3117-2.1748 0.41877-0.51634 0.10591-1.39435 0.29743-1.94757 0.42236-0.55322 0.12969-1.36223 0.32481-1.80361 0.43663-0.44139 0.11183-1.204 0.32121-1.69654 0.46041s-1.3658 0.41401-1.94162 0.60437c-0.57701 0.19036-1.36698 0.47352-1.75721 0.63175-0.39023 0.15347-1.01721 0.42712-1.38483 0.60437-0.37238 0.17609-0.86492 0.43188-1.09216 0.56632-0.22366 0.13085-0.58058 0.3581-0.78997 0.50206-0.20463 0.14396-0.52109 0.38547-0.69717 0.53895s-0.43662 0.42352-0.57582 0.59486c-0.14038 0.17725-0.31171 0.42828-0.37714 0.55797s-0.15347 0.34859-0.19035 0.48303c-0.05591 0.18676-0.07019 0.34859-0.05116 0.68882 0.01428 0.35694 0.04164 0.49614 0.13444 0.73406 0.06543 0.16182 0.18203 0.39974 0.26531 0.52468 0.07852 0.1261 0.24627 0.35334 0.36762 0.50681 0.12492 0.15347 0.39974 0.42712 0.6127 0.60913 0.21415 0.1856 0.54847 0.44614 0.74357 0.58535 0.19512 0.1392 0.54847 0.37121 0.78522 0.51041 0.23794 0.14512 0.67933 0.39139 0.98628 0.54846 0.301 0.15823 0.83637 0.41401 1.1802 0.56748s0.89229 0.38072 1.21232 0.51157c0.32123 0.12493 0.92084 0.35334 1.33843 0.50206 0.41402 0.14871 1.15284 0.39023 1.63586 0.5437 0.48303 0.14871 1.33843 0.39974 1.90593 0.56157 0.56155 0.15823 1.61683 0.44139 2.34255 0.6234 0.72454 0.18085 1.82622 0.44139 2.44845 0.58059 0.62341 0.1392 1.65013 0.3581 2.28188 0.48779 0.63174 0.1261 1.71557 0.33432 2.40323 0.46517 0.69242 0.12493 1.87261 0.32956 2.62571 0.45566 0.74833 0.12493 1.99278 0.32005 2.76015 0.43663 0.77094 0.11066 1.95233 0.28316 2.63523 0.37596 0.67814 0.0928 1.82621 0.24152 2.55075 0.33432 0.72573 0.0928 1.90117 0.23317 2.61738 0.31645 0.71503 0.07853 1.82622 0.20463 2.46748 0.27005 0.64602 0.06902 1.66323 0.17133 2.26284 0.232 0.59962 0.05591 1.71913 0.16298 2.49126 0.232 0.77095 0.06543 1.99398 0.1725 2.71851 0.22841 0.72453 0.05475 1.97018 0.15347 2.76491 0.20822 0.79473 0.05591 1.97969 0.13561 2.63522 0.1725 0.65553 0.04164 1.20874 0.08329 1.22659 0.10231 0.0238 0.01786 0.00953 0.60437-0.02736 1.30154-0.03687 0.70077-0.08805 1.86311-0.11183 2.59241-0.0226 0.72571-0.06544 2.17481-0.0928 3.22057-0.03213 1.2135-0.05116 4.17828-0.05116 8.1662 0 4.0617 0.01903 6.89563 0.05116 8.077 0.02736 0.99936 0.07496 2.35565 0.09756 3.01118 0.01903 0.66028 0.0702 1.86311 0.10231 2.68162 0.03689 0.81735 0.0928 2.02134 0.12492 2.67687 0.03807 0.66028 0.10231 1.8072 0.14871 2.55553 0.0476 0.74833 0.13087 1.9892 0.18678 2.76132 0.05593 0.77095 0.1618 2.06298 0.232 2.86722 0.0702 0.80784 0.19036 2.10938 0.27007 2.8946 0.07851 0.78164 0.20819 2.00823 0.29266 2.71849 0.08329 0.71146 0.22725 1.86905 0.31529 2.57099 0.09278 0.70073 0.24625 1.78458 0.3355 2.40679 0.09278 0.62341 0.27839 1.78933 0.41759 2.59835 0.13443 0.80305 0.35334 1.99752 0.47826 2.65307 0.13087 0.65553 0.33074 1.60849 0.44614 2.11412 0.11184 0.50683 0.30696 1.32059 0.43306 1.80362 0.12493 0.48301 0.32956 1.23612 0.45567 1.67273 0.12967 0.43783 0.36643 1.18972 0.52942 1.67395 0.16656 0.48301 0.41403 1.15641 0.54846 1.49546 0.13445 0.34027 0.37121 0.88397 0.52468 1.21352 0.15823 0.32956 0.36761 0.74833 0.46993 0.93393 0.09756 0.18558 0.32481 0.55321 0.50208 0.81853 0.22247 0.33906 0.45446 0.61746 0.79829 0.96129 0.39143 0.39023 0.54846 0.51633 0.82329 0.66028 0.1856 0.0928 0.4509 0.20463 0.58535 0.23676 0.13443 0.03687 0.34859 0.06543 0.47826 0.06543 0.13087 0 0.3819-0.03687 0.55323-0.07971 0.17725-0.04638 0.41877-0.13443 0.53893-0.1951 0.12611-0.05949 0.32123-0.18085 0.43783-0.25936 0.11063-0.08447 0.32954-0.2558 0.4735-0.3819 0.14871-0.12969 0.41879-0.41283 0.59962-0.63175 0.1856-0.21891 0.49254-0.6365 0.6829-0.9244 0.19036-0.28436 0.4973-0.78642 0.67457-1.10645 0.18083-0.32479 0.49254-0.93393 0.68764-1.36223 0.19989-0.4271 0.5437-1.22659 0.76619-1.77982 0.2189-0.55202 0.52108-1.3515 0.6698-1.78458 0.15349-0.4271 0.41283-1.22659 0.58535-1.7798 0.17132-0.54846 0.44139-1.44908 0.59486-2.00229 0.15347-0.55323 0.44614-1.66442 0.64602-2.46868 0.20463-0.80782 0.50206-2.05821 0.66386-2.78274 0.163-0.72573 0.39974-1.82742 0.52586-2.44964 0.12492-0.62222 0.31527-1.57519 0.41759-2.11412 0.10231-0.53895 0.28434-1.52523 0.39974-2.18434 0.1166-0.66028 0.31647-1.84525 0.44614-2.63522 0.12611-0.78997 0.36287-2.35206 0.5211-3.46684 0.15823-1.1207 0.4045-2.92789 0.53895-4.02005 0.1392-1.09216 0.33432-2.74229 0.44139-3.66196 0.10231-0.92083 0.26054-2.43059 0.35334-3.35142 0.0928-0.91966 0.22723-2.3045 0.29743-3.07661 0.0702-0.77095 0.17132-1.96542 0.22723-2.65784 0.05593-0.68766 0.15349-1.90592 0.2094-2.69948 0.06067-0.79473 0.15347-2.15694 0.20938-3.02545 0.05591-0.87443 0.10707-1.58946 0.1166-1.59422 0.00356-0.00951 1.05409 0.01786 2.32828 0.05591 1.27299 0.03689 2.3235 0.05475 2.33303 0.04164 0.00356-0.00951-0.14871-0.37712-0.34383-0.81376-0.19631-0.43663-0.84589-1.87738-1.4455-3.20154-0.59963-1.32533-1.41815-3.13252-1.81313-4.02005-0.39974-0.88753-1.1338-2.51388-1.63111-3.62031-0.50206-1.10643-0.91489-2.01658-0.92442-2.02134-0.00476-0.00951-0.20463 0.34859-0.44139 0.79473-0.23794 0.44614-0.90656 1.70013-1.49666 2.79704-0.58535 1.09216-1.71913 3.21105-2.51864 4.70771-0.79949 1.49666-1.72033 3.21581-2.04512 3.82018-0.32599 0.60437-0.5901 1.11594-0.5901 1.13856 0 0.01903 0.31527 0.0464 0.70193 0.06067 0.38547 0.01427 1.36581 0.0464 2.18434 0.07018 0.81733 0.02738 1.4919 0.05475 1.50022 0.05951 0.00953 0.00951-0.04163 0.90656-0.1154 1.99872-0.07494 1.0874-0.18678 2.69589-0.25578 3.56915-0.07018 0.87326-0.1725 2.13792-0.22843 2.80296-0.05947 0.66864-0.15227 1.71439-0.20819 2.32352-0.06069 0.61272-0.163 1.66799-0.2332 2.34614-0.069 0.67931-0.20463 1.90116-0.29266 2.71851-0.0928 0.81851-0.2558 2.16646-0.35812 2.99332-0.10112 0.83162-0.26412 2.04512-0.35214 2.70065-0.094 0.65437-0.23318 1.63586-0.31647 2.17956-0.08327 0.53895-0.24152 1.54666-0.35334 2.23907-0.1166 0.69242-0.31172 1.82263-0.43663 2.51504-0.12611 0.68766-0.35334 1.85835-0.50206 2.59717-0.15347 0.74357-0.38072 1.80836-0.50681 2.36635-0.12969 0.55677-0.34859 1.4681-0.48779 2.02132-0.1392 0.55323-0.39023 1.49668-0.56275 2.09154-0.17132 0.59962-0.4497 1.50499-0.61746 2.01181-0.17251 0.50681-0.41401 1.18496-0.53895 1.50619-0.1261 0.32003-0.34383 0.84945-0.48777 1.17067-0.14396 0.32479-0.36763 0.78522-0.49254 1.02673-0.13087 0.2415-0.34027 0.60437-0.46043 0.79949-0.12134 0.19987-0.35334 0.52942-0.51157 0.73404-0.15825 0.20465-0.39023 0.46994-0.51515 0.58654-0.12611 0.12016-0.34027 0.2879-0.4747 0.37119-0.12969 0.08805-0.34383 0.19036-0.46519 0.23676-0.13443 0.04638-0.3343 0.07494-0.51515 0.07494-0.18558 0-0.3807-0.02856-0.5211-0.07971-0.12492-0.04163-0.32003-0.13918-0.43186-0.21296-0.10707-0.07969-0.31647-0.26054-0.46043-0.40926-0.14394-0.14396-0.37119-0.43186-0.50562-0.63175-0.13564-0.19987-0.35812-0.58533-0.4973-0.86491-0.1404-0.27363-0.35336-0.73406-0.4747-1.0172-0.1154-0.28436-0.34383-0.90658-0.50683-1.38008-0.15703-0.4747-0.37594-1.204-0.49254-1.61802-0.11063-0.41403-0.30219-1.16116-0.41759-1.65371-0.11658-0.4973-0.30694-1.3765-0.41877-1.94758-0.1154-0.57701-0.29267-1.55257-0.39974-2.17479-0.10233-0.62341-0.2558-1.58471-0.33432-2.13318-0.07851-0.55321-0.22247-1.60849-0.31172-2.3473-0.09278-0.73406-0.22723-1.86787-0.29743-2.50911-0.069-0.64603-0.18083-1.77624-0.25103-2.51506-0.069-0.73406-0.17132-1.93329-0.22723-2.65784-0.06067-0.72455-0.14396-1.89165-0.19036-2.59358s-0.11183-1.75604-0.14871-2.34614c-0.03331-0.58651-0.08803-1.66916-0.12611-2.40322-0.03211-0.73882-0.07851-1.81195-0.10231-2.38895-0.0226-0.57583-0.05947-1.65848-0.08327-2.40681-0.0226-0.74833-0.06544-2.2545-0.0928-3.34666-0.0238-1.09692-0.0464-4.13547-0.0464-6.76118s0.0226-5.7725 0.0464-6.98959c0.02736-1.22301 0.0702-2.85887 0.08805-3.64409 0.02378-0.78046 0.06067-1.82622 0.08803-2.32352 0.0238-0.49254 0.05593-1.01722 0.06544-1.16118l0.0238-0.26054h0.34381c0.1856 0 0.86851 0.02738 1.50977 0.06543 0.64602 0.03689 1.18019 0.07853 1.18972 0.08805 0.01427 0.00951-0.00953 1.05411-0.0464 2.32828-0.03689 1.26825-0.06069 2.31401-0.05116 2.32352 0.00476 0.00476 1.8726-0.84589 4.14617-1.8964 2.27712-1.05052 5.34896-2.46748 6.83135-3.15039 1.47763-0.67931 2.6864-1.25039 2.6864-1.26466 0-0.00951-0.64602-0.34859-1.43243-0.75309-0.78997-0.39974-2.65782-1.35154-4.15448-2.11414-1.49668-0.76619-3.85707-1.97018-5.24666-2.67687-1.38959-0.71144-2.53766-1.27776-2.55075-1.26349-0.01429 0.01786-0.05593 1.00295-0.094 2.19267l-0.05949 2.16646-0.1725 0.01311c-0.08805 0.00951-0.7531-0.01786-1.47288-0.05951l-1.3063-0.07494v-0.14871c0-0.08329 0.02856-0.67815 0.06067-1.31941 0.03689-0.64602 0.0928-1.64537 0.12492-2.22121 0.03807-0.577 0.10231-1.59422 0.14871-2.25926 0.0476-0.66864 0.13087-1.8072 0.18678-2.53291 0.05949-0.72455 0.17133-2.09152 0.2558-3.03496 0.07851-0.94345 0.23674-2.6626 0.34859-3.82378 0.11065-1.15759 0.2082-2.11054 0.21772-2.12006s0.88278-0.03213 1.9428-0.06067c1.05529-0.02262 2.9969-0.0464 4.30797-0.0464 1.31463 0 3.44424 0.01903 4.73151 0.04281 1.29203 0.02262 2.87198 0.06426 3.518 0.08805 0.64124 0.02738 1.27299 0.06067 1.3979 0.07378l0.23318 0.02854 0.00953 0.31054c0.00831 0.1725 0.04163 0.77211 0.07376 1.33008 0.03689 0.55205 0.06543 1.07789 0.06543 1.16118v0.1725h-2.01299c-1.10525 0-2.00707 0.01311-2.00707 0.03213 0 0.01427 0.40452 0.88753 0.89704 1.93329 0.49254 1.05052 1.71439 3.64885 2.71375 5.77726 0.99936 2.13316 2.00349 4.26992 2.23072 4.75412 0.22247 0.48303 0.41879 0.89229 0.43663 0.91015 0.01427 0.01903 0.36286-0.67815 0.77213-1.54666 0.40806-0.87443 1.24087-2.63998 1.84405-3.92725 0.60439-1.28728 1.57995-3.36093 2.16648-4.6054 0.58535-1.24087 1.17069-2.49126 1.30036-2.76967 0.13087-0.27957 0.23796-0.52108 0.23796-0.53535 0-0.01311-0.98985-0.02262-2.19861-0.02262s-2.19861-0.00476-2.19861-0.00951c-0.00476-0.00951-0.01785-0.52943-0.04163-1.16234-0.0226-0.63175-0.05591-1.25874-0.07378-1.39435l-0.03807-0.23676h0.19631c0.10112 0 0.82209 0.02854 1.59302 0.06067 0.77213 0.03689 1.9666 0.0928 2.65426 0.1261 0.69242 0.03689 1.73818 0.0928 2.32352 0.12493 0.5901 0.03689 1.50975 0.0928 2.05465 0.12493 0.53895 0.03805 1.52879 0.10231 2.19741 0.14871 0.66504 0.04756 1.91069 0.14512 2.76014 0.20938 0.85066 0.07018 2.27356 0.19036 3.16108 0.27481 0.88753 0.07853 2.24381 0.21298 3.01594 0.29267 0.77095 0.07853 1.97494 0.20938 2.67687 0.29267 0.70193 0.07853 1.71915 0.20463 2.2581 0.26889 0.54368 0.07018 1.46928 0.19628 2.05463 0.27481s1.50975 0.21414 2.04989 0.29267c0.5437 0.07853 1.45384 0.22365 2.03085 0.31645 0.57582 0.0928 1.57517 0.25938 2.21643 0.37596 0.64602 0.11183 1.74771 0.32121 2.44844 0.46041 0.70195 0.1392 1.73818 0.3581 2.30092 0.48303 0.56273 0.1261 1.44075 0.32956 1.94756 0.46041 0.50683 0.12493 1.18972 0.30219 1.51452 0.39499 0.32599 0.08805 0.98032 0.28316 1.46455 0.43188 0.48301 0.14871 1.20279 0.39499 1.60731 0.5437 0.4045 0.14396 0.98507 0.37237 1.29679 0.50681 0.3117 0.12969 0.83638 0.37596 1.16712 0.54846 0.32954 0.17133 0.78044 0.43188 1.00293 0.58059 0.22365 0.14396 0.53893 0.38072 0.70193 0.52108 0.16298 0.13445 0.39023 0.37121 0.4973 0.51516 0.11183 0.14396 0.25103 0.36761 0.3117 0.49254 0.0928 0.19987 0.10709 0.28792 0.10709 0.62815 0 0.35694-0.01429 0.42712-0.13087 0.66864-0.06902 0.15347-0.22249 0.39023-0.33907 0.52943-0.1166 0.14036-0.32956 0.34859-0.47828 0.46517-0.14396 0.11658-0.39499 0.29743-0.55797 0.4045-0.16298 0.11183-0.51634 0.3117-0.78522 0.44614-0.27005 0.1392-0.71144 0.34859-0.98509 0.46401-0.27005 0.11658-0.78164 0.31645-1.13856 0.44255-0.3581 0.12493-0.96247 0.32481-1.33843 0.43663-0.3819 0.11542-1.16234 0.32956-1.73818 0.47828-0.57701 0.14396-1.48715 0.3581-2.03085 0.47468-0.53893 0.11542-1.4455 0.29743-2.00823 0.39974-0.56632 0.10115-1.43123 0.25462-1.92854 0.33432-0.49254 0.07853-1.41697 0.22249-2.05345 0.31529-0.63295 0.08921-1.66917 0.23317-2.30092 0.3117-0.63175 0.08329-1.73342 0.21414-2.44486 0.29267-0.71504 0.07969-1.78935 0.19512-2.38777 0.25103-0.59962 0.06067-1.62277 0.15347-2.28188 0.21414-0.65555 0.05591-1.82265 0.14871-2.59359 0.20463-0.77213 0.05951-1.99872 0.14396-2.72327 0.19036-0.72573 0.0464-2.03085 0.12493-2.90052 0.17133-0.87326 0.04281-1.66799 0.08445-1.77031 0.08445h-0.1856v-4.0153l-2.45915 1.21709c-1.3515 0.6698-3.08136 1.52404-3.84278 1.8964-0.75784 0.37596-2.63998 1.3063-4.18304 2.06774-1.5383 0.7626-2.78871 1.39435-2.77918 1.40861 0.00951 0.00951 0.4973 0.23676 1.08263 0.50206 0.58654 0.26889 2.51031 1.14332 4.26633 1.9464 1.76198 0.79949 4.32226 1.96659 5.68925 2.58882 1.36579 0.6234 2.49006 1.1338 2.49959 1.1338 0.00951 0 0.01903-0.99936 0.01903-2.21645v-2.21645h0.12493c0.07018 0 0.64602-0.03329 1.28726-0.06543 0.6377-0.03213 1.64064-0.0928 2.22596-0.12493 0.5913-0.03805 1.74771-0.11183 2.57575-0.1725 0.8316-0.05591 2.09985-0.14871 2.82438-0.20463 0.72573-0.06067 1.93449-0.16298 2.68162-0.232 0.74835-0.07018 1.64064-0.15347 1.98922-0.19036 0.34381-0.03329 1.31581-0.13561 2.15694-0.22841 0.83638-0.0928 2.12841-0.24627 2.86722-0.33432 0.73406-0.0928 2.11889-0.2784 3.07661-0.41877 0.95298-0.13445 2.46272-0.37121 3.34548-0.51992 0.88753-0.14871 2.06416-0.3581 2.61739-0.46041 0.55202-0.10707 1.32415-0.26054 1.71438-0.33907 0.39499-0.08329 1.16592-0.25103 1.71915-0.38072 0.55321-0.1261 1.43122-0.33907 1.95707-0.47944 0.52468-0.1392 1.32416-0.36169 1.77982-0.4973 0.45566-0.13445 1.18496-0.36645 1.62159-0.51516 0.43661-0.14871 1.06003-0.37237 1.38006-0.50206 0.32123-0.12493 0.86969-0.35334 1.21352-0.50681s0.87326-0.40926 1.17069-0.57108c0.29743-0.16298 0.72095-0.41401 0.93867-0.55797 0.22367-0.14396 0.5675-0.39974 0.77213-0.56748 0.20465-0.17133 0.48303-0.44614 0.62699-0.61272 0.14396-0.16774 0.32123-0.4045 0.39974-0.53419 0.07496-0.1261 0.1856-0.36761 0.24152-0.53059 0.05591-0.16658 0.11658-0.42712 0.12611-0.58059 0.01307-0.17609 0-0.39023-0.04164-0.58535-0.03807-0.16774-0.13087-0.44139-0.2094-0.60437-0.07969-0.16774-0.23794-0.42236-0.35334-0.57583-0.11183-0.14871-0.3807-0.44139-0.59962-0.64602-0.21891-0.20938-0.54846-0.48419-0.72929-0.61388-0.18203-0.12969-0.53063-0.36286-0.77213-0.51633-0.24152-0.14871-0.7531-0.43188-1.12905-0.62699-0.38072-0.19036-0.88753-0.43663-1.1338-0.54846-0.23674-0.10707-0.73406-0.31645-1.09692-0.46401-0.36286-0.14512-1.05052-0.4045-1.52879-0.577-0.47826-0.17133-1.27299-0.43663-1.76673-0.5901-0.4961-0.15347-1.26823-0.38072-1.71913-0.50681-0.44614-0.12969-1.39912-0.38072-2.10938-0.55797-0.7162-0.18085-1.81789-0.44498-2.44962-0.58535-0.6365-0.14396-1.64062-0.36169-2.24023-0.48303-0.59963-0.12493-1.59424-0.32005-2.2117-0.43663-0.61866-0.11658-1.71913-0.31645-2.44964-0.44614-0.72929-0.1261-2.11888-0.34859-3.08492-0.4973-0.96724-0.14871-2.37944-0.3581-3.1373-0.46041-0.7626-0.10231-1.7572-0.232-2.21643-0.29267-0.46519-0.05591-1.39436-0.17133-2.07369-0.25103-0.67813-0.07853-2.03561-0.232-3.01592-0.33432-0.97558-0.10231-2.48652-0.25578-3.3455-0.33432-0.86491-0.08445-2.35206-0.21414-3.30979-0.29267-0.95653-0.08445-2.39728-0.19512-3.20152-0.25103-0.80424-0.06067-2.20692-0.15347-3.11825-0.21414-0.91133-0.05591-2.53766-0.14871-3.62031-0.20463-1.08265-0.06067-2.73278-0.13445-3.66196-0.17133-0.93393-0.03805-1.71913-0.07494-1.74293-0.08445-0.02736-0.00951-0.05591-0.26414-0.07376-0.71504-0.01904-0.39023-0.05593-1.19923-0.094-1.79409-0.03211-0.59962-0.08803-1.54306-0.12016-2.09628-0.03687-0.55321-0.10231-1.52879-0.14871-2.17481s-0.12967-1.74769-0.19036-2.44962c-0.05591-0.70077-0.14871-1.78458-0.20938-2.40681-0.05591-0.62223-0.14871-1.57995-0.20938-2.13316-0.05591-0.55321-0.17132-1.57995-0.25103-2.28188-0.07853-0.70193-0.22249-1.84049-0.31527-2.53291-0.08924-0.69242-0.22367-1.64062-0.29387-2.11414-0.069-0.47468-0.19036-1.26466-0.26887-1.7572-0.07851-0.4973-0.23199-1.38008-0.33432-1.97018-0.10707-0.58535-0.30694-1.62159-0.44137-2.3009-0.1404-0.67815-0.34383-1.63111-0.46043-2.11414-0.11183-0.48303-0.29267-1.19923-0.39499-1.58946-0.10707-0.39023-0.28314-1.02673-0.39974-1.40861-0.11183-0.38072-0.32123-1.03149-0.46041-1.43958-0.1392-0.40926-0.37596-1.05527-0.52468-1.43599-0.15347-0.38664-0.43186-1.01838-0.62341-1.40861-0.19034-0.39023-0.45446-0.89229-0.59008-1.11119-0.12969-0.21773-0.36643-0.57108-0.52468-0.78046-0.15347-0.21414-0.42354-0.52468-0.5901-0.69242-0.1725-0.17133-0.44137-0.39499-0.60437-0.50681-0.16298-0.10231-0.3807-0.22725-0.47826-0.26889-0.10231-0.0464-0.28434-0.10231-0.39499-0.1261-0.1166-0.02262-0.27483-0.05116-0.35812-0.06067l0.00953-0.02738z" /><path
     id="path20"
     fill="#db4437"
     d="m221.56411 374.84229c0.03689-0.64605 0.0928-1.64537 0.1249-2.22121 0.03812-0.577 0.10231-1.59425 0.14871-2.25926 0.04764-0.66864 0.13092-1.80723 0.18684-2.53294 0.05947-0.72455 0.1713-2.09152 0.25575-3.03493 0.07857-0.94348 0.2368-2.66263 0.34862-3.82381 0.11066-1.15755 0.20819-2.11054 0.2177-2.12006l0.1392-1.1195c-0.00951-0.00479 0.07022-0.70197 0.17253-1.53834 0.10231-0.8411 0.24152-1.96183 0.31166-2.49126 0.07378-0.52943 0.22249-1.62156 0.33911-2.43056 0.11059-0.80428 0.32001-2.17009 0.45921-3.035 0.13564-0.85896 0.36286-2.19739 0.49726-2.9695 0.14044-0.77095 0.36293-1.98448 0.50213-2.69952 0.14392-0.7162 0.39974-1.93801 0.5722-2.72327 0.17137-0.78162 0.44614-1.93801 0.60437-2.56976 0.15707-0.6377 0.39023-1.52048 0.51992-1.97134 0.12969-0.44614 0.34862-1.17069 0.48782-1.61212 0.13913-0.43663 0.37709-1.12066 0.5258-1.52404 0.14399-0.40446 0.36169-0.95771 0.47831-1.23612 0.11655-0.27477 0.34855-0.78634 0.51985-1.13017 0.17253-0.34862 0.43787-0.83166 0.59486-1.07789 0.15351-0.24631 0.39974-0.59965 0.54846-0.78525s0.39147-0.44135 0.54018-0.56269c0.14871-0.12497 0.3569-0.27368 0.46873-0.33432 0.10711-0.05591 0.29743-0.13448 0.42356-0.16774 0.1249-0.03217 0.28312-0.05954 0.35211-0.06426 0.07022 0 0.23796 0.02738 0.37716 0.06426 0.13448 0.03326 0.33911 0.11183 0.45566 0.17725 0.11546 0.06063 0.36649 0.2641 0.55202 0.44614 0.18684 0.1856 0.45573 0.51513 0.59486 0.73406 0.14516 0.21414 0.36293 0.59007 0.48427 0.83638 0.1249 0.24152 0.30694 0.62695 0.40446 0.86012 0.09759 0.22728 0.26889 0.66392 0.38072 0.97086s0.30694 0.8875 0.42712 1.29675c0.12613 0.40926 0.33548 1.16713 0.46517 1.67754 0.12969 0.51629 0.31529 1.31578 0.41761 1.77978 0.10231 0.46517 0.24268 1.14811 0.31173 1.51568 0.07015 0.36649 0.18081 0.99939 0.25575 1.4027 0.07022 0.39974 0.19991 1.22305 0.29271 1.82263 0.08801 0.59486 0.22365 1.50029 0.28792 2.00707 0.07015 0.50685 0.19504 1.47763 0.27477 2.15694 0.08329 0.67815 0.22249 1.97969 0.31529 2.88512 0.09396 0.91131 0.22365 2.34255 0.29264 3.18364 0.07022 0.84117 0.16302 2.06414 0.20942 2.71855 0.0464 0.66028 0.12134 1.82735 0.16774 2.5983s0.08808 1.52404 0.0928 1.67275l0.01431 0.27005 0.00951 1.4027c0.00828 0.17253 0.04161 0.77211 0.07378 1.33008 0.03689 0.55209 0.06543 1.07789 0.06543 1.16118v0.17253h-2.01302c-1.10527 0-2.00707 0.01307-2.00707 0.0321 0 0.01431 0.40454 0.88757 0.89708 1.93329 0.49254 1.05052 1.71436 3.64888 2.71375 5.77729 0.99932 2.13313 2.00344 4.26988 2.23072 4.75408 0.22242 0.48303 0.41877 0.89229 0.43663 0.91015 0.01423 0.01903 0.36286-0.67815 0.77211-1.54662 0.40802-0.87443 1.24084-2.63998 1.84405-3.92729 0.60437-1.28724 1.57995-3.36089 2.16646-4.60536 0.58535-1.24091 1.17069-2.49126 1.30038-2.76967 0.13085-0.27957 0.23796-0.52108 0.23796-0.53539 0-0.01307-0.98988-0.02258-2.19863-0.02258s-2.19863-0.00479-2.19863-0.00951c-0.00472-0.00951-0.01779-0.52943-0.04161-1.16234-0.02258-0.63175-0.05591-1.25877-0.07378-1.39435l-0.03805-0.2368h0.19628l-0.02854-1.23612c-0.02738-0.00951-0.05591-0.2641-0.07378-0.71504-0.01903-0.39023-0.05591-1.19923-0.09396-1.79409-0.0321-0.59958-0.08801-1.54306-0.12018-2.09624-0.03689-0.55325-0.10231-1.52883-0.14871-2.17481-0.0464-0.64605-0.12969-1.74769-0.19032-2.44965-0.05591-0.70073-0.14871-1.78458-0.20942-2.40681-0.05591-0.62223-0.14871-1.57995-0.20935-2.13313-0.05591-0.55325-0.17137-1.57995-0.25103-2.28191-0.07857-0.70189-0.22249-1.84049-0.31529-2.53287-0.08924-0.69245-0.22365-1.64065-0.29387-2.11417-0.06898-0.47468-0.1904-1.26466-0.26889-1.7572-0.0785-0.49726-0.232-1.38004-0.33432-1.97018-0.10703-0.58535-0.30694-1.62156-0.44135-2.30087-0.14044-0.67815-0.34383-1.63114-0.46045-2.11417-0.11183-0.48303-0.29264-1.19923-0.39495-1.58946-0.10711-0.39023-0.2832-1.0267-0.39974-1.40858-0.11183-0.38072-0.32125-1.03149-0.46045-1.43958-0.1392-0.40926-0.37593-1.05531-0.52464-1.43603-0.15351-0.3866-0.43191-1.01835-0.62347-1.40858-0.19032-0.39023-0.45442-0.89229-0.59007-1.11122-0.12969-0.2177-0.36641-0.57104-0.52464-0.78046-0.15351-0.21414-0.42356-0.52464-0.59014-0.69238-0.17246-0.17137-0.44135-0.39502-0.60437-0.50685-0.16295-0.10231-0.38072-0.22721-0.47824-0.26889-0.10231-0.0464-0.28436-0.10231-0.39502-0.12606-0.11655-0.02266-0.27477-0.05119-0.35806-0.06071l0.00951-0.02738c-0.08445-0.00951-0.27005 0-0.41877 0.01431-0.15351 0.01786-0.36765 0.06063-0.48303 0.10231-0.11662 0.03689-0.32604 0.13441-0.46996 0.21298-0.14392 0.07966-0.41761 0.27477-0.60793 0.42828-0.19156 0.15823-0.46517 0.42712-0.61388 0.59486-0.14871 0.1713-0.36765 0.44135-0.48782 0.60437-0.12134 0.16179-0.37716 0.53895-0.56269 0.83638-0.1856 0.30215-0.52471 0.91015-0.74837 1.36102-0.22249 0.44614-0.55325 1.15762-0.72927 1.5716-0.17732 0.41289-0.44142 1.08268-0.59486 1.48243-0.15351 0.4033-0.43663 1.20279-0.62703 1.77978-0.19156 0.57583-0.47468 1.47291-0.62812 1.9892-0.15351 0.51992-0.41289 1.45861-0.58535 2.09036-0.16781 0.6377-0.43191 1.68226-0.58535 2.32468-0.15351 0.64605-0.39974 1.71915-0.54374 2.38779-0.14871 0.66508-0.36286 1.67391-0.47947 2.24023-0.11538 0.56276-0.3105 1.57995-0.44135 2.25926-0.1249 0.67815-0.33904 1.88689-0.47824 2.67687-0.1392 0.79477-0.36293 2.1796-0.50206 3.08024-0.1392 0.89701-0.3296 2.16646-0.4224 2.82558-0.0928 0.65549-0.24152 1.76671-0.33548 2.46861-0.0928 0.7008-0.25103 1.96546-0.35218 2.80183-0.10231 0.8411-0.22837 1.91899-0.27957 2.39367l-0.09752 0.86375-0.14871 1.29682c0 0.04161-0.02738 0.29264-0.0655 0.55797-0.0321 0.26054-0.1249 1.10164-0.20339 1.85952-0.08445 0.76144-0.20463 1.98325-0.27485 2.72327-0.06898 0.73406-0.16302 1.77978-0.20942 2.32352-0.04633 0.53895-0.12962 1.58467-0.19032 2.31873-0.05591 0.73885-0.15823 2.1332-0.22721 3.09926-0.07022 0.96723-0.16302 2.35206-0.21414 3.07661-0.05119 0.72571-0.0928 1.32529-0.09759 1.33008l1.2314-0.02854c0-0.08329 0.02854-0.67815 0.06063-1.31941z" /><path
     id="path22"
     fill="#0f9d58"
     d="m245.77252 391.39602c-0.59965-1.32536-1.41816-3.13252-1.81311-4.02009-0.39974-0.8875-1.1338-2.51385-1.63114-3.62027-0.50206-1.10643-0.91487-2.01658-0.92438-2.02137-0.00479-0.00951-0.20463 0.34862-0.44142 0.79477-0.23796 0.44614-0.90652 1.70013-1.49666 2.79704-0.58535 1.09212-1.71915 3.21102-2.51864 4.70768s-1.72031 3.21581-2.04512 3.82018c-0.32597 0.60437-0.59007 1.11594-0.59007 1.1386 0 0.01903 0.31522 0.0464 0.70189 0.06063 0.38551 0.01431 1.36581 0.0464 2.18432 0.07022 0.81735 0.02738 1.49194 0.05475 1.50022 0.05947 0.00959 0.00951-0.04161 0.90659-0.11538 1.99872-0.07494 1.0874-0.18676 2.69589-0.25575 3.56915-0.07022 0.87326-0.17253 2.13792-0.22845 2.803-0.05947 0.66864-0.15227 1.71436-0.20819 2.32352-0.06071 0.61272-0.16302 1.66796-0.23324 2.34611-0.06898 0.67931-0.20463 1.9012-0.29264 2.71855-0.0928 0.81851-0.25582 2.16646-0.35814 2.99332-0.10108 0.83158-0.2641 2.04512-0.35211 2.70061-0.09404 0.6544-0.23317 1.63586-0.31645 2.1796-0.08329 0.53895-0.24152 1.54662-0.35334 2.23907-0.11662 0.69238-0.31173 1.82263-0.43663 2.51501-0.12613 0.68766-0.35334 1.85835-0.50206 2.59721-0.15351 0.74357-0.38072 1.80832-0.50685 2.36637-0.12969 0.55674-0.34855 1.46805-0.48775 2.0213s-0.39023 1.49666-0.56276 2.09152c-0.1713 0.59965-0.4497 1.50501-0.61744 2.01179-0.17253 0.50685-0.41405 1.185-0.53895 1.50624-0.12613 0.32001-0.34383 0.84945-0.48782 1.17062-0.14392 0.32481-0.36758 0.78525-0.49254 1.02677-0.13085 0.24152-0.34027 0.60437-0.46038 0.79949-0.12134 0.19984-0.35334 0.52943-0.51157 0.73406-0.1583 0.20463-0.39023 0.46989-0.5152 0.58651-0.12606 0.12018-0.34027 0.28792-0.47468 0.37121-0.12969 0.08801-0.34383 0.19032-0.46517 0.23672-0.13441 0.0464-0.33432 0.07494-0.51513 0.07494-0.1856 0-0.38072-0.02854-0.52116-0.07966-0.1249-0.04168-0.32001-0.1392-0.43184-0.21298-0.10703-0.07973-0.31645-0.26054-0.46045-0.40926-0.14392-0.14399-0.37113-0.43184-0.50562-0.63175-0.13564-0.19991-0.35806-0.58535-0.49726-0.86491-0.14044-0.27361-0.35334-0.73406-0.47468-1.01719-0.11546-0.28436-0.34383-0.90659-0.50685-1.38011-0.15707-0.47468-0.37593-1.20402-0.49254-1.618-0.11066-0.41405-0.30222-1.16118-0.41761-1.65373-0.11655-0.49726-0.30694-1.37648-0.41877-1.9476-0.11538-0.577-0.29264-1.55257-0.39974-2.17474-0.10231-0.62347-0.25582-1.58474-0.33432-2.1332-0.0785-0.55325-0.22249-1.60849-0.31173-2.34734-0.09273-0.73406-0.22721-1.86787-0.29743-2.50905-0.06898-0.64605-0.18081-1.7763-0.25103-2.51508-0.06898-0.73406-0.1713-1.93329-0.22721-2.65784-0.06063-0.72455-0.14392-1.89168-0.19032-2.59358-0.0464-0.70197-0.11183-1.75604-0.14871-2.34618-0.03333-0.58651-0.08808-1.66912-0.12613-2.40318-0.0321-0.73885-0.0785-1.81195-0.10231-2.38895-0.02258-0.57583-0.05947-1.65852-0.08329-2.40681-0.02258-0.74837-0.06543-2.25454-0.0928-3.34666-0.02382-1.09692-0.0464-4.13547-0.0464-6.76122s0.02258-5.7725 0.0464-6.98959c0.02738-1.22298 0.07022-2.85884 0.08808-3.64409 0.02374-0.78046 0.06063-1.82618 0.08801-2.32352 0.02382-0.49254 0.05591-1.01719 0.06543-1.16118l0.02382-0.26054h-1.12553c0.02382 0.01786 0.00959 0.60437-0.0273 1.30154-0.03689 0.7008-0.08808 1.86315-0.11183 2.59241-0.02266 0.72571-0.0655 2.17481-0.0928 3.2206-0.03217 1.21346-0.05119 4.17824-0.05119 8.16617 0 4.0617 0.01903 6.89563 0.05119 8.077 0.0273 0.99939 0.07494 2.35569 0.09752 3.01118 0.01903 0.66028 0.07022 1.86315 0.10231 2.68166 0.03689 0.81735 0.0928 2.0213 0.1249 2.67687 0.03812 0.66028 0.10231 1.80716 0.14871 2.55553 0.04764 0.74829 0.13092 1.9892 0.18684 2.76132 0.05591 0.77095 0.16179 2.06298 0.232 2.86719 0.07015 0.80784 0.19032 2.10938 0.27005 2.89464 0.0785 0.78162 0.20819 2.00823 0.29264 2.71847 0.08329 0.71148 0.22728 1.86903 0.31529 2.57099 0.0928 0.70073 0.24624 1.78458 0.33548 2.40681 0.0928 0.6234 0.2784 1.7893 0.41761 2.59837 0.13441 0.80305 0.35334 1.99748 0.47824 2.65305 0.13092 0.65549 0.33076 1.60849 0.44614 2.1141 0.1119 0.50685 0.30701 1.32057 0.43307 1.8036 0.12497 0.48303 0.3296 1.23612 0.45566 1.67275 0.12969 0.43787 0.36649 1.18972 0.52943 1.67398 0.16658 0.48296 0.41405 1.15639 0.54846 1.49543 0.13448 0.34027 0.37121 0.88401 0.52471 1.21354 0.15823 0.32953 0.36758 0.74829 0.46989 0.9339 0.09759 0.1856 0.32481 0.55325 0.50206 0.81858 0.22249 0.33904 0.45449 0.61744 0.79833 0.96127 0.39139 0.39023 0.54846 0.51629 0.8233 0.66028 0.1856 0.0928 0.45086 0.20463 0.58535 0.23672 0.13441 0.03689 0.34855 0.06543 0.47824 0.06543 0.13085 0 0.38188-0.03682 0.55325-0.07966 0.17725-0.0464 0.41877-0.13448 0.53887-0.19512 0.12613-0.05947 0.32125-0.18088 0.43787-0.25938 0.11059-0.08445 0.32953-0.25582 0.47352-0.38188 0.14871-0.12969 0.41877-0.41281 0.59958-0.63175 0.1856-0.21893 0.49254-0.63654 0.68294-0.92438 0.19032-0.28436 0.49726-0.78642 0.67452-1.1065 0.18088-0.32473 0.49254-0.9339 0.68766-1.36218 0.19991-0.42712 0.54374-1.22661 0.76623-1.77986 0.21886-0.55202 0.52108-1.3515 0.6698-1.78458 0.15343-0.42712 0.41281-1.22661 0.58535-1.77978 0.1713-0.54846 0.44135-1.4491 0.59486-2.00228 0.15343-0.55325 0.44614-1.66447 0.64598-2.46868 0.20463-0.80784 0.50206-2.05826 0.66384-2.78274 0.16302-0.72578 0.39974-1.82742 0.52588-2.44965 0.1249-0.62223 0.31529-1.57523 0.41761-2.1141 0.10231-0.53895 0.28436-1.52527 0.39974-2.18439 0.11662-0.66028 0.31645-1.84521 0.44614-2.63518 0.12613-0.78997 0.36286-2.35206 0.52108-3.46684 0.15823-1.12073 0.40454-2.92789 0.53895-4.02009 0.1392-1.09212 0.33432-2.74229 0.44142-3.66196 0.10231-0.92083 0.26054-2.43056 0.35334-3.35138 0.0928-0.91966 0.22721-2.3045 0.29743-3.07661 0.07015-0.77095 0.1713-1.96546 0.22721-2.65784 0.05591-0.68766 0.15351-1.90592 0.20942-2.69952 0.06063-0.79469 0.15343-2.15694 0.20935-3.02542 0.05591-0.87443 0.10711-1.58946 0.11662-1.59425 0.00356-0.00951 1.05407 0.01786 2.32824 0.05591 1.27301 0.03689 2.32352 0.05475 2.33303 0.04168 0.00356-0.00951-0.14871-0.37716-0.34383-0.81379-0.19628-0.43663-0.84589-1.87738-1.44547-3.20151z" /><path
     id="path24"
     fill="#f4b400"
     d="m243.3514 359.14751c0.10115 0 0.82214 0.02854 1.59302 0.06071 0.77218 0.03689 1.96662 0.0928 2.65428 0.12606 0.69245 0.03689 1.73818 0.0928 2.32352 0.12497 0.59014 0.03689 1.50973 0.0928 2.05463 0.1249 0.53895 0.03805 1.52883 0.10231 2.19746 0.14871 0.665 0.04756 1.91064 0.14516 2.76008 0.20942 0.85068 0.07015 2.27356 0.19032 3.16113 0.27477 0.8875 0.07857 2.24379 0.21298 3.0159 0.29271 0.77095 0.0785 1.97497 0.20935 2.67687 0.29264 0.70197 0.07857 1.71915 0.20463 2.2581 0.26889 0.54367 0.07022 1.46928 0.19628 2.05463 0.27485 0.58535 0.0785 1.50973 0.21414 2.04991 0.29264 0.54367 0.07857 1.45382 0.22365 2.03081 0.31645 0.57583 0.0928 1.57523 0.25938 2.21649 0.376 0.64598 0.11183 1.74769 0.32117 2.44842 0.46038 0.70197 0.1392 1.73818 0.35814 2.30094 0.48303 0.56269 0.12613 1.44075 0.3296 1.94752 0.46045 0.50685 0.1249 1.18972 0.30215 1.51452 0.39495 0.32597 0.08808 0.9803 0.2832 1.46456 0.43191 0.48303 0.14871 1.20279 0.39495 1.60732 0.54367 0.40446 0.14399 0.98502 0.37237 1.29675 0.50685 0.31173 0.12969 0.83638 0.37593 1.16713 0.54846 0.32953 0.1713 0.78046 0.43184 1.00295 0.58055 0.22365 0.14399 0.53887 0.38072 0.70189 0.52108 0.16302 0.13448 0.39023 0.37121 0.49734 0.5152 0.11183 0.14392 0.25103 0.36758 0.31166 0.49254 0.0928 0.19984 0.10711 0.28792 0.10711 0.62812 0 0.35697-0.01431 0.42712-0.13085 0.66864-0.06906 0.15351-0.22249 0.39023-0.33911 0.52943-0.11662 0.14036-0.32953 0.34862-0.47824 0.46517-0.14399 0.11662-0.39502 0.29743-0.55797 0.40454-0.16302 0.11183-0.51636 0.31166-0.78525 0.44614-0.27005 0.1392-0.71141 0.34855-0.98509 0.46401-0.27005 0.11655-0.78162 0.31645-1.13852 0.44251-0.35814 0.12497-0.96251 0.32481-1.33843 0.43663-0.38195 0.11546-1.16234 0.3296-1.73818 0.47831-0.57707 0.14392-1.48715 0.35806-2.03089 0.47468-0.53895 0.11538-1.44547 0.29743-2.00823 0.39974-0.56632 0.10115-1.43123 0.25459-1.9285 0.33432-0.49254 0.0785-1.417 0.22249-2.05347 0.31529-0.63298 0.08917-1.66919 0.23317-2.30094 0.31166-0.63175 0.08329-1.73338 0.21414-2.44486 0.29271-0.71504 0.07966-1.78937 0.19512-2.38779 0.25103-0.59958 0.06063-1.62272 0.15343-2.28184 0.21414-0.65556 0.05591-1.82263 0.14871-2.59358 0.20463-0.77218 0.05947-1.99872 0.14392-2.72327 0.19032-0.72578 0.0464-2.03089 0.12497-2.90052 0.17137-0.87326 0.04277-1.66803 0.08445-1.77034 0.08445h-0.1856v-4.0153l-2.45917 1.21709c-1.3515 0.6698-3.08133 1.52404-3.84277 1.8964-0.75781 0.37593-2.63998 1.30626-4.18304 2.0677-1.53827 0.7626-2.78869 1.39435-2.77918 1.40865 0.00951 0.00951 0.49734 0.23672 1.08261 0.50206 0.58658 0.26889 2.51036 1.14332 4.26633 1.94636 1.76199 0.79949 4.32231 1.96662 5.68928 2.58886 1.36581 0.6234 2.49003 1.1338 2.49961 1.1338 0.00951 0 0.01903-0.99939 0.01903-2.21649v-2.21642h0.1249c0.07022 0 0.64605-0.03333 1.28724-0.06543 0.6377-0.03217 1.64065-0.0928 2.226-0.12497 0.5913-0.03805 1.74769-0.11183 2.57571-0.17246 0.83166-0.05591 2.09987-0.14871 2.82442-0.20463 0.72571-0.06071 1.93445-0.16302 2.68159-0.232 0.74837-0.07022 1.64065-0.15351 1.98928-0.1904 0.34376-0.03326 1.31578-0.13557 2.15694-0.22837 0.83638-0.0928 2.12841-0.24631 2.86719-0.33432 0.73406-0.0928 2.11889-0.2784 3.07661-0.41877 0.95299-0.13448 2.46272-0.37121 3.3455-0.51992 0.8875-0.14871 2.06414-0.35814 2.61739-0.46045 0.55202-0.10703 1.32413-0.26054 1.71436-0.33904 0.39502-0.08329 1.1659-0.25103 1.71915-0.38072 0.55325-0.12613 1.43123-0.33911 1.95711-0.47947 0.52464-0.1392 1.32413-0.36169 1.77978-0.49726 0.45566-0.13448 1.185-0.36649 1.62163-0.5152 0.43656-0.14871 1.06003-0.37237 1.38004-0.50206 0.32125-0.1249 0.86971-0.35334 1.21354-0.50678 0.34383-0.15351 0.87326-0.40926 1.17069-0.57111 0.29743-0.16295 0.72092-0.41398 0.93862-0.55797 0.22373-0.14392 0.56756-0.39974 0.77218-0.56748 0.20463-0.1713 0.48303-0.44614 0.62695-0.61272 0.14399-0.16774 0.32125-0.40446 0.39974-0.53415 0.07494-0.12613 0.1856-0.36765 0.24152-0.53059 0.05591-0.16658 0.11662-0.42712 0.12613-0.58063 0.01307-0.17609 0-0.39023-0.04168-0.58535-0.03805-0.16774-0.13085-0.44135-0.20935-0.60437-0.07973-0.16774-0.23796-0.42233-0.35334-0.57583-0.11183-0.14871-0.38072-0.44135-0.59965-0.64598-0.21893-0.20942-0.54846-0.48419-0.72927-0.61388-0.18204-0.12969-0.53067-0.36286-0.77211-0.51636-0.24152-0.14871-0.75316-0.43184-1.12908-0.62695-0.38072-0.1904-0.8875-0.43663-1.1338-0.54846-0.23672-0.10711-0.73406-0.31645-1.09692-0.46401-0.36286-0.14516-1.05052-0.40454-1.52876-0.577-0.47831-0.17137-1.27301-0.43663-1.76679-0.59014-0.4961-0.15343-1.26821-0.38072-1.71908-0.50678-0.44614-0.12969-1.39914-0.38072-2.10938-0.55797-0.7162-0.18088-1.81791-0.44498-2.44965-0.58535-0.63647-0.14399-1.64058-0.36169-2.24023-0.48303-0.59965-0.12497-1.59425-0.32009-2.2117-0.43663-0.61868-0.11662-1.71915-0.31645-2.44965-0.44614-0.72927-0.12613-2.11882-0.34862-3.08489-0.49734-0.96723-0.14871-2.37944-0.35806-3.13731-0.46038-0.7626-0.10231-1.7572-0.232-2.21642-0.29271-0.46517-0.05591-1.39435-0.1713-2.07373-0.25103-0.67808-0.0785-2.03561-0.232-3.0159-0.33432-0.97558-0.10231-2.48654-0.25575-3.3455-0.33432-0.86491-0.08445-2.35206-0.21414-3.30977-0.29264-0.95655-0.08445-2.3973-0.19512-3.20151-0.25103-0.80428-0.06071-2.20698-0.15351-3.11829-0.21414-0.91131-0.05591-2.53766-0.14871-3.62027-0.20463-1.08268-0.06071-2.73278-0.13448-3.66196-0.17137-0.93397-0.03805-1.71915-0.07494-1.74297-0.08445-0.02738-0.00951 0.02854 1.23612 0.02854 1.23612z" /></svg>