<svg xmlns="http://www.w3.org/2000/svg" xmlns:xlink="http://www.w3.org/1999/xlink" width="1000" zoomAndPan="magnify" viewBox="0 0 750 749.999995" height="1000" preserveAspectRatio="xMidYMid meet" version="1.0"><defs><filter x="0%" y="0%" width="100%" height="100%" id="15afd79afc"><feColorMatrix values="0 0 0 0 1 0 0 0 0 1 0 0 0 0 1 0 0 0 1 0" color-interpolation-filters="sRGB"/></filter><mask id="16f4054cd0"><g filter="url(#15afd79afc)"><rect x="-75" width="900" fill="#000000" y="-74.999999" height="899.999994" fill-opacity="0.16"/></g></mask><clipPath id="16fa6d91e5"><path d="M 1 402 L 259 402 L 259 659.726562 L 1 659.726562 Z M 1 402 " clip-rule="nonzero"/></clipPath><clipPath id="f17022fc35"><rect x="0" width="661" y="0" height="660"/></clipPath></defs><g mask="url(#16f4054cd0)"><g transform="matrix(1, 0, 0, 1, 42, 7)"><g clip-path="url(#f17022fc35)"><path fill="#54d495" d="M 391.222656 525.125 C 396.449219 525.125 401.667969 524.96875 406.886719 524.652344 C 412.101562 524.332031 417.300781 523.855469 422.488281 523.21875 C 427.675781 522.582031 432.839844 521.785156 437.976562 520.832031 C 443.113281 519.875 448.21875 518.765625 453.289062 517.496094 C 458.359375 516.230469 463.382812 514.808594 468.367188 513.230469 C 473.347656 511.65625 478.277344 509.925781 483.152344 508.046875 C 488.03125 506.167969 492.84375 504.140625 497.597656 501.96875 C 502.347656 499.792969 507.027344 497.476562 511.636719 495.011719 C 516.246094 492.550781 520.777344 489.949219 525.226562 487.210938 C 529.675781 484.46875 534.039062 481.597656 538.3125 478.589844 C 542.585938 475.582031 546.761719 472.445312 550.84375 469.179688 C 554.925781 465.917969 558.902344 462.53125 562.773438 459.019531 C 566.648438 455.511719 570.410156 451.890625 574.058594 448.148438 C 577.710938 444.410156 581.242188 440.5625 584.65625 436.605469 C 588.070312 432.648438 591.359375 428.59375 594.523438 424.433594 C 597.691406 420.277344 600.726562 416.023438 603.628906 411.679688 C 606.53125 407.335938 609.300781 402.90625 611.933594 398.390625 C 614.566406 393.875 617.054688 389.285156 619.40625 384.617188 C 621.757812 379.949219 623.960938 375.214844 626.019531 370.414062 C 628.082031 365.609375 629.992188 360.75 631.75 355.828125 C 633.511719 350.90625 635.121094 345.9375 636.578125 340.917969 C 638.03125 335.902344 639.332031 330.84375 640.480469 325.742188 C 641.625 320.644531 642.613281 315.515625 643.441406 310.355469 C 644.273438 305.195312 644.945312 300.015625 645.457031 294.816406 C 645.96875 289.617188 646.320312 284.402344 646.515625 279.183594 C 646.707031 273.960938 646.738281 268.738281 646.609375 263.511719 C 646.480469 258.289062 646.191406 253.074219 645.746094 247.867188 C 645.296875 242.660156 644.6875 237.472656 643.921875 232.300781 C 643.15625 227.132812 642.230469 221.992188 641.148438 216.878906 C 640.0625 211.769531 638.824219 206.695312 637.429688 201.65625 C 636.039062 196.621094 634.488281 191.632812 632.789062 186.691406 C 631.089844 181.75 629.238281 176.863281 627.238281 172.035156 C 625.238281 167.210938 623.089844 162.445312 620.796875 157.75 C 618.503906 153.054688 616.070312 148.433594 613.496094 143.886719 C 610.917969 139.339844 608.203125 134.878906 605.355469 130.5 C 602.503906 126.117188 599.519531 121.828125 596.40625 117.632812 C 593.292969 113.4375 590.054688 109.339844 586.6875 105.339844 C 583.324219 101.34375 579.839844 97.453125 576.234375 93.667969 C 572.628906 89.882812 568.914062 86.214844 565.082031 82.660156 C 561.253906 79.101562 557.316406 75.667969 553.277344 72.355469 C 549.238281 69.039062 545.097656 65.851562 540.863281 62.792969 C 536.625 59.734375 532.300781 56.804688 527.882812 54.011719 C 523.46875 51.21875 518.972656 48.5625 514.390625 46.042969 C 509.8125 43.523438 505.160156 41.148438 500.4375 38.917969 C 495.710938 36.683594 490.921875 34.597656 486.070312 32.660156 C 481.21875 30.71875 476.308594 28.933594 471.347656 27.296875 C 466.382812 25.65625 461.375 24.175781 456.320312 22.84375 C 451.269531 21.515625 446.179688 20.339844 441.050781 19.324219 C 435.925781 18.304688 430.773438 17.449219 425.597656 16.746094 C 420.417969 16.046875 415.222656 15.503906 410.011719 15.121094 C 404.796875 14.738281 399.578125 14.519531 394.355469 14.457031 C 389.128906 14.394531 383.90625 14.492188 378.6875 14.753906 C 373.46875 15.011719 368.261719 15.429688 363.066406 16.007812 C 357.875 16.589844 352.703125 17.324219 347.554688 18.222656 C 342.40625 19.117188 337.289062 20.171875 332.207031 21.382812 C 327.125 22.589844 322.082031 23.957031 317.082031 25.476562 C 312.082031 26.996094 307.132812 28.667969 302.234375 30.492188 C 297.339844 32.316406 292.5 34.289062 287.726562 36.40625 C 282.949219 38.527344 278.242188 40.792969 273.605469 43.203125 C 268.96875 45.613281 264.410156 48.164062 259.929688 50.851562 C 255.449219 53.542969 251.054688 56.367188 246.746094 59.324219 C 242.441406 62.285156 238.226562 65.375 234.109375 68.589844 C 229.992188 71.808594 225.976562 75.148438 222.066406 78.613281 C 218.152344 82.078125 214.351562 85.660156 210.660156 89.359375 C 208.441406 91.574219 206.265625 93.828125 204.128906 96.121094 C 201.996094 98.417969 199.90625 100.75 197.855469 103.125 C 195.808594 105.496094 193.804688 107.902344 191.84375 110.351562 C 189.882812 112.796875 187.96875 115.277344 186.101562 117.792969 C 184.234375 120.308594 182.414062 122.859375 180.636719 125.441406 C 178.863281 128.027344 177.136719 130.640625 175.460938 133.289062 C 173.78125 135.9375 172.152344 138.613281 170.574219 141.320312 C 168.996094 144.027344 167.464844 146.761719 165.988281 149.527344 C 164.507812 152.289062 163.082031 155.078125 161.707031 157.894531 C 160.328125 160.710938 159.007812 163.550781 157.734375 166.414062 C 156.464844 169.28125 155.246094 172.167969 154.082031 175.078125 C 152.917969 177.988281 151.804688 180.917969 150.75 183.867188 C 149.691406 186.816406 148.691406 189.789062 147.742188 192.773438 C 146.796875 195.761719 145.902344 198.765625 145.066406 201.785156 C 144.230469 204.808594 143.449219 207.839844 142.722656 210.890625 C 142 213.941406 141.332031 217 140.71875 220.074219 C 140.105469 223.148438 139.550781 226.230469 139.050781 229.328125 C 138.554688 232.421875 138.113281 235.523438 137.726562 238.632812 C 137.34375 241.742188 137.015625 244.859375 136.746094 247.984375 C 136.476562 251.105469 136.265625 254.230469 136.113281 257.363281 C 135.957031 260.492188 135.859375 263.625 135.824219 266.757812 C 135.785156 269.890625 135.800781 273.027344 135.878906 276.160156 C 135.957031 279.292969 136.089844 282.421875 136.28125 285.550781 C 136.472656 288.679688 136.722656 291.800781 137.03125 294.921875 C 137.335938 298.039062 137.703125 301.152344 138.125 304.257812 C 138.546875 307.363281 139.023438 310.460938 139.558594 313.550781 C 140.09375 316.636719 140.6875 319.714844 141.335938 322.78125 C 141.984375 325.847656 142.691406 328.898438 143.453125 331.9375 C 144.214844 334.980469 145.03125 338.003906 145.90625 341.015625 C 146.777344 344.023438 147.707031 347.019531 148.691406 349.992188 C 149.671875 352.96875 150.710938 355.925781 151.804688 358.863281 C 152.894531 361.800781 154.042969 364.71875 155.242188 367.613281 C 156.441406 370.507812 157.695312 373.378906 159 376.230469 C 160.304688 379.078125 161.664062 381.902344 163.070312 384.703125 C 164.480469 387.5 165.941406 390.273438 167.453125 393.019531 C 168.964844 395.765625 170.527344 398.480469 172.140625 401.167969 C 173.75 403.855469 175.410156 406.515625 177.121094 409.140625 C 178.832031 411.769531 180.589844 414.363281 182.394531 416.925781 C 184.199219 419.484375 186.050781 422.015625 187.949219 424.507812 C 189.847656 427 191.792969 429.457031 193.78125 431.882812 C 195.769531 434.304688 197.800781 436.6875 199.878906 439.035156 C 201.957031 441.382812 204.074219 443.691406 206.238281 445.960938 C 208.398438 448.226562 210.601562 450.457031 212.847656 452.644531 C 215.089844 454.832031 217.375 456.980469 219.695312 459.082031 C 222.019531 461.1875 224.378906 463.246094 226.78125 465.261719 C 229.179688 467.28125 231.613281 469.253906 234.085938 471.179688 C 236.558594 473.105469 239.0625 474.988281 241.605469 476.820312 C 244.144531 478.65625 246.71875 480.445312 249.324219 482.183594 C 251.933594 483.925781 254.570312 485.617188 257.238281 487.257812 C 259.910156 488.902344 262.605469 490.492188 265.335938 492.039062 C 268.0625 493.582031 270.816406 495.074219 273.601562 496.515625 C 276.382812 497.957031 279.191406 499.347656 282.027344 500.683594 C 284.859375 502.023438 287.71875 503.308594 290.597656 504.542969 C 293.480469 505.777344 296.382812 506.957031 299.308594 508.082031 C 302.234375 509.207031 305.175781 510.277344 308.140625 511.296875 C 311.105469 512.316406 314.085938 513.277344 317.085938 514.183594 C 320.085938 515.09375 323.101562 515.945312 326.132812 516.742188 C 329.164062 517.539062 332.210938 518.277344 335.269531 518.964844 C 338.328125 519.648438 341.394531 520.277344 344.476562 520.847656 C 347.558594 521.417969 350.652344 521.933594 353.75 522.390625 C 356.851562 522.847656 359.960938 523.25 363.074219 523.589844 C 366.191406 523.933594 369.308594 524.21875 372.4375 524.449219 C 375.5625 524.675781 378.691406 524.847656 381.824219 524.960938 C 384.957031 525.070312 388.089844 525.128906 391.222656 525.125 Z M 391.222656 70.699219 C 395.027344 70.691406 398.832031 70.789062 402.632812 71 C 406.433594 71.210938 410.222656 71.527344 414.007812 71.953125 C 417.789062 72.382812 421.554688 72.914062 425.308594 73.558594 C 429.058594 74.199219 432.789062 74.949219 436.5 75.808594 C 440.207031 76.664062 443.886719 77.625 447.542969 78.691406 C 451.195312 79.761719 454.816406 80.933594 458.402344 82.207031 C 461.988281 83.480469 465.535156 84.859375 469.042969 86.335938 C 472.550781 87.816406 476.011719 89.390625 479.429688 91.070312 C 482.847656 92.746094 486.210938 94.519531 489.527344 96.386719 C 492.84375 98.257812 496.101562 100.222656 499.304688 102.277344 C 502.507812 104.335938 505.648438 106.480469 508.730469 108.71875 C 511.808594 110.953125 514.824219 113.277344 517.769531 115.6875 C 520.71875 118.09375 523.59375 120.585938 526.394531 123.160156 C 529.199219 125.734375 531.929688 128.386719 534.578125 131.117188 C 537.230469 133.847656 539.804688 136.652344 542.292969 139.53125 C 544.785156 142.40625 547.191406 145.355469 549.515625 148.371094 C 551.835938 151.386719 554.070312 154.464844 556.21875 157.609375 C 558.363281 160.753906 560.417969 163.957031 562.378906 167.21875 C 564.339844 170.480469 566.207031 173.792969 567.980469 177.164062 C 569.753906 180.53125 571.425781 183.949219 573.003906 187.414062 C 574.582031 190.875 576.054688 194.382812 577.429688 197.933594 C 578.808594 201.480469 580.078125 205.066406 581.25 208.691406 C 582.417969 212.3125 583.484375 215.964844 584.445312 219.648438 C 585.40625 223.332031 586.261719 227.039062 587.007812 230.769531 C 587.757812 234.503906 588.394531 238.253906 588.929688 242.019531 C 589.460938 245.789062 589.886719 249.570312 590.203125 253.363281 C 590.519531 257.15625 590.726562 260.957031 590.824219 264.761719 C 590.925781 268.566406 590.914062 272.371094 590.792969 276.175781 C 590.675781 279.980469 590.445312 283.777344 590.109375 287.570312 C 589.773438 291.359375 589.328125 295.140625 588.773438 298.90625 C 588.21875 302.671875 587.558594 306.417969 586.789062 310.144531 C 586.019531 313.875 585.148438 317.578125 584.164062 321.253906 C 583.183594 324.933594 582.101562 328.578125 580.910156 332.195312 C 579.71875 335.808594 578.429688 339.386719 577.03125 342.929688 C 575.636719 346.472656 574.144531 349.96875 572.546875 353.425781 C 570.953125 356.882812 569.257812 360.289062 567.46875 363.648438 C 565.679688 367.007812 563.792969 370.3125 561.8125 373.5625 C 559.832031 376.8125 557.761719 380.003906 555.597656 383.136719 C 553.433594 386.269531 551.183594 389.335938 548.84375 392.339844 C 546.503906 395.339844 544.082031 398.273438 541.574219 401.140625 C 539.070312 404.003906 536.480469 406.792969 533.816406 409.507812 C 531.148438 412.222656 528.40625 414.863281 525.585938 417.421875 C 522.769531 419.980469 519.878906 422.453125 516.921875 424.847656 C 513.960938 427.242188 510.933594 429.546875 507.84375 431.765625 C 504.75 433.984375 501.597656 436.113281 498.382812 438.152344 C 495.167969 440.191406 491.898438 442.136719 488.574219 443.988281 C 485.246094 445.839844 481.871094 447.59375 478.445312 449.253906 C 475.019531 450.910156 471.546875 452.46875 468.03125 453.929688 C 464.515625 455.386719 460.960938 456.746094 457.367188 458 C 453.777344 459.253906 450.148438 460.40625 446.488281 461.453125 C 442.832031 462.5 439.144531 463.441406 435.429688 464.277344 C 431.71875 465.113281 427.984375 465.84375 424.226562 466.464844 C 420.472656 467.089844 416.703125 467.601562 412.917969 468.007812 C 409.132812 468.414062 405.339844 468.710938 401.539062 468.898438 C 397.738281 469.089844 393.933594 469.167969 390.128906 469.140625 C 386.320312 469.109375 382.519531 468.972656 378.722656 468.722656 C 374.921875 468.476562 371.132812 468.121094 367.355469 467.65625 C 363.578125 467.191406 359.816406 466.617188 356.074219 465.9375 C 352.328125 465.257812 348.605469 464.472656 344.90625 463.578125 C 341.203125 462.683594 337.535156 461.6875 333.890625 460.582031 C 330.25 459.480469 326.640625 458.269531 323.066406 456.960938 C 319.492188 455.648438 315.960938 454.238281 312.46875 452.726562 C 308.976562 451.210938 305.527344 449.597656 302.128906 447.890625 C 298.726562 446.179688 295.378906 444.371094 292.082031 442.46875 C 288.785156 440.566406 285.546875 438.570312 282.363281 436.480469 C 279.183594 434.394531 276.0625 432.214844 273.003906 429.949219 C 269.949219 427.683594 266.957031 425.328125 264.035156 422.890625 C 261.113281 420.453125 258.261719 417.929688 255.484375 415.328125 C 252.707031 412.726562 250.003906 410.046875 247.378906 407.292969 C 244.753906 404.535156 242.210938 401.707031 239.75 398.800781 C 237.289062 395.898438 234.910156 392.929688 232.617188 389.890625 C 230.324219 386.851562 228.121094 383.75 226.007812 380.585938 C 223.894531 377.417969 221.871094 374.195312 219.941406 370.914062 C 218.011719 367.636719 216.179688 364.300781 214.441406 360.914062 C 212.703125 357.527344 211.0625 354.097656 209.519531 350.617188 C 207.976562 347.136719 206.539062 343.613281 205.199219 340.050781 C 203.859375 336.488281 202.621094 332.890625 201.488281 329.257812 C 200.351562 325.625 199.324219 321.960938 198.402344 318.269531 C 197.476562 314.574219 196.660156 310.859375 195.949219 307.121094 C 195.238281 303.382812 194.636719 299.625 194.140625 295.851562 C 193.644531 292.078125 193.257812 288.292969 192.980469 284.496094 C 192.699219 280.699219 192.53125 276.898438 192.472656 273.09375 C 192.410156 269.285156 192.457031 265.484375 192.617188 261.679688 C 192.773438 257.875 193.039062 254.082031 193.414062 250.292969 C 193.789062 246.503906 194.273438 242.730469 194.863281 238.972656 C 195.457031 235.210938 196.15625 231.472656 196.960938 227.75 C 197.765625 224.03125 198.675781 220.335938 199.695312 216.667969 C 200.710938 213 201.832031 209.367188 203.058594 205.761719 C 204.285156 202.160156 205.613281 198.59375 207.042969 195.066406 C 208.472656 191.539062 210.003906 188.054688 211.632812 184.617188 C 213.261719 181.175781 214.992188 177.785156 216.8125 174.445312 C 218.636719 171.105469 220.558594 167.816406 222.570312 164.585938 C 224.582031 161.355469 226.683594 158.1875 228.878906 155.074219 C 231.074219 151.964844 233.355469 148.921875 235.722656 145.941406 C 238.09375 142.960938 240.542969 140.054688 243.078125 137.214844 C 245.617188 134.375 248.230469 131.609375 250.925781 128.921875 C 255.519531 124.324219 260.328125 119.964844 265.351562 115.839844 C 270.375 111.714844 275.585938 107.84375 280.988281 104.230469 C 286.390625 100.617188 291.957031 97.277344 297.6875 94.210938 C 303.417969 91.140625 309.285156 88.363281 315.289062 85.871094 C 321.292969 83.378906 327.402344 81.1875 333.621094 79.296875 C 339.839844 77.40625 346.136719 75.824219 352.507812 74.550781 C 358.882812 73.277344 365.304688 72.316406 371.769531 71.675781 C 378.238281 71.03125 384.722656 70.707031 391.222656 70.699219 Z M 391.222656 70.699219 " fill-opacity="1" fill-rule="nonzero"/><g clip-path="url(#16fa6d91e5)"><path fill="#54d495" d="M 29.253906 659.949219 C 31.09375 659.941406 32.914062 659.757812 34.714844 659.390625 C 36.519531 659.023438 38.269531 658.488281 39.964844 657.777344 C 41.664062 657.066406 43.273438 656.199219 44.800781 655.171875 C 46.328125 654.144531 47.738281 652.976562 49.035156 651.671875 L 250.363281 450.484375 C 251.011719 449.835938 251.628906 449.15625 252.214844 448.445312 C 252.796875 447.734375 253.34375 446.996094 253.855469 446.230469 C 254.363281 445.464844 254.835938 444.679688 255.269531 443.867188 C 255.703125 443.058594 256.097656 442.226562 256.449219 441.378906 C 256.800781 440.527344 257.109375 439.664062 257.378906 438.785156 C 257.644531 437.902344 257.867188 437.011719 258.046875 436.109375 C 258.226562 435.207031 258.359375 434.300781 258.449219 433.386719 C 258.539062 432.46875 258.585938 431.554688 258.585938 430.632812 C 258.585938 429.714844 258.539062 428.796875 258.449219 427.882812 C 258.359375 426.964844 258.226562 426.058594 258.046875 425.15625 C 257.867188 424.253906 257.644531 423.363281 257.378906 422.484375 C 257.109375 421.605469 256.800781 420.738281 256.449219 419.890625 C 256.097656 419.039062 255.703125 418.210938 255.269531 417.398438 C 254.835938 416.589844 254.363281 415.800781 253.855469 415.035156 C 253.34375 414.269531 252.796875 413.535156 252.214844 412.824219 C 251.628906 412.113281 251.011719 411.429688 250.363281 410.78125 C 249.710938 410.132812 249.03125 409.515625 248.320312 408.929688 C 247.609375 408.347656 246.871094 407.800781 246.109375 407.289062 C 245.34375 406.777344 244.554688 406.308594 243.746094 405.875 C 242.933594 405.441406 242.105469 405.046875 241.253906 404.695312 C 240.40625 404.34375 239.539062 404.035156 238.660156 403.765625 C 237.78125 403.5 236.890625 403.277344 235.988281 403.097656 C 235.085938 402.917969 234.175781 402.785156 233.261719 402.695312 C 232.347656 402.601562 231.429688 402.558594 230.511719 402.558594 C 229.589844 402.558594 228.675781 402.601562 227.757812 402.695312 C 226.84375 402.785156 225.933594 402.917969 225.035156 403.097656 C 224.132812 403.277344 223.242188 403.5 222.359375 403.765625 C 221.480469 404.035156 220.617188 404.34375 219.765625 404.695312 C 218.917969 405.046875 218.085938 405.441406 217.277344 405.875 C 216.464844 406.308594 215.675781 406.777344 214.914062 407.289062 C 214.148438 407.800781 213.410156 408.347656 212.699219 408.929688 C 211.988281 409.515625 211.308594 410.132812 210.660156 410.78125 L 9.472656 612.109375 C 8.5 613.085938 7.609375 614.125 6.789062 615.234375 C 5.972656 616.339844 5.242188 617.5 4.597656 618.714844 C 3.949219 619.929688 3.398438 621.183594 2.9375 622.480469 C 2.476562 623.777344 2.109375 625.101562 1.84375 626.449219 C 1.578125 627.800781 1.410156 629.160156 1.34375 630.535156 C 1.277344 631.910156 1.3125 633.28125 1.445312 634.648438 C 1.582031 636.019531 1.816406 637.371094 2.152344 638.703125 C 2.484375 640.039062 2.914062 641.34375 3.441406 642.613281 C 3.964844 643.882812 4.582031 645.109375 5.289062 646.292969 C 5.992188 647.472656 6.78125 648.59375 7.652344 649.660156 C 8.523438 650.722656 9.46875 651.71875 10.484375 652.644531 C 11.503906 653.570312 12.582031 654.417969 13.726562 655.183594 C 14.867188 655.953125 16.058594 656.632812 17.300781 657.222656 C 18.542969 657.816406 19.820312 658.3125 21.136719 658.714844 C 22.453125 659.121094 23.789062 659.425781 25.148438 659.632812 C 26.507812 659.839844 27.878906 659.945312 29.253906 659.949219 Z M 29.253906 659.949219 " fill-opacity="1" fill-rule="nonzero"/></g></g></g></g></svg>