<svg xmlns="http://www.w3.org/2000/svg" xmlns:xlink="http://www.w3.org/1999/xlink" width="1000" zoomAndPan="magnify" viewBox="0 0 750 749.999995" height="1000" preserveAspectRatio="xMidYMid meet" version="1.0"><defs><filter x="0%" y="0%" width="100%" height="100%" id="d5e45c5d4c"><feColorMatrix values="0 0 0 0 1 0 0 0 0 1 0 0 0 0 1 0 0 0 1 0" color-interpolation-filters="sRGB"/></filter><mask id="5f1cd2b880"><g filter="url(#d5e45c5d4c)"><rect x="-75" width="900" fill="#000000" y="-74.999999" height="899.999994" fill-opacity="0.16"/></g></mask><clipPath id="2d2dea3bdb"><path d="M 402 402 L 660 402 L 660 659.726562 L 402 659.726562 Z M 402 402 " clip-rule="nonzero"/></clipPath><clipPath id="a199b3f9d8"><rect x="0" width="661" y="0" height="660"/></clipPath></defs><g mask="url(#5f1cd2b880)"><g transform="matrix(1, 0, 0, 1, 47, 7)"><g clip-path="url(#a199b3f9d8)"><path fill="#54d495" d="M 269.773438 525.125 C 264.550781 525.125 259.328125 524.96875 254.113281 524.652344 C 248.894531 524.332031 243.695312 523.855469 238.507812 523.21875 C 233.320312 522.582031 228.160156 521.785156 223.019531 520.832031 C 217.882812 519.875 212.777344 518.765625 207.710938 517.496094 C 202.640625 516.230469 197.613281 514.808594 192.632812 513.230469 C 187.648438 511.65625 182.71875 509.925781 177.84375 508.046875 C 172.964844 506.167969 168.152344 504.140625 163.402344 501.96875 C 158.648438 499.792969 153.96875 497.476562 149.359375 495.011719 C 144.75 492.550781 140.21875 489.949219 135.769531 487.210938 C 131.320312 484.46875 126.957031 481.597656 122.683594 478.589844 C 118.410156 475.582031 114.234375 472.445312 110.152344 469.179688 C 106.074219 465.917969 102.09375 462.53125 98.222656 459.019531 C 94.351562 455.511719 90.589844 451.890625 86.9375 448.148438 C 83.289062 444.410156 79.753906 440.5625 76.339844 436.605469 C 72.925781 432.648438 69.636719 428.59375 66.472656 424.433594 C 63.308594 420.277344 60.273438 416.023438 57.367188 411.679688 C 54.464844 407.335938 51.695312 402.90625 49.0625 398.390625 C 46.433594 393.875 43.941406 389.285156 41.589844 384.617188 C 39.238281 379.949219 37.035156 375.214844 34.976562 370.414062 C 32.917969 365.609375 31.007812 360.75 29.246094 355.828125 C 27.484375 350.90625 25.875 345.9375 24.417969 340.917969 C 22.964844 335.902344 21.664062 330.84375 20.519531 325.742188 C 19.371094 320.644531 18.386719 315.515625 17.554688 310.355469 C 16.722656 305.195312 16.050781 300.015625 15.539062 294.816406 C 15.027344 289.617188 14.675781 284.402344 14.484375 279.183594 C 14.289062 273.960938 14.257812 268.738281 14.386719 263.511719 C 14.515625 258.289062 14.804688 253.074219 15.253906 247.867188 C 15.699219 242.660156 16.308594 237.472656 17.074219 232.300781 C 17.84375 227.132812 18.765625 221.992188 19.851562 216.878906 C 20.933594 211.769531 22.171875 206.695312 23.566406 201.65625 C 24.960938 196.621094 26.507812 191.632812 28.207031 186.691406 C 29.90625 181.75 31.757812 176.863281 33.757812 172.035156 C 35.757812 167.210938 37.90625 162.445312 40.199219 157.75 C 42.492188 153.054688 44.925781 148.433594 47.503906 143.886719 C 50.078125 139.339844 52.792969 134.878906 55.644531 130.5 C 58.492188 126.117188 61.476562 121.828125 64.589844 117.632812 C 67.703125 113.4375 70.945312 109.339844 74.308594 105.339844 C 77.675781 101.34375 81.160156 97.453125 84.761719 93.667969 C 88.367188 89.882812 92.085938 86.214844 95.914062 82.660156 C 99.742188 79.101562 103.679688 75.667969 107.71875 72.355469 C 111.761719 69.039062 115.898438 65.851562 120.132812 62.792969 C 124.371094 59.734375 128.695312 56.804688 133.113281 54.011719 C 137.527344 51.21875 142.027344 48.5625 146.605469 46.042969 C 151.183594 43.523438 155.835938 41.148438 160.5625 38.917969 C 165.285156 36.683594 170.074219 34.597656 174.925781 32.660156 C 179.78125 30.71875 184.6875 28.933594 189.652344 27.296875 C 194.613281 25.65625 199.621094 24.175781 204.675781 22.84375 C 209.730469 21.515625 214.820312 20.339844 219.945312 19.324219 C 225.070312 18.304688 230.222656 17.449219 235.402344 16.746094 C 240.578125 16.046875 245.773438 15.503906 250.988281 15.121094 C 256.199219 14.738281 261.417969 14.519531 266.640625 14.457031 C 271.867188 14.394531 277.089844 14.492188 282.308594 14.753906 C 287.527344 15.011719 292.734375 15.429688 297.929688 16.007812 C 303.121094 16.589844 308.292969 17.324219 313.441406 18.222656 C 318.589844 19.117188 323.707031 20.171875 328.789062 21.382812 C 333.875 22.589844 338.914062 23.957031 343.914062 25.476562 C 348.914062 26.996094 353.863281 28.667969 358.761719 30.492188 C 363.660156 32.316406 368.496094 34.289062 373.273438 36.40625 C 378.046875 38.527344 382.753906 40.792969 387.390625 43.203125 C 392.027344 45.613281 396.585938 48.164062 401.066406 50.851562 C 405.546875 53.542969 409.941406 56.367188 414.25 59.324219 C 418.554688 62.285156 422.769531 65.375 426.886719 68.589844 C 431.003906 71.808594 435.019531 75.148438 438.929688 78.613281 C 442.84375 82.078125 446.644531 85.660156 450.339844 89.359375 C 452.554688 91.574219 454.730469 93.828125 456.867188 96.121094 C 459 98.417969 461.09375 100.75 463.140625 103.125 C 465.1875 105.496094 467.191406 107.902344 469.152344 110.351562 C 471.113281 112.796875 473.027344 115.277344 474.894531 117.792969 C 476.761719 120.308594 478.585938 122.859375 480.359375 125.441406 C 482.132812 128.027344 483.859375 130.640625 485.535156 133.289062 C 487.214844 135.9375 488.84375 138.613281 490.421875 141.320312 C 492.003906 144.027344 493.53125 146.761719 495.007812 149.527344 C 496.488281 152.289062 497.914062 155.078125 499.292969 157.894531 C 500.667969 160.710938 501.992188 163.550781 503.261719 166.414062 C 504.53125 169.28125 505.75 172.167969 506.914062 175.078125 C 508.082031 177.988281 509.191406 180.917969 510.246094 183.867188 C 511.304688 186.816406 512.308594 189.789062 513.253906 192.773438 C 514.203125 195.761719 515.09375 198.765625 515.929688 201.785156 C 516.765625 204.808594 517.546875 207.839844 518.273438 210.890625 C 518.996094 213.941406 519.667969 217 520.277344 220.074219 C 520.890625 223.148438 521.445312 226.230469 521.945312 229.328125 C 522.441406 232.421875 522.886719 235.523438 523.269531 238.632812 C 523.652344 241.742188 523.980469 244.859375 524.25 247.984375 C 524.519531 251.105469 524.730469 254.230469 524.886719 257.363281 C 525.039062 260.492188 525.136719 263.625 525.175781 266.757812 C 525.214844 269.890625 525.195312 273.027344 525.117188 276.160156 C 525.042969 279.292969 524.90625 282.421875 524.714844 285.550781 C 524.523438 288.679688 524.273438 291.800781 523.964844 294.921875 C 523.660156 298.039062 523.296875 301.152344 522.875 304.257812 C 522.453125 307.363281 521.972656 310.460938 521.4375 313.550781 C 520.902344 316.636719 520.308594 319.714844 519.660156 322.78125 C 519.011719 325.847656 518.304688 328.898438 517.542969 331.9375 C 516.78125 334.980469 515.964844 338.003906 515.09375 341.015625 C 514.21875 344.023438 513.289062 347.019531 512.308594 349.992188 C 511.324219 352.96875 510.285156 355.925781 509.195312 358.863281 C 508.101562 361.800781 506.957031 364.71875 505.757812 367.613281 C 504.554688 370.507812 503.304688 373.378906 501.996094 376.230469 C 500.691406 379.078125 499.335938 381.902344 497.925781 384.703125 C 496.515625 387.5 495.054688 390.273438 493.542969 393.019531 C 492.03125 395.765625 490.46875 398.480469 488.859375 401.167969 C 487.246094 403.855469 485.585938 406.515625 483.875 409.140625 C 482.164062 411.769531 480.410156 414.363281 478.601562 416.925781 C 476.796875 419.484375 474.945312 422.015625 473.046875 424.507812 C 471.148438 427 469.207031 429.457031 467.214844 431.882812 C 465.226562 434.304688 463.195312 436.6875 461.117188 439.035156 C 459.039062 441.382812 456.921875 443.691406 454.757812 445.960938 C 452.597656 448.226562 450.394531 450.457031 448.152344 452.644531 C 445.90625 454.832031 443.625 456.980469 441.300781 459.082031 C 438.976562 461.1875 436.617188 463.246094 434.21875 465.261719 C 431.816406 467.28125 429.382812 469.253906 426.910156 471.179688 C 424.441406 473.105469 421.933594 474.988281 419.394531 476.820312 C 416.851562 478.65625 414.277344 480.445312 411.671875 482.183594 C 409.0625 483.925781 406.425781 485.617188 403.757812 487.257812 C 401.089844 488.902344 398.390625 490.492188 395.664062 492.039062 C 392.933594 493.582031 390.179688 495.074219 387.398438 496.515625 C 384.613281 497.957031 381.804688 499.347656 378.972656 500.683594 C 376.136719 502.023438 373.28125 503.308594 370.398438 504.542969 C 367.515625 505.777344 364.613281 506.957031 361.6875 508.082031 C 358.765625 509.207031 355.820312 510.277344 352.855469 511.296875 C 349.890625 512.316406 346.910156 513.277344 343.910156 514.183594 C 340.910156 515.09375 337.894531 515.945312 334.863281 516.742188 C 331.832031 517.539062 328.789062 518.277344 325.730469 518.964844 C 322.671875 519.648438 319.601562 520.277344 316.519531 520.847656 C 313.4375 521.417969 310.347656 521.933594 307.246094 522.390625 C 304.144531 522.847656 301.039062 523.25 297.921875 523.589844 C 294.808594 523.933594 291.6875 524.21875 288.5625 524.449219 C 285.433594 524.675781 282.304688 524.847656 279.175781 524.960938 C 276.042969 525.070312 272.910156 525.128906 269.773438 525.125 Z M 269.773438 70.699219 C 265.96875 70.691406 262.164062 70.789062 258.363281 71 C 254.5625 71.210938 250.773438 71.527344 246.988281 71.953125 C 243.207031 72.382812 239.441406 72.914062 235.6875 73.558594 C 231.9375 74.199219 228.207031 74.949219 224.5 75.808594 C 220.789062 76.664062 217.109375 77.625 213.457031 78.691406 C 209.800781 79.761719 206.183594 80.933594 202.59375 82.207031 C 199.007812 83.480469 195.460938 84.859375 191.953125 86.335938 C 188.445312 87.816406 184.984375 89.390625 181.566406 91.070312 C 178.152344 92.746094 174.785156 94.519531 171.46875 96.386719 C 168.152344 98.257812 164.894531 100.222656 161.691406 102.277344 C 158.488281 104.335938 155.347656 106.480469 152.265625 108.71875 C 149.1875 110.953125 146.171875 113.277344 143.226562 115.6875 C 140.28125 118.09375 137.40625 120.585938 134.601562 123.160156 C 131.796875 125.734375 129.070312 128.386719 126.417969 131.117188 C 123.765625 133.847656 121.195312 136.652344 118.703125 139.53125 C 116.210938 142.40625 113.804688 145.355469 111.480469 148.371094 C 109.160156 151.386719 106.925781 154.464844 104.78125 157.609375 C 102.632812 160.753906 100.578125 163.957031 98.617188 167.21875 C 96.65625 170.480469 94.789062 173.792969 93.015625 177.164062 C 91.242188 180.53125 89.570312 183.949219 87.992188 187.414062 C 86.417969 190.875 84.941406 194.382812 83.566406 197.933594 C 82.191406 201.480469 80.917969 205.066406 79.746094 208.691406 C 78.578125 212.3125 77.511719 215.964844 76.550781 219.648438 C 75.589844 223.332031 74.738281 227.039062 73.988281 230.769531 C 73.242188 234.503906 72.601562 238.253906 72.066406 242.019531 C 71.535156 245.789062 71.109375 249.570312 70.792969 253.363281 C 70.476562 257.15625 70.269531 260.957031 70.171875 264.761719 C 70.074219 268.566406 70.082031 272.371094 70.203125 276.175781 C 70.320312 279.980469 70.550781 283.777344 70.886719 287.570312 C 71.226562 291.359375 71.671875 295.140625 72.222656 298.90625 C 72.777344 302.671875 73.4375 306.417969 74.207031 310.144531 C 74.976562 313.875 75.851562 317.578125 76.832031 321.253906 C 77.8125 324.933594 78.898438 328.578125 80.085938 332.195312 C 81.277344 335.808594 82.570312 339.386719 83.964844 342.929688 C 85.359375 346.472656 86.855469 349.96875 88.449219 353.425781 C 90.042969 356.882812 91.738281 360.289062 93.527344 363.648438 C 95.320312 367.007812 97.203125 370.3125 99.183594 373.5625 C 101.164062 376.8125 103.238281 380.003906 105.398438 383.136719 C 107.5625 386.269531 109.8125 389.335938 112.152344 392.339844 C 114.492188 395.339844 116.914062 398.273438 119.421875 401.140625 C 121.929688 404.003906 124.515625 406.792969 127.183594 409.507812 C 129.847656 412.222656 132.589844 414.863281 135.410156 417.421875 C 138.226562 419.980469 141.117188 422.453125 144.078125 424.847656 C 147.035156 427.242188 150.0625 429.546875 153.15625 431.765625 C 156.246094 433.984375 159.398438 436.113281 162.613281 438.152344 C 165.828125 440.191406 169.097656 442.136719 172.425781 443.988281 C 175.75 445.839844 179.125 447.59375 182.550781 449.253906 C 185.976562 450.910156 189.449219 452.46875 192.964844 453.929688 C 196.480469 455.386719 200.035156 456.746094 203.628906 458 C 207.222656 459.253906 210.847656 460.40625 214.507812 461.453125 C 218.167969 462.5 221.851562 463.441406 225.566406 464.277344 C 229.28125 465.113281 233.015625 465.84375 236.769531 466.464844 C 240.523438 467.089844 244.292969 467.601562 248.078125 468.007812 C 251.863281 468.414062 255.65625 468.710938 259.457031 468.898438 C 263.257812 469.089844 267.0625 469.167969 270.871094 469.140625 C 274.675781 469.109375 278.476562 468.972656 282.277344 468.722656 C 286.074219 468.476562 289.863281 468.121094 293.640625 467.65625 C 297.417969 467.191406 301.179688 466.617188 304.925781 465.9375 C 308.667969 465.257812 312.390625 464.472656 316.09375 463.578125 C 319.792969 462.683594 323.464844 461.6875 327.105469 460.582031 C 330.75 459.480469 334.355469 458.269531 337.929688 456.960938 C 341.503906 455.648438 345.039062 454.238281 348.53125 452.726562 C 352.023438 451.210938 355.46875 449.597656 358.867188 447.890625 C 362.269531 446.179688 365.617188 444.371094 368.914062 442.46875 C 372.210938 440.566406 375.449219 438.570312 378.632812 436.480469 C 381.816406 434.394531 384.933594 432.214844 387.992188 429.949219 C 391.050781 427.679688 394.039062 425.328125 396.960938 422.890625 C 399.882812 420.453125 402.734375 417.929688 405.511719 415.328125 C 408.292969 412.726562 410.992188 410.046875 413.617188 407.292969 C 416.242188 404.535156 418.785156 401.707031 421.246094 398.800781 C 423.710938 395.898438 426.085938 392.929688 428.378906 389.890625 C 430.671875 386.851562 432.875 383.75 434.988281 380.585938 C 437.101562 377.417969 439.125 374.195312 441.054688 370.914062 C 442.984375 367.636719 444.816406 364.300781 446.554688 360.914062 C 448.296875 357.527344 449.933594 354.097656 451.476562 350.617188 C 453.019531 347.136719 454.460938 343.613281 455.800781 340.050781 C 457.140625 336.488281 458.375 332.890625 459.511719 329.257812 C 460.644531 325.625 461.671875 321.960938 462.597656 318.269531 C 463.519531 314.574219 464.335938 310.859375 465.046875 307.121094 C 465.757812 303.382812 466.359375 299.625 466.855469 295.851562 C 467.351562 292.078125 467.738281 288.292969 468.015625 284.496094 C 468.296875 280.699219 468.464844 276.898438 468.527344 273.09375 C 468.585938 269.285156 468.539062 265.484375 468.378906 261.679688 C 468.222656 257.875 467.957031 254.082031 467.582031 250.292969 C 467.207031 246.503906 466.722656 242.730469 466.132812 238.972656 C 465.542969 235.210938 464.84375 231.472656 464.035156 227.75 C 463.230469 224.03125 462.320312 220.335938 461.300781 216.667969 C 460.285156 213 459.164062 209.367188 457.9375 205.761719 C 456.710938 202.160156 455.382812 198.59375 453.953125 195.066406 C 452.523438 191.539062 450.992188 188.054688 449.363281 184.617188 C 447.734375 181.175781 446.007812 177.785156 444.183594 174.445312 C 442.359375 171.105469 440.441406 167.816406 438.425781 164.585938 C 436.414062 161.355469 434.3125 158.1875 432.117188 155.074219 C 429.921875 151.964844 427.640625 148.921875 425.273438 145.941406 C 422.90625 142.960938 420.453125 140.054688 417.917969 137.214844 C 415.382812 134.375 412.765625 131.609375 410.074219 128.921875 C 405.476562 124.324219 400.667969 119.964844 395.648438 115.839844 C 390.625 111.714844 385.410156 107.84375 380.007812 104.230469 C 374.605469 100.617188 369.039062 97.277344 363.308594 94.210938 C 357.578125 91.140625 351.710938 88.363281 345.707031 85.871094 C 339.707031 83.378906 333.59375 81.1875 327.375 79.296875 C 321.15625 77.40625 314.863281 75.824219 308.488281 74.550781 C 302.113281 73.277344 295.695312 72.316406 289.226562 71.675781 C 282.757812 71.03125 276.273438 70.707031 269.773438 70.699219 Z M 269.773438 70.699219 " fill-opacity="1" fill-rule="nonzero"/><g clip-path="url(#2d2dea3bdb)"><path fill="#54d495" d="M 631.746094 659.949219 C 629.90625 659.941406 628.082031 659.757812 626.28125 659.390625 C 624.476562 659.023438 622.726562 658.488281 621.03125 657.777344 C 619.335938 657.066406 617.722656 656.199219 616.195312 655.171875 C 614.671875 654.144531 613.257812 652.976562 611.960938 651.671875 L 410.632812 450.484375 C 409.984375 449.835938 409.367188 449.15625 408.785156 448.445312 C 408.199219 447.734375 407.652344 446.996094 407.144531 446.230469 C 406.632812 445.464844 406.160156 444.679688 405.726562 443.867188 C 405.292969 443.058594 404.898438 442.226562 404.546875 441.378906 C 404.195312 440.527344 403.886719 439.664062 403.621094 438.785156 C 403.351562 437.902344 403.128906 437.011719 402.949219 436.109375 C 402.769531 435.207031 402.636719 434.300781 402.546875 433.386719 C 402.457031 432.46875 402.410156 431.554688 402.410156 430.632812 C 402.410156 429.714844 402.457031 428.796875 402.546875 427.882812 C 402.636719 426.964844 402.769531 426.058594 402.949219 425.15625 C 403.128906 424.253906 403.351562 423.363281 403.621094 422.484375 C 403.886719 421.605469 404.195312 420.738281 404.546875 419.890625 C 404.898438 419.039062 405.292969 418.210938 405.726562 417.398438 C 406.160156 416.589844 406.632812 415.800781 407.144531 415.035156 C 407.652344 414.269531 408.199219 413.535156 408.785156 412.824219 C 409.367188 412.113281 409.984375 411.429688 410.632812 410.78125 C 411.285156 410.132812 411.964844 409.515625 412.675781 408.929688 C 413.386719 408.347656 414.125 407.800781 414.886719 407.289062 C 415.652344 406.777344 416.441406 406.308594 417.25 405.875 C 418.0625 405.441406 418.894531 405.046875 419.742188 404.695312 C 420.59375 404.34375 421.457031 404.035156 422.335938 403.765625 C 423.214844 403.5 424.105469 403.277344 425.007812 403.097656 C 425.910156 402.917969 426.820312 402.785156 427.734375 402.695312 C 428.648438 402.601562 429.566406 402.558594 430.484375 402.558594 C 431.40625 402.558594 432.324219 402.601562 433.238281 402.695312 C 434.152344 402.785156 435.0625 402.917969 435.964844 403.097656 C 436.867188 403.277344 437.757812 403.5 438.636719 403.765625 C 439.515625 404.035156 440.378906 404.34375 441.230469 404.695312 C 442.078125 405.046875 442.910156 405.441406 443.722656 405.875 C 444.53125 406.308594 445.320312 406.777344 446.085938 407.289062 C 446.847656 407.800781 447.585938 408.347656 448.296875 408.929688 C 449.007812 409.515625 449.6875 410.132812 450.339844 410.78125 L 651.527344 612.109375 C 652.496094 613.085938 653.390625 614.125 654.207031 615.234375 C 655.023438 616.339844 655.753906 617.5 656.398438 618.714844 C 657.046875 619.929688 657.601562 621.183594 658.0625 622.480469 C 658.523438 623.777344 658.886719 625.101562 659.152344 626.449219 C 659.421875 627.800781 659.585938 629.160156 659.652344 630.535156 C 659.71875 631.910156 659.683594 633.28125 659.550781 634.648438 C 659.414062 636.019531 659.179688 637.371094 658.847656 638.703125 C 658.511719 640.039062 658.082031 641.34375 657.558594 642.613281 C 657.03125 643.882812 656.414062 645.109375 655.710938 646.292969 C 655.003906 647.472656 654.214844 648.59375 653.34375 649.660156 C 652.472656 650.722656 651.527344 651.71875 650.511719 652.644531 C 649.492188 653.570312 648.414062 654.417969 647.273438 655.183594 C 646.128906 655.953125 644.9375 656.632812 643.695312 657.222656 C 642.453125 657.816406 641.175781 658.3125 639.859375 658.714844 C 638.546875 659.121094 637.207031 659.425781 635.847656 659.632812 C 634.488281 659.839844 633.121094 659.945312 631.746094 659.949219 Z M 631.746094 659.949219 " fill-opacity="1" fill-rule="nonzero"/></g></g></g></g></svg>