<svg xmlns="http://www.w3.org/2000/svg" xmlns:xlink="http://www.w3.org/1999/xlink" width="1000" zoomAndPan="magnify" viewBox="0 0 750 749.999995" height="1000" preserveAspectRatio="xMidYMid meet" version="1.0"><defs><filter x="0%" y="0%" width="100%" height="100%" id="9bcdbec271"><feColorMatrix values="0 0 0 0 1 0 0 0 0 1 0 0 0 0 1 0 0 0 1 0" color-interpolation-filters="sRGB"/></filter><mask id="7c82fbc0bd"><g filter="url(#9bcdbec271)"><rect x="-75" width="900" fill="#000000" y="-74.999999" height="899.999994" fill-opacity="0.16"/></g></mask><clipPath id="caf33b1c83"><path d="M 191 40 L 703 40 L 703 552 L 191 552 Z M 191 40 " clip-rule="nonzero"/></clipPath><clipPath id="c48f7bc7e8"><path d="M 152.53125 -85.316406 L 792.441406 109.804688 L 597.320312 749.71875 L -42.59375 554.59375 Z M 152.53125 -85.316406 " clip-rule="nonzero"/></clipPath><clipPath id="261f96bf85"><path d="M 792.65625 109.871094 L 152.742188 -85.253906 L -42.378906 554.660156 L 597.53125 749.785156 Z M 792.65625 109.871094 " clip-rule="nonzero"/></clipPath><clipPath id="83867a51ce"><path d="M 0 375 L 275 375 L 275 565 L 0 565 Z M 0 375 " clip-rule="nonzero"/></clipPath><clipPath id="c2e6d14a9a"><path d="M 152.53125 -85.316406 L 792.441406 109.804688 L 597.320312 749.71875 L -42.59375 554.59375 Z M 152.53125 -85.316406 " clip-rule="nonzero"/></clipPath><clipPath id="66d0cd6d20"><path d="M 792.65625 109.871094 L 152.742188 -85.253906 L -42.378906 554.660156 L 597.53125 749.785156 Z M 792.65625 109.871094 " clip-rule="nonzero"/></clipPath><clipPath id="3da4133473"><rect x="0" width="750" y="0" height="749"/></clipPath></defs><g mask="url(#7c82fbc0bd)"><g transform="matrix(1, 0, 0, 1, 0, -0.000000000000042435)"><g clip-path="url(#3da4133473)"><g clip-path="url(#caf33b1c83)"><g clip-path="url(#c48f7bc7e8)"><g clip-path="url(#261f96bf85)"><path fill="#54d495" d="M 372.421875 540.417969 C 377.417969 541.945312 382.457031 543.316406 387.539062 544.535156 C 392.621094 545.753906 397.738281 546.8125 402.882812 547.714844 C 408.03125 548.617188 413.203125 549.363281 418.394531 549.949219 C 423.585938 550.535156 428.792969 550.960938 434.011719 551.226562 C 439.230469 551.492188 444.453125 551.597656 449.679688 551.542969 C 454.90625 551.488281 460.125 551.273438 465.335938 550.898438 C 470.546875 550.523438 475.742188 549.988281 480.921875 549.296875 C 486.101562 548.601562 491.257812 547.75 496.382812 546.738281 C 501.511719 545.726562 506.601562 544.5625 511.65625 543.238281 C 516.714844 541.914062 521.722656 540.4375 526.6875 538.808594 C 531.652344 537.175781 536.5625 535.394531 541.417969 533.464844 C 546.273438 531.53125 551.066406 529.453125 555.792969 527.226562 C 560.519531 525 565.175781 522.628906 569.757812 520.117188 C 574.339844 517.605469 578.84375 514.957031 583.261719 512.167969 C 587.679688 509.378906 592.011719 506.457031 596.25 503.402344 C 600.492188 500.347656 604.632812 497.167969 608.679688 493.859375 C 612.722656 490.550781 616.664062 487.121094 620.5 483.570312 C 624.332031 480.019531 628.054688 476.355469 631.664062 472.574219 C 635.273438 468.796875 638.765625 464.910156 642.132812 460.917969 C 645.503906 456.925781 648.75 452.832031 651.871094 448.636719 C 654.988281 444.445312 657.976562 440.160156 660.832031 435.785156 C 663.691406 431.410156 666.410156 426.949219 668.992188 422.40625 C 671.574219 417.863281 674.015625 413.246094 676.316406 408.554688 C 678.613281 403.859375 680.765625 399.101562 682.773438 394.277344 C 684.78125 389.453125 686.636719 384.570312 688.34375 379.628906 C 690.050781 374.691406 691.605469 369.703125 693.007812 364.667969 C 694.40625 359.636719 695.652344 354.5625 696.742188 349.453125 C 697.832031 344.339844 698.765625 339.203125 699.539062 334.03125 C 700.3125 328.863281 700.925781 323.679688 701.382812 318.472656 C 701.839844 313.265625 702.132812 308.050781 702.269531 302.828125 C 702.402344 297.601562 702.378906 292.378906 702.195312 287.15625 C 702.007812 281.933594 701.664062 276.722656 701.15625 271.523438 C 700.652344 266.320312 699.988281 261.140625 699.164062 255.980469 C 698.339844 250.820312 697.359375 245.6875 696.222656 240.585938 C 695.082031 235.488281 693.789062 230.425781 692.339844 225.40625 C 690.890625 220.386719 689.289062 215.414062 687.535156 210.492188 C 685.78125 205.570312 683.875 200.703125 681.824219 195.898438 C 679.769531 191.09375 677.570312 186.355469 675.226562 181.683594 C 672.882812 177.015625 670.398438 172.417969 667.773438 167.902344 C 665.148438 163.382812 662.386719 158.949219 659.488281 154.601562 C 656.589844 150.253906 653.558594 145.996094 650.398438 141.835938 C 647.242188 137.671875 643.957031 133.609375 640.546875 129.648438 C 637.140625 125.6875 633.613281 121.835938 629.964844 118.09375 C 626.320312 114.347656 622.5625 110.71875 618.695312 107.207031 C 614.828125 103.691406 610.855469 100.300781 606.777344 97.03125 C 602.703125 93.761719 598.53125 90.617188 594.261719 87.605469 C 589.992188 84.59375 585.632812 81.710938 581.1875 78.964844 C 576.742188 76.21875 572.214844 73.613281 567.609375 71.144531 C 563.003906 68.675781 558.324219 66.351562 553.574219 64.171875 C 548.828125 61.992188 544.015625 59.957031 539.140625 58.070312 C 534.269531 56.1875 529.339844 54.453125 524.359375 52.867188 C 519.378906 51.285156 514.355469 49.855469 509.289062 48.582031 C 504.21875 47.308594 499.117188 46.191406 493.980469 45.230469 C 488.84375 44.269531 483.683594 43.464844 478.496094 42.820312 C 473.3125 42.175781 468.109375 41.691406 462.894531 41.367188 C 457.679688 41.042969 452.457031 40.875 447.234375 40.871094 C 442.007812 40.867188 436.785156 41.023438 431.570312 41.339844 C 426.355469 41.65625 421.152344 42.128906 415.964844 42.765625 C 410.777344 43.402344 405.617188 44.195312 400.476562 45.148438 C 395.339844 46.101562 390.234375 47.210938 385.164062 48.476562 C 380.09375 49.742188 375.066406 51.160156 370.085938 52.734375 C 365.101562 54.308594 360.171875 56.035156 355.292969 57.914062 C 350.417969 59.789062 345.601562 61.8125 340.851562 63.988281 C 336.097656 66.160156 331.414062 68.476562 326.804688 70.9375 C 324.039062 72.40625 321.300781 73.929688 318.589844 75.503906 C 315.878906 77.074219 313.195312 78.699219 310.546875 80.367188 C 307.894531 82.039062 305.273438 83.761719 302.6875 85.527344 C 300.097656 87.296875 297.542969 89.109375 295.023438 90.972656 C 292.503906 92.835938 290.015625 94.742188 287.566406 96.695312 C 285.113281 98.648438 282.703125 100.648438 280.324219 102.691406 C 277.945312 104.734375 275.609375 106.820312 273.308594 108.949219 C 271.007812 111.078125 268.746094 113.246094 266.527344 115.457031 C 264.308594 117.671875 262.128906 119.921875 259.992188 122.214844 C 257.855469 124.507812 255.757812 126.839844 253.707031 129.207031 C 251.65625 131.578125 249.648438 133.984375 247.6875 136.425781 C 245.722656 138.871094 243.808594 141.347656 241.9375 143.863281 C 240.0625 146.378906 238.238281 148.925781 236.460938 151.507812 C 234.683594 154.085938 232.957031 156.699219 231.273438 159.34375 C 229.59375 161.988281 227.960938 164.664062 226.378906 167.371094 C 224.796875 170.074219 223.261719 172.808594 221.78125 175.570312 C 220.296875 178.332031 218.867188 181.121094 217.488281 183.933594 C 216.109375 186.75 214.78125 189.585938 213.507812 192.449219 C 212.234375 195.3125 211.011719 198.199219 209.84375 201.105469 C 208.675781 204.015625 207.558594 206.945312 206.5 209.894531 C 205.4375 212.84375 204.433594 215.808594 203.480469 218.796875 C 202.53125 221.78125 201.632812 224.785156 200.792969 227.804688 C 199.953125 230.824219 199.167969 233.855469 198.441406 236.90625 C 197.710938 239.953125 197.039062 243.015625 196.421875 246.085938 C 195.808594 249.160156 195.246094 252.242188 194.746094 255.335938 C 194.242188 258.429688 193.796875 261.53125 193.410156 264.640625 C 193.019531 267.753906 192.691406 270.867188 192.417969 273.992188 C 192.144531 277.113281 191.925781 280.238281 191.769531 283.367188 C 191.609375 286.5 191.511719 289.628906 191.46875 292.765625 C 191.425781 295.898438 191.441406 299.03125 191.511719 302.164062 C 191.585938 305.296875 191.714844 308.429688 191.902344 311.558594 C 192.089844 314.6875 192.335938 317.808594 192.640625 320.929688 C 192.941406 324.046875 193.304688 327.160156 193.722656 330.269531 C 194.140625 333.375 194.613281 336.472656 195.144531 339.558594 C 195.679688 342.648438 196.265625 345.726562 196.910156 348.792969 C 197.558594 351.859375 198.257812 354.914062 199.015625 357.957031 C 199.773438 360.996094 200.585938 364.023438 201.457031 367.035156 C 202.324219 370.042969 203.25 373.039062 204.230469 376.015625 C 205.210938 378.992188 206.242188 381.949219 207.332031 384.890625 C 208.421875 387.828125 209.5625 390.746094 210.757812 393.644531 C 211.957031 396.539062 213.203125 399.414062 214.507812 402.265625 C 215.808594 405.117188 217.164062 407.941406 218.570312 410.742188 C 219.972656 413.542969 221.429688 416.316406 222.941406 419.066406 C 224.449219 421.8125 226.007812 424.53125 227.613281 427.222656 C 229.222656 429.910156 230.878906 432.570312 232.585938 435.199219 C 234.292969 437.828125 236.046875 440.425781 237.851562 442.988281 C 239.652344 445.554688 241.5 448.082031 243.394531 450.578125 C 245.292969 453.074219 247.230469 455.535156 249.21875 457.960938 C 251.203125 460.386719 253.234375 462.773438 255.308594 465.121094 C 257.382812 467.472656 259.496094 469.78125 261.65625 472.054688 C 263.816406 474.324219 266.015625 476.558594 268.257812 478.75 C 270.5 480.9375 272.777344 483.085938 275.101562 485.195312 C 277.421875 487.300781 279.777344 489.363281 282.175781 491.382812 C 284.570312 493.402344 287.003906 495.378906 289.472656 497.308594 C 291.941406 499.238281 294.445312 501.125 296.984375 502.960938 C 299.523438 504.800781 302.09375 506.589844 304.699219 508.332031 C 307.304688 510.078125 309.941406 511.769531 312.605469 513.417969 C 315.273438 515.0625 317.96875 516.660156 320.695312 518.207031 C 323.421875 519.753906 326.175781 521.25 328.957031 522.695312 C 331.738281 524.140625 334.542969 525.535156 337.375 526.875 C 340.207031 528.21875 343.0625 529.507812 345.945312 530.742188 C 348.824219 531.980469 351.726562 533.164062 354.648438 534.292969 C 357.570312 535.421875 360.515625 536.5 363.476562 537.519531 C 366.441406 538.542969 369.421875 539.507812 372.421875 540.417969 Z M 504.960938 105.75 C 508.605469 106.855469 512.210938 108.058594 515.785156 109.367188 C 519.359375 110.675781 522.894531 112.085938 526.386719 113.597656 C 529.882812 115.109375 533.328125 116.71875 536.730469 118.429688 C 540.132812 120.136719 543.480469 121.941406 546.777344 123.84375 C 550.074219 125.746094 553.316406 127.738281 556.5 129.824219 C 559.683594 131.910156 562.804688 134.089844 565.863281 136.355469 C 568.921875 138.621094 571.914062 140.96875 574.835938 143.40625 C 577.761719 145.84375 580.613281 148.363281 583.390625 150.964844 C 586.171875 153.5625 588.875 156.242188 591.5 158.996094 C 594.125 161.753906 596.671875 164.582031 599.132812 167.480469 C 601.597656 170.382812 603.976562 173.351562 606.269531 176.390625 C 608.5625 179.429688 610.769531 182.527344 612.886719 185.691406 C 615 188.855469 617.023438 192.078125 618.957031 195.359375 C 620.886719 198.640625 622.722656 201.972656 624.464844 205.355469 C 626.203125 208.742188 627.84375 212.175781 629.390625 215.652344 C 630.933594 219.132812 632.375 222.652344 633.71875 226.214844 C 635.058594 229.777344 636.296875 233.375 637.433594 237.007812 C 638.570312 240.640625 639.597656 244.304688 640.523438 247.996094 C 641.449219 251.6875 642.269531 255.402344 642.980469 259.140625 C 643.695312 262.878906 644.300781 266.636719 644.796875 270.410156 C 645.292969 274.183594 645.683594 277.96875 645.964844 281.765625 C 646.246094 285.5625 646.414062 289.363281 646.476562 293.167969 C 646.539062 296.972656 646.496094 300.777344 646.339844 304.582031 C 646.183594 308.382812 645.917969 312.179688 645.546875 315.96875 C 645.171875 319.753906 644.691406 323.53125 644.101562 327.289062 C 643.511719 331.050781 642.816406 334.789062 642.011719 338.511719 C 641.210938 342.230469 640.300781 345.925781 639.285156 349.59375 C 638.269531 353.261719 637.148438 356.898438 635.925781 360.503906 C 634.703125 364.109375 633.375 367.671875 631.945312 371.203125 C 630.519531 374.730469 628.992188 378.214844 627.363281 381.65625 C 625.734375 385.09375 624.007812 388.488281 622.1875 391.828125 C 620.363281 395.171875 618.449219 398.457031 616.4375 401.6875 C 614.425781 404.921875 612.324219 408.09375 610.132812 411.203125 C 607.9375 414.316406 605.660156 417.359375 603.292969 420.339844 C 600.925781 423.320312 598.472656 426.234375 595.941406 429.074219 C 593.40625 431.914062 590.792969 434.679688 588.101562 437.367188 C 585.410156 440.058594 582.640625 442.671875 579.800781 445.203125 C 576.957031 447.734375 574.042969 450.183594 571.0625 452.546875 C 568.078125 454.914062 565.03125 457.191406 561.917969 459.378906 C 558.804688 461.570312 555.632812 463.667969 552.398438 465.675781 C 549.164062 467.6875 545.878906 469.601562 542.535156 471.421875 C 539.191406 473.238281 535.800781 474.960938 532.355469 476.589844 C 528.914062 478.214844 525.429688 479.738281 521.902344 481.164062 C 518.371094 482.589844 514.804688 483.914062 511.199219 485.136719 C 507.59375 486.355469 503.957031 487.472656 500.289062 488.484375 C 496.617188 489.5 492.925781 490.40625 489.203125 491.207031 C 485.480469 492.007812 481.742188 492.699219 477.980469 493.289062 C 474.21875 493.875 470.445312 494.351562 466.65625 494.722656 C 462.867188 495.09375 459.070312 495.355469 455.269531 495.507812 C 451.464844 495.660156 447.660156 495.703125 443.855469 495.636719 C 440.050781 495.570312 436.25 495.398438 432.453125 495.113281 C 428.65625 494.832031 424.871094 494.4375 421.101562 493.9375 C 417.328125 493.4375 413.570312 492.832031 409.832031 492.113281 C 406.09375 491.398438 402.378906 490.578125 398.6875 489.648438 C 394.996094 488.722656 391.335938 487.6875 387.703125 486.550781 C 384.070312 485.410156 380.472656 484.167969 376.914062 482.824219 C 373.351562 481.480469 369.832031 480.035156 366.355469 478.488281 C 362.875 476.941406 359.445312 475.296875 356.0625 473.554688 C 352.675781 471.8125 349.347656 469.972656 346.066406 468.039062 C 342.789062 466.105469 339.570312 464.082031 336.40625 461.960938 C 333.242188 459.84375 330.144531 457.636719 327.109375 455.339844 C 324.074219 453.046875 321.105469 450.664062 318.207031 448.199219 C 315.308594 445.730469 312.480469 443.183594 309.726562 440.554688 C 306.972656 437.929688 304.296875 435.222656 301.699219 432.441406 C 299.101562 429.660156 296.585938 426.808594 294.148438 423.882812 C 291.714844 420.957031 289.367188 417.960938 287.101562 414.902344 C 284.839844 411.84375 282.664062 408.71875 280.582031 405.535156 C 278.496094 402.351562 276.503906 399.109375 274.605469 395.808594 C 272.707031 392.507812 270.90625 389.160156 269.199219 385.757812 C 267.492188 382.355469 265.886719 378.90625 264.378906 375.410156 C 262.867188 371.917969 261.460938 368.382812 260.15625 364.804688 C 258.847656 361.230469 257.644531 357.621094 256.546875 353.976562 C 255.449219 350.332031 254.453125 346.660156 253.566406 342.960938 C 252.675781 339.257812 251.894531 335.535156 251.21875 331.789062 C 250.542969 328.042969 249.976562 324.28125 249.515625 320.503906 C 249.058594 316.722656 248.707031 312.9375 248.464844 309.136719 C 248.21875 305.339844 248.085938 301.535156 248.0625 297.730469 C 248.039062 293.921875 248.121094 290.121094 248.316406 286.320312 C 248.507812 282.515625 248.8125 278.722656 249.222656 274.941406 C 249.632812 271.15625 250.152344 267.386719 250.777344 263.632812 C 251.40625 259.878906 252.140625 256.144531 252.980469 252.433594 C 253.820312 248.722656 254.769531 245.035156 255.820312 241.378906 C 256.871094 237.71875 258.027344 234.09375 259.289062 230.503906 C 260.546875 226.910156 261.910156 223.359375 263.371094 219.84375 C 264.835938 216.332031 266.398438 212.863281 268.0625 209.4375 C 269.722656 206.015625 271.480469 202.640625 273.339844 199.316406 C 275.195312 195.992188 277.144531 192.726562 279.1875 189.515625 C 281.230469 186.304688 283.363281 183.152344 285.585938 180.0625 C 287.808594 176.972656 290.121094 173.949219 292.515625 170.992188 C 294.914062 168.035156 297.390625 165.152344 299.953125 162.335938 C 302.515625 159.519531 305.15625 156.78125 307.875 154.117188 C 310.597656 151.457031 313.390625 148.871094 316.257812 146.367188 C 319.125 143.867188 322.058594 141.445312 325.066406 139.109375 C 328.074219 136.777344 331.144531 134.527344 334.277344 132.371094 C 337.410156 130.210938 340.605469 128.144531 343.859375 126.167969 C 347.113281 124.191406 350.417969 122.308594 353.78125 120.523438 C 359.515625 117.46875 365.386719 114.699219 371.394531 112.21875 C 377.402344 109.734375 383.519531 107.554688 389.738281 105.675781 C 395.960938 103.792969 402.261719 102.222656 408.636719 100.960938 C 415.011719 99.699219 421.433594 98.75 427.902344 98.117188 C 434.371094 97.484375 440.855469 97.171875 447.355469 97.175781 C 453.855469 97.179688 460.339844 97.503906 466.808594 98.144531 C 473.277344 98.785156 479.695312 99.742188 486.070312 101.011719 C 492.445312 102.28125 498.742188 103.863281 504.960938 105.75 Z M 504.960938 105.75 " fill-opacity="1" fill-rule="nonzero"/></g></g></g><g clip-path="url(#83867a51ce)"><g clip-path="url(#c2e6d14a9a)"><g clip-path="url(#66d0cd6d20)"><path fill="#54d495" d="M -13.136719 563.808594 C -11.371094 564.339844 -9.578125 564.691406 -7.746094 564.867188 C -5.914062 565.042969 -4.082031 565.039062 -2.253906 564.855469 C -0.421875 564.671875 1.371094 564.308594 3.132812 563.773438 C 4.890625 563.234375 6.582031 562.53125 8.203125 561.664062 L 259.457031 427.941406 C 260.265625 427.511719 261.054688 427.039062 261.820312 426.53125 C 262.585938 426.019531 263.324219 425.472656 264.035156 424.890625 C 264.746094 424.308594 265.429688 423.695312 266.078125 423.042969 C 266.730469 422.394531 267.347656 421.714844 267.933594 421.003906 C 268.515625 420.296875 269.066406 419.558594 269.578125 418.792969 C 270.089844 418.03125 270.5625 417.242188 270.996094 416.433594 C 271.433594 415.625 271.824219 414.792969 272.179688 413.945312 C 272.53125 413.09375 272.84375 412.230469 273.109375 411.351562 C 273.378906 410.472656 273.601562 409.582031 273.785156 408.679688 C 273.964844 407.777344 274.101562 406.871094 274.191406 405.957031 C 274.285156 405.039062 274.332031 404.125 274.332031 403.203125 C 274.332031 402.285156 274.289062 401.367188 274.199219 400.453125 C 274.113281 399.535156 273.976562 398.628906 273.800781 397.726562 C 273.621094 396.824219 273.398438 395.933594 273.132812 395.050781 C 272.867188 394.171875 272.558594 393.308594 272.210938 392.457031 C 271.859375 391.605469 271.46875 390.777344 271.035156 389.964844 C 270.601562 389.152344 270.132812 388.363281 269.621094 387.597656 C 269.113281 386.832031 268.566406 386.09375 267.984375 385.382812 C 267.402344 384.671875 266.785156 383.992188 266.136719 383.339844 C 265.488281 382.6875 264.808594 382.070312 264.097656 381.488281 C 263.386719 380.902344 262.652344 380.355469 261.886719 379.84375 C 261.125 379.332031 260.335938 378.855469 259.527344 378.421875 C 258.714844 377.988281 257.886719 377.59375 257.039062 377.242188 C 256.1875 376.886719 255.324219 376.578125 254.445312 376.308594 C 253.566406 376.039062 252.675781 375.816406 251.773438 375.636719 C 250.871094 375.453125 249.964844 375.320312 249.046875 375.226562 C 248.132812 375.136719 247.214844 375.089844 246.296875 375.089844 C 245.378906 375.085938 244.460938 375.128906 243.542969 375.21875 C 242.628906 375.308594 241.722656 375.441406 240.820312 375.621094 C 239.917969 375.796875 239.027344 376.019531 238.144531 376.285156 C 237.265625 376.550781 236.398438 376.859375 235.550781 377.210938 C 234.699219 377.558594 233.867188 377.953125 233.058594 378.382812 L -18.101562 512.277344 C -19.316406 512.929688 -20.472656 513.664062 -21.578125 514.484375 C -22.679688 515.304688 -23.71875 516.203125 -24.691406 517.175781 C -25.664062 518.148438 -26.558594 519.1875 -27.378906 520.292969 C -28.199219 521.398438 -28.933594 522.558594 -29.582031 523.769531 C -30.230469 524.984375 -30.785156 526.238281 -31.25 527.535156 C -31.714844 528.828125 -32.082031 530.148438 -32.351562 531.5 C -32.621094 532.847656 -32.792969 534.210938 -32.863281 535.582031 C -32.929688 536.957031 -32.898438 538.328125 -32.769531 539.699219 C -32.636719 541.066406 -32.40625 542.417969 -32.074219 543.753906 C -31.742188 545.089844 -31.316406 546.394531 -30.792969 547.667969 C -30.269531 548.9375 -29.65625 550.167969 -28.953125 551.347656 C -28.25 552.53125 -27.464844 553.65625 -26.597656 554.722656 C -25.726562 555.789062 -24.785156 556.785156 -23.769531 557.714844 C -22.753906 558.644531 -21.679688 559.492188 -20.539062 560.261719 C -19.398438 561.03125 -18.207031 561.714844 -16.96875 562.308594 C -15.726562 562.902344 -14.449219 563.402344 -13.136719 563.808594 Z M -13.136719 563.808594 " fill-opacity="1" fill-rule="nonzero"/></g></g></g></g></g></g></svg>