<svg xmlns="http://www.w3.org/2000/svg" xmlns:xlink="http://www.w3.org/1999/xlink" width="1000" zoomAndPan="magnify" viewBox="0 0 750 749.999995" height="1000" preserveAspectRatio="xMidYMid meet" version="1.0"><defs><filter x="0%" y="0%" width="100%" height="100%" id="586c7c0f61"><feColorMatrix values="0 0 0 0 1 0 0 0 0 1 0 0 0 0 1 0 0 0 1 0" color-interpolation-filters="sRGB"/></filter><mask id="5f9019d3fe"><g filter="url(#586c7c0f61)"><rect x="-75" width="900" fill="#000000" y="-74.999999" height="899.999994" fill-opacity="0.16"/></g></mask><clipPath id="f4747f5803"><path d="M 80 6 L 591 6 L 591 518 L 80 518 Z M 80 6 " clip-rule="nonzero"/></clipPath><clipPath id="93a11847da"><path d="M 152.53125 -85.316406 L 792.441406 109.804688 L 597.320312 749.71875 L -42.59375 554.59375 Z M 152.53125 -85.316406 " clip-rule="nonzero"/></clipPath><clipPath id="6dff2fbc7c"><path d="M 152.53125 -85.316406 L 792.441406 109.804688 L 597.320312 749.71875 L -42.59375 554.59375 Z M 152.53125 -85.316406 " clip-rule="nonzero"/></clipPath><clipPath id="d8e914e667"><path d="M 414 434 L 605 434 L 605 743 L 414 743 Z M 414 434 " clip-rule="nonzero"/></clipPath><clipPath id="2072f0ce98"><path d="M 152.53125 -85.316406 L 792.441406 109.804688 L 597.320312 749.71875 L -42.59375 554.59375 Z M 152.53125 -85.316406 " clip-rule="nonzero"/></clipPath><clipPath id="ad4c3a8cdc"><path d="M 152.53125 -85.316406 L 792.441406 109.804688 L 597.320312 749.71875 L -42.59375 554.59375 Z M 152.53125 -85.316406 " clip-rule="nonzero"/></clipPath><clipPath id="555c9b7ac9"><rect x="0" width="750" y="0" height="750"/></clipPath></defs><g mask="url(#5f9019d3fe)"><g transform="matrix(1, 0, 0, 1, 0, -0.000000000000042435)"><g clip-path="url(#555c9b7ac9)"><g clip-path="url(#f4747f5803)"><g clip-path="url(#93a11847da)"><g clip-path="url(#6dff2fbc7c)"><path fill="#54d495" d="M 261.035156 506.457031 C 256.035156 504.933594 251.089844 503.261719 246.191406 501.433594 C 241.296875 499.609375 236.460938 497.636719 231.683594 495.511719 C 226.910156 493.390625 222.203125 491.125 217.566406 488.710938 C 212.929688 486.300781 208.375 483.75 203.894531 481.058594 C 199.414062 478.367188 195.023438 475.539062 190.714844 472.578125 C 186.410156 469.617188 182.199219 466.527344 178.082031 463.308594 C 173.964844 460.089844 169.953125 456.746094 166.042969 453.28125 C 162.128906 449.816406 158.328125 446.230469 154.636719 442.53125 C 150.945312 438.832031 147.371094 435.023438 143.914062 431.105469 C 140.457031 427.1875 137.125 423.164062 133.914062 419.042969 C 130.703125 414.917969 127.625 410.699219 124.671875 406.386719 C 121.71875 402.074219 118.902344 397.675781 116.222656 393.191406 C 113.542969 388.707031 111 384.140625 108.597656 379.5 C 106.199219 374.859375 103.941406 370.148438 101.832031 365.367188 C 99.71875 360.589844 97.753906 355.746094 95.941406 350.847656 C 94.125 345.945312 92.464844 340.996094 90.953125 335.992188 C 89.441406 330.988281 88.085938 325.945312 86.886719 320.859375 C 85.683594 315.773438 84.640625 310.65625 83.753906 305.503906 C 82.867188 300.355469 82.140625 295.183594 81.570312 289.988281 C 81 284.792969 80.589844 279.585938 80.34375 274.367188 C 80.09375 269.148438 80.003906 263.925781 80.074219 258.699219 C 80.144531 253.472656 80.378906 248.253906 80.769531 243.042969 C 81.160156 237.832031 81.710938 232.640625 82.421875 227.460938 C 83.132812 222.285156 84 217.132812 85.027344 212.011719 C 86.054688 206.886719 87.238281 201.796875 88.578125 196.746094 C 89.917969 191.695312 91.410156 186.691406 93.054688 181.730469 C 94.703125 176.769531 96.5 171.867188 98.445312 167.015625 C 100.394531 162.167969 102.488281 157.382812 104.730469 152.664062 C 106.972656 147.941406 109.355469 143.292969 111.882812 138.71875 C 114.410156 134.144531 117.074219 129.652344 119.875 125.242188 C 122.679688 120.832031 125.613281 116.511719 128.679688 112.28125 C 131.75 108.050781 134.945312 103.917969 138.265625 99.882812 C 141.585938 95.847656 145.027344 91.917969 148.59375 88.097656 C 152.15625 84.273438 155.832031 80.5625 159.621094 76.964844 C 163.414062 73.367188 167.308594 69.890625 171.3125 66.535156 C 175.316406 63.175781 179.421875 59.941406 183.625 56.835938 C 187.824219 53.730469 192.121094 50.757812 196.503906 47.914062 C 200.890625 45.070312 205.359375 42.367188 209.910156 39.796875 C 214.460938 37.230469 219.085938 34.804688 223.785156 32.519531 C 228.488281 30.234375 233.253906 28.097656 238.082031 26.105469 C 242.914062 24.113281 247.804688 22.273438 252.746094 20.582031 C 257.691406 18.890625 262.683594 17.351562 267.722656 15.96875 C 272.761719 14.582031 277.839844 13.351562 282.953125 12.28125 C 288.066406 11.207031 293.210938 10.292969 298.378906 9.535156 C 303.550781 8.777344 308.738281 8.179688 313.945312 7.738281 C 319.15625 7.300781 324.371094 7.023438 329.59375 6.902344 C 334.820312 6.785156 340.042969 6.824219 345.265625 7.027344 C 350.484375 7.230469 355.695312 7.59375 360.898438 8.113281 C 366.097656 8.636719 371.273438 9.316406 376.433594 10.15625 C 381.589844 10.996094 386.71875 11.992188 391.816406 13.148438 C 396.910156 14.304688 401.96875 15.613281 406.984375 17.078125 C 412 18.542969 416.964844 20.160156 421.882812 21.929688 C 426.800781 23.699219 431.660156 25.621094 436.457031 27.6875 C 441.257812 29.757812 445.988281 31.96875 450.652344 34.328125 C 455.3125 36.6875 459.898438 39.1875 464.410156 41.828125 C 468.917969 44.46875 473.34375 47.246094 477.683594 50.15625 C 482.023438 53.070312 486.269531 56.109375 490.421875 59.285156 C 494.574219 62.457031 498.625 65.753906 502.574219 69.175781 C 506.523438 72.597656 510.367188 76.136719 514.097656 79.792969 C 517.832031 83.449219 521.449219 87.21875 524.949219 91.097656 C 528.449219 94.976562 531.828125 98.960938 535.085938 103.046875 C 538.34375 107.132812 541.472656 111.316406 544.472656 115.597656 C 547.472656 119.875 550.335938 124.242188 553.070312 128.699219 C 555.800781 133.152344 558.394531 137.6875 560.847656 142.300781 C 562.320312 145.066406 563.746094 147.859375 565.117188 150.675781 C 566.488281 153.492188 567.808594 156.335938 569.078125 159.203125 C 570.34375 162.066406 571.558594 164.957031 572.71875 167.867188 C 573.882812 170.777344 574.988281 173.710938 576.042969 176.660156 C 577.09375 179.613281 578.09375 182.582031 579.035156 185.574219 C 579.980469 188.5625 580.867188 191.566406 581.703125 194.585938 C 582.535156 197.609375 583.3125 200.644531 584.03125 203.695312 C 584.753906 206.746094 585.417969 209.808594 586.027344 212.882812 C 586.636719 215.957031 587.1875 219.039062 587.679688 222.136719 C 588.175781 225.230469 588.613281 228.332031 588.992188 231.445312 C 589.375 234.554688 589.695312 237.671875 589.960938 240.792969 C 590.226562 243.917969 590.4375 247.042969 590.585938 250.175781 C 590.738281 253.304688 590.828125 256.4375 590.863281 259.570312 C 590.898438 262.703125 590.875 265.839844 590.796875 268.972656 C 590.714844 272.105469 590.578125 275.234375 590.378906 278.363281 C 590.183594 281.492188 589.929688 284.613281 589.621094 287.734375 C 589.308594 290.851562 588.941406 293.964844 588.515625 297.070312 C 588.089844 300.171875 587.609375 303.269531 587.066406 306.355469 C 586.527344 309.445312 585.933594 312.519531 585.277344 315.585938 C 584.625 318.652344 583.917969 321.703125 583.152344 324.742188 C 582.386719 327.78125 581.566406 330.804688 580.6875 333.816406 C 579.8125 336.824219 578.878906 339.816406 577.890625 342.789062 C 576.90625 345.765625 575.863281 348.71875 574.765625 351.65625 C 573.671875 354.59375 572.519531 357.507812 571.316406 360.402344 C 570.113281 363.296875 568.859375 366.164062 567.550781 369.011719 C 566.238281 371.859375 564.878906 374.683594 563.464844 377.480469 C 562.054688 380.277344 560.589844 383.050781 559.074219 385.792969 C 557.558594 388.535156 555.992188 391.25 554.378906 393.9375 C 552.761719 396.621094 551.097656 399.277344 549.386719 401.902344 C 547.671875 404.527344 545.910156 407.117188 544.101562 409.679688 C 542.292969 412.238281 540.441406 414.761719 538.539062 417.253906 C 536.636719 419.746094 534.691406 422.199219 532.699219 424.621094 C 530.707031 427.039062 528.667969 429.421875 526.589844 431.765625 C 524.511719 434.113281 522.386719 436.417969 520.222656 438.683594 C 518.058594 440.949219 515.851562 443.175781 513.605469 445.359375 C 511.359375 447.546875 509.074219 449.6875 506.746094 451.789062 C 504.421875 453.890625 502.058594 455.949219 499.65625 457.960938 C 497.253906 459.976562 494.816406 461.945312 492.34375 463.867188 C 489.867188 465.792969 487.359375 467.667969 484.816406 469.5 C 482.273438 471.332031 479.699219 473.117188 477.089844 474.855469 C 474.480469 476.589844 471.839844 478.277344 469.167969 479.917969 C 466.496094 481.558594 463.796875 483.148438 461.066406 484.6875 C 458.335938 486.226562 455.582031 487.714844 452.796875 489.152344 C 450.011719 490.59375 447.203125 491.980469 444.367188 493.3125 C 441.53125 494.648438 438.671875 495.929688 435.789062 497.160156 C 432.90625 498.390625 430 499.566406 427.074219 500.6875 C 424.148438 501.808594 421.203125 502.878906 418.238281 503.890625 C 415.269531 504.90625 412.289062 505.863281 409.285156 506.769531 C 406.285156 507.671875 403.269531 508.523438 400.238281 509.3125 C 397.207031 510.105469 394.160156 510.84375 391.101562 511.523438 C 388.042969 512.207031 384.96875 512.828125 381.886719 513.398438 C 378.804688 513.964844 375.714844 514.476562 372.613281 514.929688 C 369.511719 515.382812 366.402344 515.777344 363.289062 516.117188 C 360.171875 516.457031 357.050781 516.738281 353.925781 516.960938 C 350.800781 517.1875 347.671875 517.351562 344.539062 517.460938 C 341.40625 517.570312 338.273438 517.621094 335.136719 517.613281 C 332.003906 517.609375 328.871094 517.542969 325.738281 517.421875 C 322.609375 517.300781 319.480469 517.121094 316.355469 516.882812 C 313.230469 516.644531 310.109375 516.351562 306.996094 516 C 303.882812 515.644531 300.773438 515.238281 297.675781 514.769531 C 294.578125 514.304688 291.488281 513.78125 288.40625 513.199219 C 285.328125 512.617188 282.257812 511.980469 279.203125 511.289062 C 276.144531 510.59375 273.105469 509.84375 270.074219 509.039062 C 267.046875 508.234375 264.03125 507.371094 261.035156 506.457031 Z M 393.574219 71.789062 C 389.9375 70.667969 386.269531 69.65625 382.574219 68.75 C 378.878906 67.839844 375.160156 67.039062 371.417969 66.34375 C 367.671875 65.648438 363.914062 65.0625 360.136719 64.582031 C 356.363281 64.101562 352.574219 63.730469 348.777344 63.46875 C 344.980469 63.207031 341.179688 63.054688 337.375 63.007812 C 333.566406 62.964844 329.761719 63.027344 325.960938 63.203125 C 322.160156 63.375 318.363281 63.65625 314.578125 64.050781 C 310.792969 64.441406 307.019531 64.9375 303.261719 65.546875 C 299.503906 66.152344 295.769531 66.867188 292.050781 67.6875 C 288.335938 68.511719 284.644531 69.4375 280.980469 70.46875 C 277.316406 71.503906 273.6875 72.640625 270.089844 73.882812 C 266.492188 75.121094 262.929688 76.464844 259.410156 77.910156 C 255.886719 79.355469 252.410156 80.898438 248.976562 82.542969 C 245.546875 84.1875 242.164062 85.929688 238.828125 87.769531 C 235.496094 89.605469 232.21875 91.539062 228.996094 93.5625 C 225.773438 95.589844 222.613281 97.707031 219.511719 99.914062 C 216.410156 102.121094 213.375 104.417969 210.40625 106.796875 C 207.4375 109.179688 204.539062 111.644531 201.710938 114.191406 C 198.882812 116.738281 196.128906 119.363281 193.449219 122.070312 C 190.773438 124.773438 188.175781 127.554688 185.65625 130.40625 C 183.136719 133.261719 180.703125 136.1875 178.351562 139.179688 C 176.003906 142.171875 173.738281 145.230469 171.5625 148.355469 C 169.386719 151.480469 167.304688 154.660156 165.3125 157.90625 C 163.320312 161.148438 161.421875 164.445312 159.617188 167.796875 C 157.8125 171.148438 156.105469 174.546875 154.496094 177.996094 C 152.886719 181.449219 151.378906 184.941406 149.96875 188.476562 C 148.558594 192.011719 147.253906 195.585938 146.050781 199.195312 C 144.84375 202.808594 143.746094 206.449219 142.75 210.125 C 141.753906 213.796875 140.867188 217.496094 140.082031 221.222656 C 139.300781 224.945312 138.625 228.691406 138.054688 232.453125 C 137.484375 236.21875 137.027344 239.996094 136.671875 243.785156 C 136.320312 247.574219 136.078125 251.371094 135.941406 255.175781 C 135.808594 258.980469 135.785156 262.785156 135.867188 266.589844 C 135.949219 270.394531 136.144531 274.195312 136.445312 277.988281 C 136.746094 281.78125 137.15625 285.566406 137.671875 289.335938 C 138.191406 293.105469 138.816406 296.859375 139.550781 300.59375 C 140.285156 304.332031 141.121094 308.042969 142.070312 311.726562 C 143.015625 315.414062 144.066406 319.070312 145.222656 322.699219 C 146.375 326.324219 147.632812 329.914062 148.996094 333.46875 C 150.355469 337.023438 151.820312 340.539062 153.382812 344.007812 C 154.945312 347.480469 156.605469 350.902344 158.363281 354.277344 C 160.125 357.652344 161.976562 360.976562 163.925781 364.246094 C 165.875 367.515625 167.917969 370.726562 170.050781 373.878906 C 172.183594 377.03125 174.40625 380.117188 176.714844 383.144531 C 179.027344 386.167969 181.421875 389.125 183.902344 392.011719 C 186.378906 394.898438 188.941406 397.714844 191.582031 400.453125 C 194.222656 403.195312 196.941406 405.859375 199.734375 408.445312 C 202.527344 411.027344 205.394531 413.53125 208.332031 415.953125 C 211.269531 418.375 214.273438 420.707031 217.34375 422.957031 C 220.414062 425.207031 223.546875 427.367188 226.742188 429.433594 C 229.9375 431.503906 233.1875 433.480469 236.496094 435.363281 C 239.804688 437.246094 243.164062 439.03125 246.574219 440.722656 C 249.984375 442.410156 253.441406 444.003906 256.941406 445.496094 C 260.445312 446.988281 263.984375 448.378906 267.566406 449.667969 C 271.148438 450.957031 274.761719 452.140625 278.414062 453.222656 C 282.0625 454.304688 285.738281 455.28125 289.445312 456.152344 C 293.148438 457.023438 296.875 457.789062 300.625 458.445312 C 304.375 459.105469 308.140625 459.652344 311.921875 460.097656 C 315.699219 460.539062 319.492188 460.871094 323.289062 461.09375 C 327.089844 461.320312 330.894531 461.433594 334.699219 461.441406 C 338.503906 461.449219 342.308594 461.347656 346.109375 461.132812 C 349.910156 460.921875 353.703125 460.601562 357.484375 460.175781 C 361.265625 459.746094 365.03125 459.207031 368.785156 458.5625 C 372.535156 457.917969 376.265625 457.167969 379.972656 456.308594 C 383.679688 455.449219 387.363281 454.488281 391.015625 453.417969 C 394.667969 452.347656 398.285156 451.175781 401.871094 449.898438 C 405.457031 448.621094 409.003906 447.242188 412.511719 445.761719 C 416.019531 444.28125 419.480469 442.703125 422.894531 441.023438 C 426.3125 439.347656 429.675781 437.570312 432.992188 435.699219 C 436.304688 433.828125 439.566406 431.863281 442.765625 429.804688 C 445.96875 427.746094 449.109375 425.601562 452.1875 423.363281 C 455.265625 421.125 458.277344 418.800781 461.222656 416.386719 C 464.167969 413.976562 467.042969 411.484375 469.847656 408.910156 C 472.648438 406.332031 475.375 403.679688 478.027344 400.949219 C 480.675781 398.214844 483.246094 395.410156 485.734375 392.53125 C 488.226562 389.652344 490.632812 386.703125 492.953125 383.6875 C 495.273438 380.671875 497.503906 377.589844 499.648438 374.445312 C 501.792969 371.300781 503.84375 368.097656 505.804688 364.832031 C 507.765625 361.570312 509.632812 358.253906 511.402344 354.886719 C 513.171875 351.515625 514.84375 348.097656 516.421875 344.632812 C 517.996094 341.167969 519.46875 337.660156 520.84375 334.109375 C 522.214844 330.558594 523.488281 326.972656 524.65625 323.351562 C 525.824219 319.730469 526.886719 316.074219 527.84375 312.390625 C 528.804688 308.707031 529.65625 305 530.402344 301.269531 C 531.148438 297.535156 531.785156 293.785156 532.316406 290.015625 C 532.847656 286.246094 533.269531 282.464844 533.585938 278.671875 C 533.898438 274.878906 534.105469 271.078125 534.203125 267.273438 C 534.296875 263.46875 534.285156 259.664062 534.164062 255.859375 C 534.042969 252.054688 533.8125 248.257812 533.472656 244.46875 C 533.132812 240.675781 532.6875 236.898438 532.132812 233.132812 C 531.574219 229.367188 530.914062 225.621094 530.140625 221.890625 C 529.371094 218.164062 528.496094 214.460938 527.511719 210.785156 C 526.53125 207.109375 525.441406 203.460938 524.25 199.847656 C 523.058594 196.230469 521.765625 192.652344 520.367188 189.113281 C 518.972656 185.574219 517.472656 182.074219 515.878906 178.621094 C 514.28125 175.164062 512.585938 171.757812 510.792969 168.402344 C 507.738281 162.664062 504.410156 157.089844 500.808594 151.679688 C 497.207031 146.265625 493.351562 141.046875 489.238281 136.015625 C 485.125 130.980469 480.773438 126.164062 476.1875 121.558594 C 471.597656 116.953125 466.796875 112.582031 461.78125 108.449219 C 456.765625 104.316406 451.5625 100.4375 446.164062 96.8125 C 440.769531 93.191406 435.207031 89.839844 429.484375 86.761719 C 423.757812 83.6875 417.894531 80.894531 411.898438 78.394531 C 405.898438 75.894531 399.792969 73.691406 393.574219 71.789062 Z M 393.574219 71.789062 " fill-opacity="1" fill-rule="nonzero"/></g></g></g><g clip-path="url(#d8e914e667)"><g clip-path="url(#2072f0ce98)"><g clip-path="url(#ad4c3a8cdc)"><path fill="#54d495" d="M 567.941406 740.996094 C 566.1875 740.449219 564.5 739.742188 562.878906 738.863281 C 561.261719 737.988281 559.746094 736.964844 558.332031 735.789062 C 556.914062 734.617188 555.625 733.316406 554.464844 731.886719 C 553.304688 730.460938 552.296875 728.933594 551.433594 727.308594 L 417.539062 476.144531 C 417.109375 475.335938 416.714844 474.503906 416.367188 473.652344 C 416.015625 472.804688 415.707031 471.9375 415.441406 471.058594 C 415.175781 470.179688 414.953125 469.285156 414.777344 468.386719 C 414.597656 467.484375 414.464844 466.574219 414.375 465.660156 C 414.285156 464.742188 414.242188 463.828125 414.246094 462.90625 C 414.246094 461.988281 414.292969 461.070312 414.382812 460.15625 C 414.476562 459.242188 414.609375 458.332031 414.792969 457.429688 C 414.972656 456.527344 415.195312 455.636719 415.464844 454.757812 C 415.734375 453.878906 416.042969 453.015625 416.398438 452.167969 C 416.75 451.316406 417.144531 450.488281 417.578125 449.675781 C 418.011719 448.867188 418.488281 448.078125 419 447.316406 C 419.511719 446.550781 420.058594 445.816406 420.644531 445.105469 C 421.226562 444.394531 421.84375 443.714844 422.496094 443.066406 C 423.148438 442.417969 423.828125 441.800781 424.539062 441.21875 C 425.25 440.636719 425.992188 440.089844 426.753906 439.582031 C 427.519531 439.070312 428.308594 438.601562 429.121094 438.167969 C 429.933594 437.734375 430.761719 437.34375 431.613281 436.992188 C 432.464844 436.644531 433.328125 436.335938 434.207031 436.070312 C 435.089844 435.804688 435.980469 435.582031 436.882812 435.402344 C 437.785156 435.226562 438.691406 435.09375 439.609375 435.003906 C 440.523438 434.914062 441.441406 434.871094 442.359375 434.871094 C 443.28125 434.875 444.195312 434.921875 445.113281 435.011719 C 446.027344 435.101562 446.933594 435.238281 447.835938 435.417969 C 448.738281 435.601562 449.628906 435.824219 450.507812 436.09375 C 451.386719 436.359375 452.253906 436.671875 453.101562 437.023438 C 453.949219 437.378906 454.78125 437.773438 455.589844 438.207031 C 456.398438 438.640625 457.1875 439.113281 457.949219 439.625 C 458.714844 440.136719 459.453125 440.6875 460.160156 441.269531 C 460.871094 441.855469 461.550781 442.472656 462.199219 443.125 C 462.851562 443.773438 463.464844 444.457031 464.046875 445.167969 C 464.628906 445.878906 465.175781 446.617188 465.6875 447.382812 C 466.195312 448.148438 466.667969 448.9375 467.097656 449.75 L 600.820312 701.003906 C 601.460938 702.21875 602.011719 703.476562 602.472656 704.773438 C 602.929688 706.070312 603.289062 707.394531 603.554688 708.742188 C 603.816406 710.09375 603.980469 711.457031 604.042969 712.828125 C 604.109375 714.203125 604.070312 715.574219 603.929688 716.945312 C 603.792969 718.3125 603.554688 719.664062 603.21875 720.996094 C 602.882812 722.332031 602.449219 723.632812 601.917969 724.902344 C 601.390625 726.171875 600.773438 727.398438 600.0625 728.578125 C 599.355469 729.753906 598.5625 730.875 597.691406 731.9375 C 596.816406 733 595.871094 733.996094 594.851562 734.917969 C 593.832031 735.84375 592.75 736.6875 591.605469 737.449219 C 590.460938 738.214844 589.269531 738.890625 588.023438 739.480469 C 586.78125 740.070312 585.5 740.5625 584.1875 740.964844 C 582.871094 741.363281 581.53125 741.667969 580.171875 741.871094 C 578.808594 742.074219 577.441406 742.175781 576.066406 742.179688 C 574.691406 742.183594 573.324219 742.085938 571.960938 741.886719 C 570.601562 741.6875 569.261719 741.390625 567.941406 740.996094 Z M 567.941406 740.996094 " fill-opacity="1" fill-rule="nonzero"/></g></g></g></g></g></g></svg>